<svg width="60" height="60" viewBox="0 0 60 60" fill="none" xmlns="http://www.w3.org/2000/svg">
<circle cx="30" cy="30" r="30" fill="#DBDBDB"/>
<path d="M36.8089 23.6425H35.8565C35.5866 23.6425 35.3603 23.5511 35.1774 23.3682C34.9946 23.1854 34.9035 22.9594 34.9041 22.6902C34.9041 22.4203 34.9955 22.194 35.1784 22.0111C35.3612 21.8282 35.5873 21.7371 35.8565 21.7378H36.8089V20.7854C36.8089 20.5156 36.9003 20.2892 37.0832 20.1063C37.266 19.9235 37.492 19.8324 37.7612 19.833C38.0311 19.833 38.2574 19.9244 38.4403 20.1073C38.6232 20.2902 38.7143 20.5162 38.7136 20.7854V21.7378H39.666C39.9359 21.7378 40.1622 21.8292 40.3451 22.0121C40.5279 22.1949 40.619 22.4209 40.6184 22.6902C40.6184 22.96 40.527 23.1863 40.3441 23.3692C40.1612 23.5521 39.9352 23.6432 39.666 23.6425H38.7136V24.5949C38.7136 24.8648 38.6222 25.0911 38.4393 25.274C38.2565 25.4568 38.0305 25.5479 37.7612 25.5473C37.4914 25.5473 37.2651 25.4559 37.0822 25.273C36.8993 25.0902 36.8082 24.8641 36.8089 24.5949V23.6425ZM29.1898 39.833C27.8724 39.833 26.6343 39.5828 25.4755 39.0825C24.3168 38.5822 23.3089 37.9038 22.4517 37.0473C21.5946 36.1902 20.9162 35.1822 20.4165 34.0235C19.9168 32.8648 19.6667 31.6267 19.666 30.3092C19.666 28.9917 19.9162 27.7536 20.4165 26.5949C20.9168 25.4362 21.5952 24.4282 22.4517 23.5711C23.3089 22.714 24.3168 22.0356 25.4755 21.5359C26.6343 21.0362 27.8724 20.786 29.1898 20.7854C29.9041 20.7854 30.5987 20.8609 31.2736 21.0121C31.9486 21.1632 32.5873 21.3813 33.1898 21.6663C33.1263 21.8251 33.0787 21.9917 33.047 22.1663C33.0152 22.3409 32.9993 22.5156 32.9993 22.6902C32.9993 23.3251 33.186 23.8965 33.5593 24.4044C33.9327 24.9124 34.4206 25.2536 35.0232 25.4282C35.1978 26.0314 35.539 26.5197 36.047 26.893C36.5549 27.2663 37.1263 27.4527 37.7612 27.4521C37.8406 27.4521 37.9241 27.4479 38.0117 27.4397C38.0993 27.4314 38.1825 27.4197 38.2612 27.4044C38.4041 27.8648 38.5152 28.3371 38.5946 28.8216C38.6739 29.306 38.7136 29.8019 38.7136 30.3092C38.7136 31.6267 38.4638 32.8648 37.9641 34.0235C37.4644 35.1822 36.7857 36.1902 35.9279 37.0473C35.0708 37.9044 34.0628 38.5832 32.9041 39.0835C31.7454 39.5838 30.5073 39.8336 29.1898 39.833ZM32.5232 29.3568C32.9359 29.3568 33.2771 29.2219 33.547 28.9521C33.8168 28.6822 33.9517 28.3409 33.9517 27.9282C33.9517 27.5155 33.8168 27.1743 33.547 26.9044C33.2771 26.6346 32.9359 26.4997 32.5232 26.4997C32.1105 26.4997 31.7692 26.6346 31.4993 26.9044C31.2295 27.1743 31.0946 27.5155 31.0946 27.9282C31.0946 28.3409 31.2295 28.6822 31.4993 28.9521C31.7692 29.2219 32.1105 29.3568 32.5232 29.3568ZM25.8565 29.3568C26.2692 29.3568 26.6105 29.2219 26.8803 28.9521C27.1501 28.6822 27.2851 28.3409 27.2851 27.9282C27.2851 27.5155 27.1501 27.1743 26.8803 26.9044C26.6105 26.6346 26.2692 26.4997 25.8565 26.4997C25.4438 26.4997 25.1025 26.6346 24.8327 26.9044C24.5628 27.1743 24.4279 27.5155 24.4279 27.9282C24.4279 28.3409 24.5628 28.6822 24.8327 28.9521C25.1025 29.2219 25.4438 29.3568 25.8565 29.3568ZM29.1898 35.5473C30.3168 35.5473 31.313 35.2378 32.1784 34.6187C33.0438 33.9997 33.6666 33.1981 34.047 32.214H24.3327C24.7136 33.1981 25.3368 33.9997 26.2022 34.6187C27.0676 35.2378 28.0635 35.5473 29.1898 35.5473Z" fill="#3A3532"/>
</svg>
