<svg width="60" height="60" viewBox="0 0 60 60" fill="none" xmlns="http://www.w3.org/2000/svg">
<circle cx="30" cy="30" r="30" fill="#DBDBDB"/>
<path fill-rule="evenodd" clip-rule="evenodd" d="M23.8917 23.4313C23.8916 22.7285 24.1082 22.0427 24.512 21.4675C24.9157 20.8923 25.4871 20.4555 26.1481 20.2168C26.8091 19.978 27.5276 19.9488 28.2058 20.1333C28.8839 20.3177 29.4888 20.7067 29.9378 21.2473C30.5096 20.5517 31.3328 20.1099 32.2286 20.0179C33.1243 19.9259 34.0201 20.1911 34.7214 20.7559C35.4226 21.3207 35.8727 22.1395 35.9736 23.0342C36.0746 23.929 35.8183 24.8274 35.2606 25.5343H36.2469C36.5921 25.5343 36.9339 25.6023 37.2529 25.7344C37.5718 25.8665 37.8616 26.0601 38.1057 26.3043C38.3498 26.5484 38.5435 26.8381 38.6756 27.1571C38.8077 27.476 38.8757 27.8179 38.8757 28.1631V29.4775C38.8757 29.6866 38.7926 29.8872 38.6447 30.0351C38.4968 30.183 38.2962 30.2661 38.087 30.2661H31.0419C31.0005 30.2661 30.9595 30.2579 30.9212 30.2421C30.8829 30.2262 30.8482 30.203 30.8189 30.1737C30.7896 30.1444 30.7663 30.1096 30.7505 30.0714C30.7346 30.0331 30.7265 29.9921 30.7265 29.9506V26.3124C30.4293 26.1219 30.1633 25.8868 29.9378 25.6153C29.7123 25.8864 29.4463 26.1212 29.1492 26.3114V29.9506C29.1492 30.0343 29.116 30.1145 29.0568 30.1737C28.9977 30.2329 28.9174 30.2661 28.8338 30.2661H21.7886C21.5795 30.2661 21.3789 30.183 21.231 30.0351C21.0831 29.8872 21 29.6866 21 29.4775V28.1631C21 27.8179 21.068 27.476 21.2001 27.1571C21.3322 26.8381 21.5258 26.5484 21.77 26.3043C22.0141 26.0601 22.3038 25.8665 22.6228 25.7344C22.9417 25.6023 23.2836 25.5343 23.6288 25.5343H24.6151C24.1452 24.9341 23.8904 24.1935 23.8917 23.4313ZM29.1492 23.4313C29.1492 22.9432 28.9553 22.4752 28.6102 22.1301C28.2651 21.785 27.7971 21.5911 27.3091 21.5911C26.821 21.5911 26.353 21.785 26.0079 22.1301C25.6628 22.4752 25.4689 22.9432 25.4689 23.4313C25.4689 23.9193 25.6628 24.3874 26.0079 24.7325C26.353 25.0776 26.821 25.2714 27.3091 25.2714C27.7971 25.2714 28.2651 25.0776 28.6102 24.7325C28.9553 24.3874 29.1492 23.9193 29.1492 23.4313ZM30.7265 23.4313C30.7265 23.6729 30.7741 23.9122 30.8665 24.1355C30.959 24.3587 31.0946 24.5616 31.2654 24.7325C31.4363 24.9033 31.6392 25.0389 31.8624 25.1314C32.0857 25.2238 32.325 25.2714 32.5666 25.2714C32.8083 25.2714 33.0475 25.2238 33.2708 25.1314C33.4941 25.0389 33.6969 24.9033 33.8678 24.7325C34.0387 24.5616 34.1742 24.3587 34.2667 24.1355C34.3592 23.9122 34.4068 23.6729 34.4068 23.4313C34.4068 22.9432 34.2129 22.4752 33.8678 22.1301C33.5227 21.785 33.0546 21.5911 32.5666 21.5911C32.0786 21.5911 31.6105 21.785 31.2654 22.1301C30.9203 22.4752 30.7265 22.9432 30.7265 23.4313Z" fill="#3A3532"/>
<path d="M29.1495 32.001C29.1495 31.9173 29.1163 31.8371 29.0571 31.7779C28.998 31.7188 28.9178 31.6855 28.8341 31.6855H23.26C23.0536 31.6858 22.8539 31.7589 22.6962 31.8921C22.5384 32.0252 22.4327 32.2097 22.3978 32.4132C22.1643 33.7758 22.1643 35.1683 22.3978 36.5309L22.6333 37.9073C22.7107 38.3584 22.9325 38.772 23.2653 39.0861C23.5981 39.4001 24.024 39.5976 24.4787 39.6486L25.5986 39.7738C26.6714 39.8937 27.7487 39.9691 28.8278 39.9998C28.8697 40.001 28.9115 39.9937 28.9505 39.9783C28.9896 39.963 29.0252 39.94 29.0552 39.9107C29.0852 39.8814 29.109 39.8463 29.1252 39.8076C29.1414 39.7689 29.1497 39.7274 29.1495 39.6854V32.001ZM31.0486 39.9998C31.0066 40.001 30.9649 39.9937 30.9258 39.9783C30.8868 39.963 30.8512 39.94 30.8212 39.9107C30.7912 39.8814 30.7673 39.8463 30.7511 39.8076C30.7349 39.7689 30.7266 39.7274 30.7268 39.6854V32.001C30.7268 31.9173 30.76 31.8371 30.8192 31.7779C30.8784 31.7188 30.9586 31.6855 31.0423 31.6855H36.6163C37.0432 31.6855 37.407 31.9926 37.4785 32.4132C37.713 33.7759 37.713 35.1681 37.4785 36.5309L37.2441 37.9073C37.1667 38.3585 36.9447 38.7723 36.6117 39.0864C36.2786 39.4004 35.8525 39.5978 35.3976 39.6486L34.2778 39.7738C33.2049 39.8937 32.1276 39.9691 31.0486 39.9998Z" fill="#3A3532"/>
</svg>
