<svg width="60" height="60" viewBox="0 0 60 60" fill="none" xmlns="http://www.w3.org/2000/svg">
<circle cx="30" cy="30" r="30" fill="#DBDBDB"/>
<path d="M24.334 39.667C23.784 39.667 23.313 39.471 22.921 39.079C22.529 38.687 22.3333 38.2163 22.334 37.667V21.667C22.334 21.117 22.53 20.646 22.922 20.254C23.314 19.862 23.7847 19.6663 24.334 19.667H31.509C31.7757 19.667 32.03 19.717 32.272 19.817C32.514 19.917 32.7263 20.0587 32.909 20.242L37.759 25.092C37.9423 25.2753 38.084 25.488 38.184 25.73C38.284 25.972 38.334 26.226 38.334 26.492V37.667C38.334 38.217 38.138 38.688 37.746 39.08C37.354 39.472 36.8833 39.6677 36.334 39.667H24.334ZM31.334 25.667C31.334 25.9503 31.43 26.188 31.622 26.38C31.814 26.572 32.0513 26.6677 32.334 26.667H36.334L31.334 21.667V25.667ZM29.334 32.667V34.667C29.334 34.9503 29.43 35.188 29.622 35.38C29.814 35.572 30.0513 35.6677 30.334 35.667C30.6173 35.667 30.855 35.571 31.047 35.379C31.239 35.187 31.3347 34.9497 31.334 34.667V32.667H33.334C33.6173 32.667 33.855 32.571 34.047 32.379C34.239 32.187 34.3347 31.9497 34.334 31.667C34.334 31.3837 34.238 31.146 34.046 30.954C33.854 30.762 33.6167 30.6663 33.334 30.667H31.334V28.667C31.334 28.3837 31.238 28.146 31.046 27.954C30.854 27.762 30.6167 27.6663 30.334 27.667C30.0507 27.667 29.813 27.763 29.621 27.955C29.429 28.147 29.3333 28.3843 29.334 28.667V30.667H27.334C27.0507 30.667 26.813 30.763 26.621 30.955C26.429 31.147 26.3333 31.3843 26.334 31.667C26.334 31.9503 26.43 32.188 26.622 32.38C26.814 32.572 27.0513 32.6677 27.334 32.667H29.334Z" fill="#3A3532"/>
</svg>
