<svg width="60" height="60" viewBox="0 0 60 60" fill="none" xmlns="http://www.w3.org/2000/svg">
<circle cx="30" cy="30" r="30" fill="#DBDBDB"/>
<path d="M29.2992 32.167L23.3742 31.417C22.9575 31.367 22.6865 31.142 22.5612 30.742C22.4358 30.342 22.5235 30.0003 22.8242 29.717L33.0492 19.917C33.1325 19.8337 33.2325 19.771 33.3492 19.729C33.4658 19.687 33.6242 19.6663 33.8242 19.667C34.1575 19.667 34.4118 19.8087 34.5872 20.092C34.7625 20.3753 34.7665 20.667 34.5992 20.967L31.2992 27.167L37.2241 27.917C37.6408 27.967 37.9118 28.192 38.0371 28.592C38.1625 28.992 38.0748 29.3337 37.7741 29.617L27.5492 39.417C27.4658 39.5003 27.3658 39.563 27.2492 39.605C27.1325 39.647 26.9742 39.6676 26.7742 39.667C26.4408 39.667 26.1865 39.5253 26.0112 39.242C25.8358 38.9586 25.8318 38.667 25.9992 38.367L29.2992 32.167Z" fill="#3A3532"/>
</svg>
