<svg width="21" height="21" viewBox="0 0 21 21" fill="none" xmlns="http://www.w3.org/2000/svg">
<path fill-rule="evenodd" clip-rule="evenodd" d="M10.0329 19.0624C15.0197 19.0624 19.0624 15.0197 19.0624 10.0329C19.0624 5.04602 15.0197 1.00329 10.0329 1.00329C5.04602 1.00329 1.00329 5.04602 1.00329 10.0329C1.00329 15.0197 5.04602 19.0624 10.0329 19.0624ZM10.0329 20.0657C15.574 20.0657 20.0657 15.574 20.0657 10.0329C20.0657 4.49171 15.574 0 10.0329 0C4.49171 0 0 4.49171 0 10.0329C0 15.574 4.49171 20.0657 10.0329 20.0657Z" fill="#5F5F5F"/>
<path d="M4.01172 15.8671C4.01172 15.3489 4.39899 14.9109 4.91468 14.8537C8.78485 14.4253 11.2956 14.464 15.1572 14.8633C15.35 14.8835 15.5328 14.9595 15.6832 15.0819C15.8336 15.2043 15.945 15.3679 16.004 15.5526C16.0629 15.7373 16.0668 15.9352 16.0151 16.1221C15.9635 16.309 15.8585 16.4768 15.713 16.605C11.1556 20.5775 8.55108 20.5228 4.33277 16.609C4.1271 16.4184 4.01172 16.1475 4.01172 15.8676V15.8671Z" fill="#5F5F5F"/>
<path fill-rule="evenodd" clip-rule="evenodd" d="M15.1072 15.3618C11.2761 14.9655 8.80154 14.9284 4.971 15.3523C4.84491 15.367 4.72867 15.4277 4.64453 15.5227C4.5604 15.6178 4.51428 15.7406 4.51501 15.8675C4.51501 16.011 4.5747 16.1469 4.67553 16.2412C6.76638 18.1806 8.35057 19.0569 9.89914 19.0625C11.4532 19.068 13.1227 18.1986 15.3851 16.2272C15.457 16.1632 15.5087 16.0797 15.534 15.9869C15.5594 15.8941 15.5572 15.7959 15.5277 15.7043C15.4983 15.6127 15.4429 15.5316 15.3682 15.4709C15.2936 15.4102 15.2029 15.3725 15.1072 15.3623V15.3618ZM4.86114 14.355C8.77195 13.9221 11.3193 13.9613 15.211 14.3641C15.5011 14.3944 15.7761 14.5086 16.0023 14.6927C16.2285 14.8769 16.3961 15.123 16.4846 15.4009C16.573 15.6788 16.5786 15.9765 16.5004 16.2576C16.4223 16.5386 16.264 16.7907 16.0448 16.9832C13.7497 18.9837 11.8385 20.0733 9.89613 20.0657C7.94825 20.0587 6.12127 18.9506 3.9938 16.9766C3.84148 16.8347 3.72005 16.663 3.6371 16.4721C3.55416 16.2811 3.51147 16.0752 3.51172 15.867C3.51099 15.493 3.64827 15.1319 3.89727 14.8528C4.14626 14.5737 4.48947 14.3963 4.86114 14.3545V14.355Z" fill="#5F5F5F"/>
<path d="M14.0458 8.02632C14.0458 9.09068 13.623 10.1114 12.8704 10.864C12.1178 11.6167 11.097 12.0395 10.0327 12.0395C8.96832 12.0395 7.94756 11.6167 7.19495 10.864C6.44234 10.1114 6.01953 9.09068 6.01953 8.02632C6.01953 6.96197 6.44234 5.94121 7.19495 5.18861C7.94756 4.436 8.96832 4.01318 10.0327 4.01318C11.097 4.01318 12.1178 4.436 12.8704 5.18861C13.623 5.94121 14.0458 6.96197 14.0458 8.02632Z" fill="#5F5F5F"/>
<path fill-rule="evenodd" clip-rule="evenodd" d="M10.0327 11.0362C10.8309 11.0362 11.5965 10.7191 12.161 10.1546C12.7254 9.59016 13.0425 8.82459 13.0425 8.02632C13.0425 7.22806 12.7254 6.46249 12.161 5.89804C11.5965 5.33358 10.8309 5.01647 10.0327 5.01647C9.23441 5.01647 8.46884 5.33358 7.90438 5.89804C7.33992 6.46249 7.02282 7.22806 7.02282 8.02632C7.02282 8.82459 7.33992 9.59016 7.90438 10.1546C8.46884 10.7191 9.23441 11.0362 10.0327 11.0362ZM10.0327 12.0395C11.097 12.0395 12.1178 11.6167 12.8704 10.864C13.623 10.1114 14.0458 9.09068 14.0458 8.02632C14.0458 6.96197 13.623 5.94121 12.8704 5.18861C12.1178 4.436 11.097 4.01318 10.0327 4.01318C8.96832 4.01318 7.94756 4.436 7.19495 5.18861C6.44234 5.94121 6.01953 6.96197 6.01953 8.02632C6.01953 9.09068 6.44234 10.1114 7.19495 10.864C7.94756 11.6167 8.96832 12.0395 10.0327 12.0395Z" fill="#5F5F5F"/>
</svg>
