<svg width="20" height="20" viewBox="0 0 20 20" fill="none" xmlns="http://www.w3.org/2000/svg">
<path d="M13.3341 13.7925L14.7979 12.2419C14.9951 12.0356 15.2445 11.8944 15.516 11.8355C15.7875 11.7765 16.0692 11.8022 16.3271 11.9096L18.1112 12.6641C18.3718 12.7762 18.5953 12.9675 18.7535 13.2138C18.9117 13.4602 18.9974 13.7507 19 14.0486V17.5098C18.9985 17.7124 18.9583 17.9127 18.8818 18.0985C18.8053 18.2842 18.694 18.4517 18.5548 18.5907C18.4156 18.7298 18.2513 18.8376 18.0717 18.9076C17.8922 18.9776 17.7011 19.0083 17.51 18.9981C5.00832 18.1743 2.48577 6.96015 2.0087 2.66831C1.98656 2.45755 2.00679 2.24421 2.06807 2.04233C2.12936 1.84045 2.2303 1.6546 2.36426 1.49701C2.49822 1.33942 2.66216 1.21365 2.8453 1.128C3.02844 1.04234 3.22663 0.998727 3.42682 1.00003H6.58328C6.86495 1.00091 7.13993 1.09103 7.37285 1.25881C7.60577 1.42658 7.78598 1.66432 7.89031 1.94146L8.60263 3.83126C8.70736 4.10335 8.73408 4.4021 8.67945 4.69019C8.62483 4.97827 8.49128 5.24292 8.29548 5.45108L6.83162 7.00168C6.83162 7.00168 7.67465 13.0449 13.3341 13.7925Z" fill="#5F5F5F"/>
</svg>
