<svg width="60" height="60" viewBox="0 0 60 60" fill="none" xmlns="http://www.w3.org/2000/svg">
<circle cx="30" cy="30" r="30" fill="#DBDBDB"/>
<path d="M33.125 23.125C33.125 23.9538 32.7958 24.7487 32.2097 25.3347C31.6237 25.9208 30.8288 26.25 30 26.25C29.1712 26.25 28.3763 25.9208 27.7903 25.3347C27.2042 24.7487 26.875 23.9538 26.875 23.125C26.875 22.2962 27.2042 21.5013 27.7903 20.9153C28.3763 20.3292 29.1712 20 30 20C30.8288 20 31.6237 20.3292 32.2097 20.9153C32.7958 21.5013 33.125 22.2962 33.125 23.125ZM39.375 23.75C39.375 24.413 39.1116 25.0489 38.6428 25.5178C38.1739 25.9866 37.538 26.25 36.875 26.25C36.212 26.25 35.5761 25.9866 35.1072 25.5178C34.6384 25.0489 34.375 24.413 34.375 23.75C34.375 23.087 34.6384 22.4511 35.1072 21.9822C35.5761 21.5134 36.212 21.25 36.875 21.25C37.538 21.25 38.1739 21.5134 38.6428 21.9822C39.1116 22.4511 39.375 23.087 39.375 23.75ZM23.125 26.25C23.788 26.25 24.4239 25.9866 24.8928 25.5178C25.3616 25.0489 25.625 24.413 25.625 23.75C25.625 23.087 25.3616 22.4511 24.8928 21.9822C24.4239 21.5134 23.788 21.25 23.125 21.25C22.462 21.25 21.8261 21.5134 21.3572 21.9822C20.8884 22.4511 20.625 23.087 20.625 23.75C20.625 24.413 20.8884 25.0489 21.3572 25.5178C21.8261 25.9866 22.462 26.25 23.125 26.25ZM25 29.0625C25 28.2 25.7 27.5 26.5625 27.5H33.4375C34.3 27.5 35 28.2 35 29.0625V35C35 36.3261 34.4732 37.5979 33.5355 38.5355C32.5979 39.4732 31.3261 40 30 40C28.6739 40 27.4021 39.4732 26.4645 38.5355C25.5268 37.5979 25 36.3261 25 35V29.0625ZM23.75 29.0625C23.75 28.4838 23.925 27.9475 24.2238 27.5H21.5625C20.7 27.5 20 28.2 20 29.0625V33.75C19.9999 34.2851 20.1144 34.8141 20.3358 35.3013C20.5571 35.7886 20.8801 36.2228 21.2832 36.5748C21.6863 36.9269 22.16 37.1885 22.6726 37.3423C23.1852 37.4961 23.7247 37.5383 24.255 37.4662C23.9206 36.6871 23.7487 35.8479 23.75 35V29.0625ZM36.25 35C36.25 35.875 36.07 36.71 35.745 37.4662C36.2753 37.5383 36.8148 37.4961 37.3274 37.3423C37.84 37.1885 38.3137 36.9269 38.7168 36.5748C39.1199 36.2228 39.4429 35.7886 39.6642 35.3013C39.8856 34.8141 40.0001 34.2851 40 33.75V29.0625C40 28.2 39.3 27.5 38.4375 27.5H35.7763C36.0763 27.9475 36.25 28.4838 36.25 29.0625V35Z" fill="#3A3532"/>
</svg>
