<svg width="60" height="60" viewBox="0 0 60 60" fill="none" xmlns="http://www.w3.org/2000/svg">
<circle cx="30" cy="30" r="30" fill="#DBDBDB"/>
<path d="M39.4545 32.3636C39.1326 32.3636 38.8625 32.2545 38.6443 32.0364C38.4261 31.8182 38.3174 31.5485 38.3182 31.2273V28.9545H36.0455C35.7235 28.9545 35.4534 28.8455 35.2352 28.6273C35.017 28.4091 34.9083 28.1394 34.9091 27.8182C34.9091 27.4962 35.0182 27.2261 35.2364 27.008C35.4545 26.7898 35.7242 26.6811 36.0455 26.6818H38.3182V24.4091C38.3182 24.0871 38.4273 23.817 38.6455 23.5989C38.8636 23.3807 39.1333 23.272 39.4545 23.2727C39.7765 23.2727 40.0466 23.3818 40.2648 23.6C40.483 23.8182 40.5917 24.0879 40.5909 24.4091V26.6818H42.8636C43.1856 26.6818 43.4557 26.7909 43.6739 27.0091C43.892 27.2273 44.0008 27.497 44 27.8182C44 28.1401 43.8909 28.4102 43.6727 28.6284C43.4545 28.8466 43.1848 28.9553 42.8636 28.9545H40.5909V31.2273C40.5909 31.5492 40.4818 31.8193 40.2636 32.0375C40.0455 32.2557 39.7758 32.3644 39.4545 32.3636ZM28.0909 30.0909C26.8409 30.0909 25.7708 29.6458 24.8807 28.7557C23.9905 27.8655 23.5455 26.7955 23.5455 25.5455C23.5455 24.2955 23.9905 23.2254 24.8807 22.3352C25.7708 21.4451 26.8409 21 28.0909 21C29.3409 21 30.411 21.4451 31.3011 22.3352C32.1913 23.2254 32.6364 24.2955 32.6364 25.5455C32.6364 26.7955 32.1913 27.8655 31.3011 28.7557C30.411 29.6458 29.3409 30.0909 28.0909 30.0909ZM20.1364 39.1818C19.8144 39.1818 19.5443 39.0727 19.3261 38.8545C19.108 38.6364 18.9992 38.3667 19 38.0454V36C19 35.3561 19.1659 34.764 19.4977 34.2239C19.8295 33.6837 20.2697 33.272 20.8182 32.9886C21.9924 32.4015 23.1856 31.961 24.3977 31.667C25.6099 31.3731 26.8409 31.2265 28.0909 31.2273C29.3409 31.2273 30.572 31.3742 31.7841 31.6682C32.9962 31.9621 34.1894 32.4023 35.3636 32.9886C35.9129 33.2727 36.3534 33.6848 36.6852 34.225C37.017 34.7651 37.1826 35.3568 37.1818 36V38.0454C37.1818 38.3674 37.0727 38.6375 36.8545 38.8557C36.6364 39.0739 36.3667 39.1826 36.0455 39.1818H20.1364Z" fill="#3A3532"/>
</svg>
