<svg width="20" height="23" viewBox="0 0 20 23" fill="none" xmlns="http://www.w3.org/2000/svg">
<path d="M16.6667 22.2222C15.7407 22.2222 14.9537 21.8981 14.3056 21.25C13.6574 20.6019 13.3333 19.8148 13.3333 18.8889C13.3333 18.7593 13.3426 18.6248 13.3611 18.4856C13.3796 18.3463 13.4074 18.2215 13.4444 18.1111L5.61111 13.5556C5.2963 13.8333 4.94444 14.0511 4.55556 14.2089C4.16667 14.3667 3.75926 14.4452 3.33333 14.4444C2.40741 14.4444 1.62037 14.1204 0.972222 13.4722C0.324074 12.8241 0 12.037 0 11.1111C0 10.1852 0.324074 9.39815 0.972222 8.75C1.62037 8.10185 2.40741 7.77778 3.33333 7.77778C3.75926 7.77778 4.16667 7.85667 4.55556 8.01444C4.94444 8.17222 5.2963 8.38963 5.61111 8.66667L13.4444 4.11111C13.4074 4 13.3796 3.87518 13.3611 3.73667C13.3426 3.59815 13.3333 3.4637 13.3333 3.33333C13.3333 2.40741 13.6574 1.62037 14.3056 0.972222C14.9537 0.324074 15.7407 0 16.6667 0C17.5926 0 18.3796 0.324074 19.0278 0.972222C19.6759 1.62037 20 2.40741 20 3.33333C20 4.25926 19.6759 5.0463 19.0278 5.69444C18.3796 6.34259 17.5926 6.66667 16.6667 6.66667C16.2407 6.66667 15.8333 6.58815 15.4444 6.43111C15.0556 6.27407 14.7037 6.0563 14.3889 5.77778L6.55556 10.3333C6.59259 10.4444 6.62037 10.5696 6.63889 10.7089C6.65741 10.8481 6.66667 10.9822 6.66667 11.1111C6.66667 11.2407 6.65741 11.3752 6.63889 11.5144C6.62037 11.6537 6.59259 11.7785 6.55556 11.8889L14.3889 16.4444C14.7037 16.1667 15.0556 15.9493 15.4444 15.7922C15.8333 15.6352 16.2407 15.5563 16.6667 15.5556C17.5926 15.5556 18.3796 15.8796 19.0278 16.5278C19.6759 17.1759 20 17.963 20 18.8889C20 19.8148 19.6759 20.6019 19.0278 21.25C18.3796 21.8981 17.5926 22.2222 16.6667 22.2222Z" fill="#FCFCFC"/>
</svg>
