<svg width="60" height="60" viewBox="0 0 60 60" fill="none" xmlns="http://www.w3.org/2000/svg">
<circle cx="30" cy="30" r="30" fill="#DBDBDB"/>
<path d="M30.3353 36.5677L25.2598 39.6252C25.0356 39.7679 24.8011 39.8291 24.5565 39.8087C24.3119 39.7883 24.0979 39.7068 23.9145 39.5641C23.731 39.4214 23.5883 39.2428 23.4864 39.0284C23.3845 38.814 23.3641 38.5747 23.4253 38.3105L24.7706 32.5318L20.276 28.6487C20.0722 28.4653 19.945 28.2561 19.8944 28.0213C19.8439 27.7865 19.859 27.5574 19.9397 27.334C20.0212 27.1098 20.1435 26.9263 20.3066 26.7836C20.4697 26.641 20.6939 26.5492 20.9792 26.5085L26.9108 25.9887L29.204 20.5463C29.3059 20.3017 29.4641 20.1183 29.6785 19.996C29.8929 19.8737 30.1119 19.8125 30.3353 19.8125C30.5595 19.8125 30.7784 19.8737 30.992 19.996C31.2056 20.1183 31.3638 20.3017 31.4665 20.5463L33.7597 25.9887L39.6913 26.5085C39.9766 26.5492 40.2008 26.641 40.3639 26.7836C40.527 26.9263 40.6493 27.1098 40.7308 27.334C40.8124 27.5582 40.8278 27.7877 40.7773 28.0226C40.7267 28.2574 40.5991 28.4661 40.3945 28.6487L35.8999 32.5318L37.2452 38.3105C37.3064 38.5755 37.286 38.8152 37.1841 39.0296C37.0822 39.2441 36.9395 39.4222 36.756 39.5641C36.5726 39.7068 36.3586 39.7883 36.114 39.8087C35.8694 39.8291 35.635 39.7679 35.4107 39.6252L30.3353 36.5677Z" fill="#3A3532"/>
</svg>
