<svg width="60" height="60" viewBox="0 0 60 60" fill="none" xmlns="http://www.w3.org/2000/svg">
<circle cx="30" cy="30" r="30" fill="#DBDBDB"/>
<path d="M21.666 19.667H37.666C38.1964 19.667 38.7052 19.8777 39.0802 20.2528C39.4553 20.6279 39.666 21.1366 39.666 21.667V33.667C39.666 34.1974 39.4553 34.7061 39.0802 35.0812C38.7052 35.4563 38.1964 35.667 37.666 35.667H31.566L27.866 39.377C27.666 39.567 27.416 39.667 27.166 39.667H26.666C26.4008 39.667 26.1464 39.5616 25.9589 39.3741C25.7714 39.1866 25.666 38.9322 25.666 38.667V35.667H21.666C21.1356 35.667 20.6269 35.4563 20.2518 35.0812C19.8767 34.7061 19.666 34.1974 19.666 33.667V21.667C19.666 21.1366 19.8767 20.6279 20.2518 20.2528C20.6269 19.8777 21.1356 19.667 21.666 19.667ZM29.856 23.167C28.966 23.167 28.256 23.347 27.716 23.707C27.166 24.067 26.886 24.667 26.936 25.357H28.906C28.906 25.077 29.006 24.867 29.166 24.727C29.366 24.587 29.586 24.517 29.856 24.517C30.166 24.517 30.436 24.597 30.616 24.777C30.796 24.947 30.886 25.167 30.886 25.467C30.886 25.747 30.806 25.997 30.666 26.207C30.496 26.427 30.286 26.607 30.026 26.747C29.506 27.067 29.166 27.347 28.956 27.587C28.766 27.827 28.666 28.167 28.666 28.667H30.666C30.666 28.387 30.716 28.167 30.806 27.987C30.896 27.817 31.066 27.667 31.326 27.517C31.786 27.307 32.166 27.027 32.456 26.667C32.746 26.297 32.896 25.907 32.896 25.467C32.896 24.767 32.626 24.207 32.086 23.787C31.546 23.377 30.796 23.167 29.856 23.167ZM28.666 29.667V31.667H30.666V29.667H28.666Z" fill="#3A3532"/>
</svg>
