<?xml version="1.0" standalone="no"?>
<!DOCTYPE svg PUBLIC "-//W3C//DTD SVG 1.1//EN" "http://www.w3.org/Graphics/SVG/1.1/DTD/svg11.dtd" >
<svg xmlns="http://www.w3.org/2000/svg" xmlns:xlink="http://www.w3.org/1999/xlink" version="1.1">
<metadata>
Created by FontForge 20200511 at Thu Nov 17 15:50:21 2022
 By convertio
Copyright (c) 2018 by Benjamin Critton &#38; Colophon Foundry. All rights reserved.
</metadata>
<defs>
<font id="MabryPro-Light" horiz-adv-x="0" >
  <font-face 
    font-family="Mabry Pro"
    font-weight="300"
    font-stretch="normal"
    units-per-em="2048"
    panose-1="2 13 3 3 4 0 2 4 3 3"
    ascent="1622"
    descent="-426"
    x-height="971"
    cap-height="1434"
    bbox="-1606 -492 3379 2150"
    underline-thickness="126"
    underline-position="-454"
    unicode-range="U+000D-1F610"
  />
<missing-glyph horiz-adv-x="1208" 
d="M92 0v1434h1024v-1434h-1024zM604 852l277 448h-553zM225 1198v-962l295 481zM983 236v962l-297 -481zM328 133h553l-277 449z" />
    <glyph glyph-name="f_f" unicode="ff" horiz-adv-x="1265" 
d="M248 0v864h-221v107h221v139q0 161 82 252.5t237 91.5q175 0 248 -108q70 108 238 108q142 0 219.5 -70.5t77.5 -195.5l-2 -43h-119l2 31q0 85 -47 128.5t-131 43.5q-96 0 -137.5 -58t-41.5 -184v-135h283v-107h-283v-864h-131v864h-364v-864h-131zM379 971h364v205
q0 83 -49.5 127.5t-126.5 44.5q-91 0 -139.5 -62t-48.5 -180v-135z" />
    <glyph glyph-name="fi" unicode="fi" horiz-adv-x="1007" 
d="M874 971v-971h-131v864h-364v-864h-131v864h-221v107h221v139q0 162 78.5 253t230.5 91q142 0 219.5 -70.5t77.5 -195.5l-2 -43h-119l2 31q0 85 -47 128.5t-131 43.5q-95 0 -136.5 -58t-41.5 -184v-135h495z" />
    <glyph glyph-name="fl" unicode="fl" horiz-adv-x="1017" 
d="M248 0v864h-221v107h221v168q0 149 82 232t231 83t231 -83t82 -232v-1139h-131v1139q0 103 -46.5 156t-135.5 53t-135.5 -53t-46.5 -156v-168h237v-107h-237v-864h-131z" />
    <glyph glyph-name="f_f_i" unicode="ffi" horiz-adv-x="1503" 
d="M248 0v864h-221v107h221v139q0 161 82 252.5t237 91.5q81 0 146.5 -27.5t101.5 -80.5q77 108 238 108q142 0 219.5 -70.5t77.5 -195.5l-2 -43h-119l2 31q0 85 -47 128.5t-131 43.5q-96 0 -137.5 -58t-41.5 -184v-135h496v-971h-131v864h-365v-864h-131v864h-364v-864
h-131zM379 971h364v205q0 83 -49.5 127.5t-126.5 44.5q-91 0 -139.5 -62t-48.5 -180v-135z" />
    <glyph glyph-name="f_f_l" unicode="ffl" horiz-adv-x="1513" 
d="M248 0v864h-221v107h221v139q0 161 82 252.5t237 91.5q166 0 248 -108q70 108 242 108q149 0 231 -83t82 -232v-1139h-131v1139q0 103 -46.5 156t-135.5 53t-136 -53t-47 -156v-168h238v-107h-238v-864h-131v864h-364v-864h-131zM379 971h364v205q0 83 -49.5 127.5
t-126.5 44.5q-91 0 -139.5 -62t-48.5 -180v-135z" />
    <glyph glyph-name=".notdef" horiz-adv-x="1208" 
d="M92 0v1434h1024v-1434h-1024zM604 852l277 448h-553zM225 1198v-962l295 481zM983 236v962l-297 -481zM328 133h553l-277 449z" />
    <glyph glyph-name=".null" 
 />
    <glyph glyph-name="nonmarkingreturn" horiz-adv-x="682" 
 />
    <glyph glyph-name="CR" unicode="&#xd;" horiz-adv-x="512" 
 />
    <glyph glyph-name="space" unicode=" " horiz-adv-x="512" 
 />
    <glyph glyph-name="exclam" unicode="!" horiz-adv-x="462" 
d="M162 344v1090h139v-1090h-139zM143 0v176h176v-176h-176z" />
    <glyph glyph-name="quotedbl" unicode="&#x22;" horiz-adv-x="638" 
d="M152 967l-37 229v238h143v-238l-37 -229h-69zM418 967l-37 229v238h143v-238l-37 -229h-69z" />
    <glyph glyph-name="numbersign" unicode="#" horiz-adv-x="1593" 
d="M428 446h-313v119h338l59 301h-336v119h361l90 449h123l-91 -449h361l90 449h123l-90 -449h336v-119h-361l-59 -301h358v-119h-383l-88 -446h-123l88 446h-360l-88 -446h-123zM575 565h361l59 301h-360z" />
    <glyph glyph-name="dollar" unicode="$" horiz-adv-x="1255" 
d="M725 -16v-185h-139v185q-188 17 -323.5 132t-192.5 308l125 70q48 -165 146.5 -263t244.5 -116v565q-195 44 -302.5 146t-107.5 255q0 144 114.5 250t295.5 121v182h139v-184q141 -19 242.5 -103t152.5 -225l-127 -71q-67 226 -268 264v-529q240 -47 346.5 -139.5
t106.5 -249.5q0 -165 -128 -279.5t-325 -133.5zM586 817v504q-123 -11 -195 -73t-72 -163q0 -102 65 -166.5t202 -101.5zM1034 385q0 103 -71 167t-238 101v-538q146 12 227.5 83t81.5 187z" />
    <glyph glyph-name="percent" unicode="%" horiz-adv-x="1689" 
d="M82 1092q0 157 100 259.5t260 102.5t260.5 -102.5t100.5 -259.5t-100.5 -260t-260.5 -103t-260 103t-100 260zM676 1092q0 110 -65 178.5t-169 68.5t-168.5 -68.5t-64.5 -178.5t64.5 -179t168.5 -69t169 69t65 179zM360 180l-84 86l1022 979l84 -86zM887 342
q0 157 100 260t260 103t260.5 -103t100.5 -260t-100.5 -259.5t-260.5 -102.5t-260 102.5t-100 259.5zM1481 342q0 110 -65 179t-169 69t-168.5 -69t-64.5 -179t64.5 -179t168.5 -69t169 69t65 179z" />
    <glyph glyph-name="ampersand" unicode="&#x26;" horiz-adv-x="1589" 
d="M1419 174l92 -84q-43 -57 -94.5 -83.5t-122.5 -26.5q-137 0 -256 141l-4 4q-177 -145 -452 -145q-205 0 -336 120.5t-131 311.5q0 150 87 255.5t240 163.5q-54 72 -80 138.5t-26 148.5q0 147 100 241.5t248 94.5q165 0 246 -90q82 -88 82 -217q0 -278 -361 -369l393 -461
q137 180 158 521l129 -9q-41 -399 -205 -608l11 -12q38 -44 83.5 -71t86.5 -27q37 0 61.5 14.5t50.5 48.5zM467 1122q0 -72 22.5 -124.5t83.5 -127.5q172 37 240 101t68 172q0 81 -59 136.5t-140 55.5q-98 0 -156.5 -60t-58.5 -153zM954 221l-434 516q-136 -52 -201 -130
t-65 -197q0 -135 98.5 -217t259.5 -82q205 0 342 110z" />
    <glyph glyph-name="quotesingle" unicode="'" horiz-adv-x="372" 
d="M152 967l-37 229v238h143v-238l-37 -229h-69z" />
    <glyph glyph-name="parenleft" unicode="(" horiz-adv-x="856" 
d="M98 717q0 352 169 604t481 405l55 -114q-285 -141 -427.5 -368t-142.5 -527t142.5 -527t427.5 -368l-55 -115q-312 152 -481 404.5t-169 605.5z" />
    <glyph glyph-name="parenright" unicode=")" horiz-adv-x="856" 
d="M623 717q0 300 -142.5 527t-427.5 368l56 114q312 -152 480.5 -404t168.5 -605t-168.5 -605.5t-480.5 -404.5l-56 115q285 141 427.5 368t142.5 527z" />
    <glyph glyph-name="asterisk" unicode="*" horiz-adv-x="917" 
d="M385 1475h147v-148l-61 -197l176 121l139 45l45 -139l-139 -45h-209l164 -125l86 -117l-119 -86l-86 119l-69 197l-70 -197l-86 -119l-119 86l86 117l164 125h-209l-139 45l45 139l139 -45l174 -121l-59 197v148z" />
    <glyph glyph-name="plus" unicode="+" horiz-adv-x="1159" 
d="M139 674h381v381h119v-381h381v-119h-381v-381h-119v381h-381v119z" />
    <glyph glyph-name="comma" unicode="," horiz-adv-x="462" 
d="M84 -193l12 68q29 -16 68 -16q36 0 57 18.5t21 54.5q0 32 -22 50t-60 18h-17v176h176v-217q0 -168 -153 -168q-53 0 -82 16z" />
    <glyph glyph-name="hyphen" unicode="-" horiz-adv-x="724" 
d="M102 578h521v-119h-521v119z" />
    <glyph glyph-name="period" unicode="." horiz-adv-x="462" 
d="M143 176h176v-176h-176v176z" />
    <glyph glyph-name="slash" unicode="/" horiz-adv-x="1017" 
d="M797 1692l118 -43l-694 -1907l-119 43z" />
    <glyph glyph-name="zero" unicode="0" horiz-adv-x="1306" 
d="M90 717q0 336 153.5 536.5t409.5 200.5t410 -200.5t154 -536.5t-154 -536.5t-410 -200.5t-409.5 200.5t-153.5 536.5zM1085 717q0 179 -49.5 318t-148.5 219.5t-234 80.5t-234 -80.5t-148.5 -219.5t-49.5 -318t49.5 -318t148.5 -220t234 -81t234 81t148.5 220t49.5 318z
" />
    <glyph glyph-name="one" unicode="1" horiz-adv-x="718" 
d="M424 0v1196q-62 -95 -152 -149.5t-196 -65.5l-27 121q146 13 246.5 99.5t148.5 232.5h111v-1434h-131z" />
    <glyph glyph-name="two" unicode="2" horiz-adv-x="1171" 
d="M549 580q209 96 295 196t86 242t-99 229.5t-260 87.5q-151 0 -248.5 -91t-97.5 -218q0 -137 78 -250l-110 -71q-107 143 -107 303q0 91 35.5 172.5t98 142t155 96t200.5 35.5q223 0 354.5 -120.5t131.5 -313.5q0 -184 -94 -303q-91 -113 -310 -217q-190 -87 -285.5 -176
t-101.5 -205h795v-119h-948q0 209 108 346.5t324 233.5z" />
    <glyph glyph-name="three" unicode="3" horiz-adv-x="1157" 
d="M49 373l127 55q33 -152 134 -241t257 -89q154 0 259.5 94.5t105.5 253.5q0 171 -98 268t-261 97q-56 0 -117 -21.5t-100 -54.5l-77 96l526 484h-692v119h901v-88l-482 -435q35 7 84 7q195 0 321 -121.5t126 -329.5q0 -146 -67.5 -258.5t-179.5 -170.5t-249 -58
q-199 0 -336 110q-139 112 -182 283z" />
    <glyph glyph-name="four" unicode="4" horiz-adv-x="1153" 
d="M725 0v389h-647v139q180 160 244 344q65 186 65 469v93h131v-93q0 -279 -68.5 -479t-228.5 -354h504v483h131v-483h256v-119h-256v-389h-131z" />
    <glyph glyph-name="five" unicode="5" horiz-adv-x="1202" 
d="M1057 1434v-119h-766q0 -85 -17 -252q-12 -122 -41 -272q72 83 179 131.5t237 48.5q200 0 331.5 -127t131.5 -342q0 -233 -142 -377.5t-374 -144.5q-199 0 -332.5 107t-165.5 304l119 33q29 -160 125 -243t254 -83q184 0 284.5 105.5t100.5 277.5t-94.5 271.5
t-278.5 99.5q-118 0 -219 -61t-149 -152l-131 33q63 385 63 762h885z" />
    <glyph glyph-name="six" unicode="6" horiz-adv-x="1198" 
d="M90 707q0 213 61 380t186 267t298 100q193 0 310 -102.5t136 -276.5l-125 -37q-17 149 -102.5 223t-228.5 74q-176 0 -290 -168t-114 -483v-25q56 116 170 189q115 74 246 74q204 0 337.5 -127.5t133.5 -331.5q0 -214 -132.5 -348.5t-340.5 -134.5q-270 0 -408 200
q-137 198 -137 527zM977 453q0 162 -101 256t-251 94q-147 0 -250 -98t-103 -252q0 -160 97.5 -257.5t255.5 -97.5t255 97.5t97 257.5z" />
    <glyph glyph-name="seven" unicode="7" horiz-adv-x="1058" 
d="M74 1434h911v-99q-223 -168 -352 -417q-133 -254 -133 -580q0 -160 24 -338h-137q-18 141 -18 315q0 599 426 1000h-721v119z" />
    <glyph glyph-name="eight" unicode="8" horiz-adv-x="1171" 
d="M90 410q0 135 76.5 238.5t210.5 144.5q-209 93 -209 303q0 150 118.5 254t299.5 104t299.5 -104t118.5 -254q0 -210 -209 -303q134 -41 210 -144.5t76 -238.5q0 -87 -33.5 -164.5t-95 -137t-156 -94t-210.5 -34.5t-211 34.5t-156.5 94t-95 137t-33.5 164.5zM872 1090
q0 115 -77.5 180t-208.5 65t-209 -65t-78 -180q0 -116 79 -183t208 -67t207.5 67t78.5 183zM950 418q0 146 -98.5 230.5t-265.5 84.5t-266 -85t-99 -230q0 -148 97 -234t268 -86t267.5 85.5t96.5 234.5z" />
    <glyph glyph-name="nine" unicode="9" horiz-adv-x="1212" 
d="M90 397l125 37q17 -162 112.5 -249t260.5 -87q84 0 157.5 37.5t132 111t93 196.5t35.5 282l-2 68q-52 -125 -168 -203t-246 -78q-135 0 -245 57t-175.5 165t-65.5 247q0 204 137.5 338.5t336.5 134.5q279 0 411 -197q133 -198 133 -530q0 -220 -60.5 -386.5
t-184.5 -263.5t-299 -97q-197 0 -333 122.5t-155 294.5zM940 981q0 160 -97 257t-255 97t-255 -97t-97 -257q0 -162 101 -256t251 -94q146 0 249 98t103 252z" />
    <glyph glyph-name="colon" unicode=":" horiz-adv-x="462" 
d="M143 725v176h176v-176h-176zM143 0v176h176v-176h-176z" />
    <glyph glyph-name="semicolon" unicode=";" horiz-adv-x="462" 
d="M143 725v176h176v-176h-176zM84 -193l12 68q29 -16 68 -16q36 0 57 18.5t21 54.5q0 32 -22 50t-60 18h-17v176h176v-217q0 -168 -153 -168q-53 0 -82 16z" />
    <glyph glyph-name="less" unicode="&#x3c;" horiz-adv-x="1122" 
d="M979 184l-836 367v127l836 366v-131l-696 -299l696 -299v-131z" />
    <glyph glyph-name="equal" unicode="=" horiz-adv-x="1163" 
d="M139 838h885v-119h-885v119zM139 510h885v-119h-885v119z" />
    <glyph glyph-name="greater" unicode="&#x3e;" horiz-adv-x="1122" 
d="M143 184v131l697 299l-697 299v131l836 -366v-127z" />
    <glyph glyph-name="question" unicode="?" horiz-adv-x="944" 
d="M156 649q0 258 344 314q235 40 235 194q0 81 -68.5 129.5t-179.5 48.5q-120 0 -197.5 -65.5t-107.5 -184.5l-112 60q32 141 144 225t265 84q168 0 277.5 -80.5t109.5 -199.5q0 -129 -84 -206.5t-268 -113.5q-227 -45 -227 -207q0 -79 52 -126.5t138 -47.5q87 0 144 48
t96 149l100 -58q-41 -125 -127.5 -191.5t-210.5 -66.5q-141 0 -232 81t-91 214zM395 0v176h176v-176h-176z" />
    <glyph glyph-name="at" unicode="@" horiz-adv-x="1730" 
d="M1352 158q79 0 123.5 92t44.5 266q0 292 -171 461.5t-470 169.5q-128 2 -249.5 -48t-213.5 -137t-147 -212.5t-52 -264.5q-2 -157 48.5 -285t139 -209.5t202.5 -125t241 -41.5q122 0 200 22t169 82l47 -90q-94 -62 -192 -91.5t-228 -29.5q-117 -1 -227 30t-205 95
t-165.5 154.5t-110.5 216.5t-38 272q-3 158 61 302.5t171 247t251.5 162t297.5 56.5q342 0 547.5 -195.5t205.5 -512.5q0 -237 -79 -365.5t-201 -128.5q-83 0 -135 45.5t-70 128.5q-107 -174 -316 -174q-171 0 -276.5 122.5t-105.5 309.5q0 188 113.5 312.5t279.5 124.5
q95 0 176 -49.5t117 -125.5v150h102v-592q0 -145 115 -145zM858 813q-133 0 -216 -87.5t-83 -242.5t80 -240t211 -85t212 85.5t81 239.5q0 150 -86.5 240t-198.5 90z" />
    <glyph glyph-name="A" unicode="A" horiz-adv-x="1482" 
d="M29 0l612 1434h201l612 -1434h-151l-162 385h-799l-162 -385h-151zM397 516h688l-344 815z" />
    <glyph glyph-name="B" unicode="B" horiz-adv-x="1382" 
d="M164 0v1434h620q203 0 324 -102.5t121 -262.5q0 -104 -57 -194.5t-146 -133.5q128 -56 191 -140.5t63 -215.5q0 -164 -130.5 -274.5t-322.5 -110.5h-663zM307 799h504q124 0 201.5 68t77.5 184q0 117 -82 184q-83 68 -197 68h-504v-504zM307 131h518q137 0 221 72t84 198
t-85 200.5t-220 74.5h-518v-545z" />
    <glyph glyph-name="C" unicode="C" horiz-adv-x="1574" 
d="M250 717q0 -282 152.5 -444t400.5 -162q256 0 387 125t190 344l121 -50q-59 -249 -237 -399q-180 -151 -459 -151q-158 0 -290.5 56t-223.5 154t-142 234t-51 293q-2 152 52 289.5t148 237t226.5 156.5t280.5 54q256 0 407 -133q154 -133 215 -340l-133 -59
q-43 187 -171 294t-320 107q-239 0 -396 -166.5t-157 -439.5z" />
    <glyph glyph-name="D" unicode="D" horiz-adv-x="1480" 
d="M164 0v1434h522q217 0 375.5 -92t239.5 -253t81 -372t-81 -372t-239.5 -253t-375.5 -92h-522zM307 1303v-1172h379q262 0 407.5 155t145.5 431t-145.5 431t-407.5 155h-379z" />
    <glyph glyph-name="E" unicode="E" horiz-adv-x="1273" 
d="M164 1434h966v-131h-823v-496h762v-131h-762v-545h844v-131h-987v1434z" />
    <glyph glyph-name="F" unicode="F" horiz-adv-x="1239" 
d="M164 1434h964v-131h-821v-541h760v-131h-760v-631h-143v1434z" />
    <glyph glyph-name="G" unicode="G" horiz-adv-x="1607" 
d="M797 -20q-144 -3 -274.5 53t-224.5 154t-148 236.5t-52 293.5q-3 203 91.5 374t259 269t358.5 94q272 0 441.5 -126.5t221.5 -356.5l-133 -49q-57 206 -186.5 303.5t-345.5 97.5q-114 0 -215.5 -44.5t-176.5 -122.5t-119 -192t-44 -247q0 -178 67.5 -314.5t197.5 -214
t306 -77.5q106 -2 199 43.5t154 117.5t98.5 156t42.5 164h-686v131h856v-723h-123v342q-101 -187 -235 -274.5t-330 -87.5z" />
    <glyph glyph-name="H" unicode="H" horiz-adv-x="1490" 
d="M1184 641h-877v-641h-143v1434h143v-662h877v662h143v-1434h-143v641z" />
    <glyph glyph-name="I" unicode="I" horiz-adv-x="471" 
d="M164 0v1434h143v-1434h-143z" />
    <glyph glyph-name="J" unicode="J" horiz-adv-x="1214" 
d="M920 1434h143v-957q0 -105 -29.5 -194.5t-86.5 -157.5t-146.5 -106.5t-202.5 -38.5q-220 0 -356 125t-136 329q0 149 52 250l133 -51q-41 -90 -41 -195q0 -149 92.5 -238t255.5 -89q161 0 241.5 101t80.5 310v912z" />
    <glyph glyph-name="K" unicode="K" horiz-adv-x="1337" 
d="M733 874l547 -874h-164l-475 772l-334 -352v-420h-143v1434h143v-832l774 832h176z" />
    <glyph glyph-name="L" unicode="L" horiz-adv-x="1294" 
d="M164 1434h143v-1303h897v-131h-1040v1434z" />
    <glyph glyph-name="M" unicode="M" horiz-adv-x="1925" 
d="M1761 0h-143v1364l-551 -1364h-209l-551 1364v-1364h-143v1434h264l535 -1334l534 1334h264v-1434z" />
    <glyph glyph-name="N" unicode="N" horiz-adv-x="1554" 
d="M307 1341v-1341h-143v1434h244l839 -1342v1342h144v-1434h-244z" />
    <glyph glyph-name="O" unicode="O" horiz-adv-x="1658" 
d="M829 1454q153 3 290.5 -55.5t234.5 -159t153 -237.5t54 -285q2 -149 -54 -286t-153 -237t-234.5 -158.5t-290.5 -55.5q-153 -3 -290 55.5t-234 158.5t-153 237t-54 286q-2 148 54 285t153 237.5t234 159t290 55.5zM829 111q255 0 417.5 167t162.5 439q0 273 -162 439.5
t-418 166.5q-255 0 -417 -168t-162 -440q0 -179 76 -317.5t207.5 -212.5t295.5 -74z" />
    <glyph glyph-name="P" unicode="P" horiz-adv-x="1329" 
d="M307 610v-610h-143v1434h594q217 0 343 -115t126 -297q0 -180 -129 -296t-340 -116h-451zM307 741h438q153 0 241.5 72t88.5 209t-88.5 209t-241.5 72h-438v-562z" />
    <glyph glyph-name="Q" unicode="Q" horiz-adv-x="1658" 
d="M1087 23q-128 -43 -258 -43q-153 -3 -290 55.5t-234 158.5t-153 237t-54 286q-2 148 54 285t153 237.5t234 159t290 55.5q153 3 290.5 -55.5t234.5 -159t153 -237.5t54 -285q0 -202 -93 -370t-258 -267q26 -94 82 -138t150 -44q80 0 157 59l46 -113q-100 -69 -222 -69
q-124 0 -211 63t-125 185zM514 348q0 132 92 215q93 84 234 84q336 0 348 -385q0 -29 2 -37q105 80 162 206.5t57 285.5q0 273 -162 439.5t-418 166.5q-255 0 -417 -168t-162 -440q0 -193 85 -337t236 -214q-57 75 -57 184zM1063 154q-4 54 -4 65q-1 163 -56.5 236
t-168.5 73q-86 0 -139.5 -52.5t-53.5 -137.5q0 -101 58.5 -164t164.5 -63q91 0 199 43z" />
    <glyph glyph-name="R" unicode="R" horiz-adv-x="1353" 
d="M1251 0h-176q-22 43 -32 116t-15 212q-4 158 -79.5 226.5t-231.5 68.5h-410v-623h-143v1434h620q203 0 328 -114t125 -276q0 -132 -73 -223t-218 -135q119 -39 176 -124t58 -236q2 -124 16 -188.5t55 -112.5v-25zM307 754h463q144 0 228.5 73t84.5 201t-84.5 201.5
t-228.5 73.5h-463v-549z" />
    <glyph glyph-name="S" unicode="S" horiz-adv-x="1255" 
d="M616 1323q-135 0 -221 -62t-86 -176q0 -119 92.5 -186.5t294.5 -105.5q257 -49 369.5 -142.5t112.5 -253.5q0 -182 -147.5 -299.5t-368.5 -117.5q-210 0 -366 110t-226 326l125 78q52 -184 170 -283.5t299 -99.5q169 0 269.5 76t100.5 208q0 109 -87.5 173t-299.5 100
q-225 38 -353 143.5t-128 269.5q0 160 127.5 266.5t333.5 106.5q178 0 308 -86.5t185 -245.5l-127 -71q-43 135 -138.5 203.5t-238.5 68.5z" />
    <glyph glyph-name="T" unicode="T" horiz-adv-x="1363" 
d="M1294 1434v-131h-540v-1303h-144v1303h-540v131h1224z" />
    <glyph glyph-name="U" unicode="U" horiz-adv-x="1470" 
d="M152 1434h143v-836q0 -233 113 -360t327 -127t327.5 127t113.5 360v836h143v-861q0 -260 -157 -426.5t-427 -166.5q-180 0 -313.5 78t-201.5 211.5t-68 303.5v861z" />
    <glyph glyph-name="V" unicode="V" horiz-adv-x="1441" 
d="M721 102l549 1332h147l-596 -1434h-200l-596 1434h147z" />
    <glyph glyph-name="W" unicode="W" horiz-adv-x="1982" 
d="M385 0l-356 1434h153l328 -1348l354 1348h254l355 -1348l327 1348h154l-357 -1434h-247l-359 1348l-358 -1348h-248z" />
    <glyph glyph-name="X" unicode="X" horiz-adv-x="1335" 
d="M41 0l543 778l-461 656h172l373 -557l389 557h155l-460 -656l542 -778h-157l-469 676l-467 -676h-160z" />
    <glyph glyph-name="Y" unicode="Y" horiz-adv-x="1323" 
d="M195 1434l467 -711l466 711h162l-557 -836v-598h-143v598l-557 836h162z" />
    <glyph glyph-name="Z" unicode="Z" horiz-adv-x="1423" 
d="M111 131l1011 1172h-1001v131h1177v-131l-1011 -1172h1022v-131h-1198v131z" />
    <glyph glyph-name="bracketleft" unicode="[" horiz-adv-x="614" 
d="M164 1659h356v-109h-237v-1740h237v-109h-356v1958z" />
    <glyph glyph-name="backslash" unicode="\" horiz-adv-x="1017" 
d="M915 -215l-118 -43l-695 1907l119 43z" />
    <glyph glyph-name="bracketright" unicode="]" horiz-adv-x="614" 
d="M94 -299v109h238v1740h-238v109h357v-1958h-357z" />
    <glyph glyph-name="asciicircum" unicode="^" horiz-adv-x="1122" 
d="M614 1454l390 -438v-25h-162l-269 340h-24l-266 -340h-164v25l389 438h106z" />
    <glyph glyph-name="underscore" unicode="_" horiz-adv-x="1171" 
d="M90 -51h991v-119h-991v119z" />
    <glyph glyph-name="grave" unicode="`" horiz-adv-x="622" 
d="M373 1137l-250 247v25h194l183 -272h-127z" />
    <glyph glyph-name="a" unicode="a" horiz-adv-x="1032" 
d="M90 274q0 137 97 214t251 77q131 0 252 -43l68 -24v133q0 117 -70.5 179t-195.5 62q-112 0 -187.5 -54.5t-95.5 -155.5l-117 34q25 134 133 214.5t267 80.5q187 0 292 -101.5t105 -275.5v-614h-131v139q-40 -72 -137 -115.5t-205 -43.5q-148 0 -237 80.5t-89 213.5z
M758 356v33l-105 35q-103 35 -200 35q-111 0 -171.5 -48.5t-60.5 -138.5q0 -79 61 -126.5t160 -47.5q141 0 228.5 70.5t87.5 187.5z" />
    <glyph glyph-name="b" unicode="b" horiz-adv-x="1157" 
d="M143 1434h131v-658q52 98 149 156.5t214 58.5q192 0 315 -142t123 -370q0 -226 -130.5 -362.5t-328.5 -136.5q-112 0 -205.5 55.5t-144.5 144.5v-180h-123v1434zM606 98q67 0 126.5 24t107.5 70.5t76 121.5t28 169t-28 170t-76 122.5t-108 71.5t-126 25
q-139 0 -239.5 -105.5t-100.5 -283.5q0 -90 28.5 -164.5t76 -121.5t108 -73t127.5 -26z" />
    <glyph glyph-name="c" unicode="c" horiz-adv-x="1118" 
d="M580 98q145 0 227 75.5t125 234.5l112 -43q-44 -185 -164 -285t-300 -100q-222 0 -360 141t-138 371q-2 105 37.5 199.5t106 160.5t155.5 103.5t182 35.5q173 0 285 -88t153 -254l-118 -37q-70 260 -322 260q-63 0 -124 -24.5t-111.5 -70t-81.5 -119.5t-31 -164
q0 -176 108.5 -286t258.5 -110z" />
    <glyph glyph-name="d" unicode="d" horiz-adv-x="1157" 
d="M82 479q0 227 129 369.5t321 142.5q111 0 205.5 -54t145.5 -146v643h131v-1434h-123v188q-60 -97 -148.5 -152.5t-201.5 -55.5q-198 0 -328.5 136.5t-130.5 362.5zM891 483q0 89 -30.5 164.5t-79.5 123.5t-109 74.5t-121 26.5q-63 0 -122.5 -25t-108 -72t-78 -123
t-29.5 -169t29.5 -168.5t78.5 -121.5t108 -70.5t122 -24.5q61 0 121 26t109 73.5t79.5 122t30.5 163.5z" />
    <glyph glyph-name="e" unicode="e" horiz-adv-x="1044" 
d="M856 334l115 -45q-107 -309 -416 -309q-206 0 -339.5 140.5t-133.5 371.5q0 137 57.5 251t162 181t233.5 67q195 0 309 -106.5t114 -290.5q0 -56 -14 -127h-723q1 -171 92.5 -270t239.5 -99q230 0 303 236zM221 573h606l2 43q0 120 -84.5 188t-212.5 68
q-125 0 -211.5 -81.5t-99.5 -217.5z" />
    <glyph glyph-name="f" unicode="f" horiz-adv-x="770" 
d="M248 0v864h-221v107h221v139q0 162 78.5 253t230.5 91q142 0 219.5 -70.5t77.5 -195.5l-2 -43h-119l2 31q0 85 -47 128.5t-131 43.5q-95 0 -136.5 -58t-41.5 -184v-135h283v-107h-283v-864h-131z" />
    <glyph glyph-name="g" unicode="g" horiz-adv-x="1167" 
d="M143 -131l119 51q41 -121 113.5 -174t197.5 -53q153 0 236.5 99.5t83.5 283.5v114q-51 -89 -141.5 -139.5t-210.5 -50.5q-93 0 -176.5 35t-146 96.5t-99.5 152.5t-37 197q0 224 131 367t326 143q234 0 354 -182v162h131v-881q0 -227 -117 -371q-118 -145 -334 -145
q-345 0 -430 295zM901 494q0 165 -96 271.5t-244 106.5q-152 0 -250 -106t-98 -289q0 -165 96.5 -261.5t251.5 -96.5q148 0 244 105t96 270z" />
    <glyph glyph-name="h" unicode="h" horiz-adv-x="1110" 
d="M274 0h-131v1434h131v-676q43 106 138.5 169.5t212.5 63.5q159 0 250.5 -100.5t91.5 -276.5v-614h-131v602q0 132 -63 201t-177 69q-137 0 -229.5 -111t-92.5 -276v-485z" />
    <glyph glyph-name="i" unicode="i" horiz-adv-x="417" 
d="M143 971h131v-971h-131v971zM133 1169v170h152v-170h-152z" />
    <glyph glyph-name="j" unicode="j" horiz-adv-x="417" 
d="M143 -406v1377h131v-1377h-131zM133 1169v170h152v-170h-152z" />
    <glyph glyph-name="k" unicode="k" horiz-adv-x="1005" 
d="M549 584l405 -584h-166l-331 481l-183 -194v-287h-131v1434h131v-977l471 514h164z" />
    <glyph glyph-name="l" unicode="l" horiz-adv-x="417" 
d="M143 0v1434h131v-1434h-131z" />
    <glyph glyph-name="m" unicode="m" horiz-adv-x="1511" 
d="M143 971h131v-137q39 73 106.5 115t160.5 42q87 0 152.5 -48t88.5 -132q43 85 120 132.5t173 47.5q138 0 215.5 -76.5t77.5 -216.5v-698h-131v672q0 93 -53 146.5t-140 53.5q-98 0 -161.5 -69t-63.5 -203v-600h-131v655q0 107 -52 162t-142 55q-97 0 -158.5 -69
t-61.5 -203v-600h-131v971z" />
    <glyph glyph-name="n" unicode="n" horiz-adv-x="1097" 
d="M274 0h-131v971h131v-178q53 90 141 144t195 54q161 0 252.5 -95.5t91.5 -270.5v-625h-131v596q0 276 -250 276q-124 0 -211.5 -97t-87.5 -251v-524z" />
    <glyph glyph-name="o" unicode="o" horiz-adv-x="1130" 
d="M82 485q0 218 134 362t349 144t349.5 -144t134.5 -362t-135 -361.5t-349 -143.5t-348.5 143.5t-134.5 361.5zM909 485q0 170 -96.5 278.5t-247.5 108.5t-247.5 -108.5t-96.5 -278.5t96.5 -278.5t247.5 -108.5t247.5 108.5t96.5 278.5z" />
    <glyph glyph-name="p" unicode="p" horiz-adv-x="1157" 
d="M143 971h123v-195q44 87 144 150q103 65 219 65q196 0 321 -136t125 -363t-129 -369.5t-321 -142.5q-115 0 -208 51t-143 139v-576h-131v1377zM606 98q65 0 123.5 22.5t107.5 67.5t78 122.5t29 176.5t-29 175.5t-78 121t-107.5 66.5t-123.5 22q-61 0 -121 -26t-109 -73.5
t-79.5 -122t-30.5 -163.5t30.5 -164.5t79.5 -123.5t109 -74.5t121 -26.5z" />
    <glyph glyph-name="q" unicode="q" horiz-adv-x="1157" 
d="M883 -406v590q-67 -107 -150.5 -155.5t-208.5 -48.5q-189 0 -315.5 142.5t-126.5 369.5q0 225 132.5 362t330.5 137q119 0 211.5 -58t134.5 -151v189h123v-1377h-131zM891 487q0 181 -99.5 283t-240.5 102q-66 0 -125 -22t-107.5 -66.5t-77 -120.5t-28.5 -176
q0 -99 29 -176.5t78 -122.5t107.5 -67.5t123.5 -22.5q61 0 120.5 25.5t109 73t80 123.5t30.5 167z" />
    <glyph glyph-name="r" unicode="r" horiz-adv-x="862" 
d="M143 971h131v-142q36 76 104 119t159 43q113 0 180 -73t67 -177q0 -56 -8 -92h-125q6 38 6 60q0 79 -45 121t-125 42q-98 0 -155.5 -78t-57.5 -206v-588h-131v971z" />
    <glyph glyph-name="s" unicode="s" horiz-adv-x="962" 
d="M76 262l110 57q48 -118 119.5 -169.5t192.5 -51.5q107 0 174 48.5t67 129.5q0 78 -63.5 124.5t-212.5 64.5q-334 42 -334 270q0 113 94.5 184.5t243.5 71.5q253 0 342 -221l-104 -57q-26 83 -90 127.5t-152 44.5q-92 0 -151.5 -41t-59.5 -109q0 -72 65.5 -112.5
t212.5 -59.5q166 -20 253 -91.5t87 -184.5q0 -141 -108 -224q-109 -83 -273 -83q-155 0 -264.5 77t-148.5 205z" />
    <glyph glyph-name="t" unicode="t" horiz-adv-x="860" 
d="M246 268v596h-193v107h193v289h131v-289h325v-107h-325v-602q0 -78 39 -121t106 -43q63 0 101.5 33t58.5 105l117 -31q-59 -225 -277 -225q-132 0 -204 74t-72 214z" />
    <glyph glyph-name="u" unicode="u" horiz-adv-x="1097" 
d="M823 971h131v-971h-131v178q-53 -90 -141 -144t-195 -54q-161 0 -252.5 95.5t-91.5 270.5v625h131v-596q0 -277 250 -277q124 0 211.5 97t87.5 251v525z" />
    <glyph glyph-name="v" unicode="v" horiz-adv-x="1036" 
d="M180 971l338 -852l338 852h139l-389 -971h-176l-389 971h139z" />
    <glyph glyph-name="w" unicode="w" horiz-adv-x="1490" 
d="M162 971l254 -852l250 852h159l250 -852l254 852h125l-293 -971h-176l-240 823l-239 -823h-176l-293 971h125z" />
    <glyph glyph-name="x" unicode="x" horiz-adv-x="917" 
d="M846 971l-314 -459l357 -512h-150l-280 408l-281 -408h-149l358 508l-315 463h157l230 -353l227 353h160z" />
    <glyph glyph-name="y" unicode="y" horiz-adv-x="915" 
d="M743 971h142l-582 -1377h-141l215 508l-357 869h144l287 -695z" />
    <glyph glyph-name="z" unicode="z" horiz-adv-x="1001" 
d="M899 0h-809v109l633 743h-623v119h789v-109l-633 -743h643v-119z" />
    <glyph glyph-name="braceleft" unicode="{" horiz-adv-x="632" 
d="M186 -63v593q0 47 -21 69t-65 22h-26v118h26q44 0 65 21.5t21 68.5v594q0 124 57 180t171 56h125v-111h-123q-111 0 -111 -127v-573q0 -72 -23 -110t-77 -58q54 -20 77 -58.5t23 -107.5v-575q0 -127 111 -127h123v-111h-125q-114 0 -171 56t-57 180z" />
    <glyph glyph-name="bar" unicode="|" horiz-adv-x="462" 
d="M164 1700h135v-2007h-135v2007z" />
    <glyph glyph-name="braceright" unicode="}" horiz-adv-x="632" 
d="M94 -299v111h123q111 0 111 127v575q0 69 23 107.5t77 58.5q-54 20 -77 58t-23 110v573q0 127 -111 127h-123v111h125q113 0 170 -56t57 -180v-594q0 -47 21 -68.5t65 -21.5h27v-118h-27q-44 0 -65 -22t-21 -69v-593q0 -124 -57 -180t-170 -56h-125z" />
    <glyph glyph-name="asciitilde" unicode="~" horiz-adv-x="1083" 
d="M164 514q0 96 64 155.5t163 59.5q62 0 100 -19.5t87 -66.5q34 -34 57.5 -47.5t56.5 -13.5q44 0 76.5 30t32.5 76q0 23 -6 41l120 -18q5 -30 5 -39q0 -96 -64.5 -155.5t-163.5 -59.5q-62 0 -99.5 19t-86.5 67q-33 33 -57.5 47t-57.5 14q-44 0 -76 -30t-32 -76q0 -23 6 -41
l-121 18q-4 24 -4 39z" />
    <glyph glyph-name="uni00A0" unicode="&#xa0;" horiz-adv-x="512" 
 />
    <glyph glyph-name="exclamdown" unicode="&#xa1;" horiz-adv-x="462" 
d="M143 1028h176v-176h-176v176zM162 684h139v-1090h-139v1090z" />
    <glyph glyph-name="cent" unicode="&#xa2;" horiz-adv-x="1118" 
d="M631 -18v-183h-131v187q-192 24 -305 161t-113 345q0 194 121.5 331.5t296.5 163.5v184h131v-184q145 -13 240 -100.5t130 -237.5l-118 -37q-61 219 -252 254v-766q121 12 192 87.5t109 220.5l112 -43q-41 -171 -147.5 -270.5t-265.5 -112.5zM500 106v760
q-124 -25 -205.5 -123t-81.5 -249t80.5 -256t206.5 -132z" />
    <glyph glyph-name="sterling" unicode="&#xa3;" horiz-adv-x="1271" 
d="M1098 268l108 -63q-88 -225 -317 -225q-89 0 -156 36t-133 109q-92 -145 -254 -145q-112 0 -180 63t-68 166t71 169t177 66q113 0 197 -69q-6 59 -30 115.5t-71 132.5h-243v118h166q-105 165 -105 324q0 169 122.5 279t305.5 110q177 0 285.5 -96t122.5 -254l-131 -35
q-13 124 -87 189t-190 65q-127 0 -208 -75.5t-81 -203.5q0 -71 26 -134.5t91 -168.5h342v-118h-272q73 -143 73 -279q0 -51 -8 -82q74 -85 122 -118t116 -33q77 0 125.5 35.5t83.5 121.5zM522 217q-45 50 -82 73t-78 23q-60 0 -94.5 -30t-34.5 -84q0 -48 34.5 -78.5
t90.5 -30.5q53 0 96 34.5t68 92.5z" />
    <glyph glyph-name="currency" unicode="&#xa4;" horiz-adv-x="1208" 
d="M967 434l143 -143l-80 -80l-143 143q-128 -96 -283 -96t-280 96l-146 -143l-80 80l144 145q-97 126 -97 281q0 154 97 280l-144 146l80 80l146 -144q126 97 280 97q155 0 281 -97l145 144l80 -80l-143 -146q96 -125 96 -280t-96 -283zM604 367q148 0 249 101t101 249
t-101 249t-249 101t-249 -101t-101 -249t101 -249t249 -101z" />
    <glyph glyph-name="yen" unicode="&#xa5;" horiz-adv-x="1323" 
d="M1290 1434l-477 -717h234v-119h-314v-143h314v-119h-314v-336h-143v336h-314v119h314v143h-314v119h234l-477 717h162l467 -711l466 711h162z" />
    <glyph glyph-name="brokenbar" unicode="&#xa6;" horiz-adv-x="462" 
d="M164 834v866h135v-866h-135zM299 600v-907h-135v907h135z" />
    <glyph glyph-name="section" unicode="&#xa7;" horiz-adv-x="1075" 
d="M956 123q0 -149 -115.5 -242.5t-301.5 -93.5q-170 0 -277.5 71t-144.5 205l125 62q61 -207 297 -207q121 0 199.5 52.5t78.5 142.5q0 191 -362 237q-385 47 -385 295q0 151 161 238q-120 89 -120 235q0 149 115.5 242.5t301.5 93.5q170 0 277.5 -71t144.5 -205l-125 -62
q-61 207 -297 207q-121 0 -199.5 -52.5t-78.5 -142.5q0 -191 362 -237q385 -47 385 -295q0 -151 -161 -238q120 -88 120 -235zM526 465q112 -15 199 -49q129 63 129 170q0 81 -69.5 123t-243.5 67q-112 15 -199 49q-129 -63 -129 -170q0 -81 69.5 -123t243.5 -67z" />
    <glyph glyph-name="dieresis" unicode="&#xa8;" horiz-adv-x="638" 
d="M82 1169v172h168v-172h-168zM389 1169v172h168v-172h-168z" />
    <glyph glyph-name="copyright" unicode="&#xa9;" horiz-adv-x="1097" 
d="M90 995q0 190 133.5 324.5t325.5 134.5t325.5 -134.5t133.5 -324.5q0 -124 -60.5 -229.5t-166 -167t-232.5 -61.5t-232.5 61.5t-166 167t-60.5 229.5zM928 995q0 158 -109.5 269.5t-269.5 111.5t-269.5 -111.5t-109.5 -269.5t109.5 -269.5t269.5 -111.5t269.5 111.5
t109.5 269.5zM287 997q0 117 75 189q76 76 185 76q93 0 157.5 -50t77.5 -137l-73 -22q-7 61 -52.5 97t-109.5 36q-72 0 -122 -51t-50 -138q0 -86 51 -138t127 -52q77 0 119.5 40t60.5 118l78 -29q-25 -98 -93 -152.5t-165 -54.5q-116 0 -191 75t-75 193z" />
    <glyph glyph-name="ordfeminine" unicode="&#xaa;" horiz-adv-x="937" 
d="M82 805q0 126 88 196t229 70q104 0 211 -35l68 -22v110q0 101 -62.5 157t-169.5 56q-99 0 -162.5 -49t-82.5 -139l-119 33q24 124 121 198t243 74q171 0 268 -92.5t97 -251.5v-555h-131v131q-36 -68 -120 -108.5t-185 -40.5q-130 0 -211.5 73.5t-81.5 194.5zM678 881v26
l-88 29q-95 29 -174 29q-95 0 -147 -41.5t-52 -118.5q0 -68 52.5 -109t140.5 -41q122 0 195 61t73 165z" />
    <glyph glyph-name="guillemotleft" unicode="&#xab;" horiz-adv-x="983" 
d="M504 197l-393 399v37l393 399h24v-164l-270 -241v-25l270 -242v-163h-24zM836 197l-394 399v37l394 399h24v-164l-270 -241v-25l270 -242v-163h-24z" />
    <glyph glyph-name="logicalnot" unicode="&#xac;" horiz-adv-x="1144" 
d="M895 451v282h-756v111h867v-393h-111z" />
    <glyph glyph-name="uni00AD" unicode="&#xad;" horiz-adv-x="724" 
d="M102 578h521v-119h-521v119z" />
    <glyph glyph-name="registered" unicode="&#xae;" horiz-adv-x="1097" 
d="M90 995q0 190 133.5 324.5t325.5 134.5t325.5 -134.5t133.5 -324.5q0 -124 -60.5 -229.5t-166 -167t-232.5 -61.5t-232.5 61.5t-166 167t-60.5 229.5zM928 995q0 158 -109.5 269.5t-269.5 111.5t-269.5 -111.5t-109.5 -269.5t109.5 -269.5t269.5 -111.5t269.5 111.5
t109.5 269.5zM367 739v514h227q72 0 117 -37t45 -90q0 -104 -105 -141q92 -21 92 -129q0 -45 5 -66t22 -38v-13h-100q-21 41 -21 117q0 56 -23.5 79t-78.5 23h-96v-219h-84zM451 1030h131q40 0 63 19.5t23 56.5t-23 56.5t-63 19.5h-131v-152z" />
    <glyph glyph-name="overscore" unicode="&#xaf;" horiz-adv-x="786" 
d="M139 1319h508v-119h-508v119z" />
    <glyph glyph-name="degree" unicode="&#xb0;" horiz-adv-x="851" 
d="M92 1120q0 136 99 235t235 99t235 -99t99 -235t-99 -235t-235 -99t-235 99t-99 235zM645 1120q0 95 -61 159t-158 64t-158 -64t-61 -159q0 -98 61 -160.5t158 -62.5t158 62.5t61 160.5z" />
    <glyph glyph-name="plusminus" unicode="&#xb1;" horiz-adv-x="1179" 
d="M541 266v340h-381v119h381v340h118v-340h381v-119h-381v-340h-118zM139 0v119h885v-119h-885z" />
    <glyph glyph-name="uni00B2" unicode="&#xb2;" horiz-adv-x="602" 
d="M57 1227q0 96 67 155.5t171 59.5q114 0 177 -57t63 -156q0 -83 -44.5 -136.5t-146.5 -115.5q-71 -45 -103 -75.5t-42 -70.5h340v-94h-467q0 107 51 177.5t151 123.5q89 48 123.5 88t34.5 99q0 57 -37 90t-100 33q-58 0 -96.5 -32.5t-38.5 -82.5q0 -52 28 -80l-79 -55
q-52 55 -52 129z" />
    <glyph glyph-name="uni00B3" unicode="&#xb3;" horiz-adv-x="628" 
d="M57 928l99 45q8 -68 50 -107t109 -39q63 0 103.5 40.5t40.5 103.5t-39.5 102t-102.5 39q-45 0 -86 -27l-57 74l211 176h-291v99h434v-84l-194 -170l31 2q79 0 137.5 -58t58.5 -151q0 -104 -72 -176q-71 -68 -174 -68t-170 54t-88 145z" />
    <glyph glyph-name="acute" unicode="&#xb4;" horiz-adv-x="622" 
d="M123 1137l182 272h195v-25l-250 -247h-127z" />
    <glyph glyph-name="uni00B5" unicode="&#xb5;" horiz-adv-x="1097" 
d="M143 -406v1377h131v-596q0 -277 250 -277q124 0 211.5 97t87.5 251v525h131v-971h-131v178q-53 -90 -141 -144t-195 -54q-137 0 -213 98v-484h-131z" />
    <glyph glyph-name="paragraph" unicode="&#xb6;" horiz-adv-x="1058" 
d="M469 0v725h-41q-157 0 -257.5 99.5t-100.5 254.5t100.5 255t257.5 100h549v-95h-88v-1339h-107v1339h-207v-1339h-106zM434 819h35v520h-35q-113 0 -184.5 -69t-71.5 -191t71.5 -191t184.5 -69z" />
    <glyph glyph-name="middot" unicode="&#xb7;" horiz-adv-x="462" 
d="M143 805h176v-176h-176v176z" />
    <glyph glyph-name="cedilla" unicode="&#xb8;" horiz-adv-x="591" 
d="M207 -113q19 23 48 37.5t58 14.5q69 0 112.5 -43t43.5 -115q0 -74 -48 -120t-122 -46q-69 0 -117.5 36.5t-60.5 102.5l80 21q6 -36 32 -59t64 -23q43 0 68.5 24.5t25.5 63.5q0 42 -25 66t-69 24q-27 0 -52.5 -15t-37.5 -38l-82 16q32 104 45 199h92q-34 -107 -55 -146z
" />
    <glyph glyph-name="uni00B9" unicode="&#xb9;" horiz-adv-x="421" 
d="M225 737v541q-33 -50 -72 -73.5t-98 -24.5l-18 102q83 4 129 40.5t70 111.5h92v-697h-103z" />
    <glyph glyph-name="ordmasculine" unicode="&#xba;" horiz-adv-x="1024" 
d="M512 1454q196 0 317 -129.5t121 -329.5t-121 -329t-317 -129t-317 129t-121 329t121 329.5t317 129.5zM512 647q140 0 225.5 95t85.5 253t-85.5 253t-225.5 95t-225.5 -95t-85.5 -253t85.5 -253t225.5 -95z" />
    <glyph glyph-name="guillemotright" unicode="&#xbb;" horiz-adv-x="983" 
d="M123 197v163l270 242v25l-270 241v164h24l394 -399v-37l-394 -399h-24zM455 197v163l270 242v25l-270 241v164h24l393 -399v-37l-393 -399h-24z" />
    <glyph glyph-name="onequarter" unicode="&#xbc;" horiz-adv-x="1310" 
d="M225 737v541q-33 -50 -72 -73.5t-98 -24.5l-18 102q83 4 129 40.5t70 111.5h92v-697h-103zM1020 1196l74 -74l-983 -938l-74 74zM1090 0v162h-328v108q85 79 117 161.5t32 219.5v45h103v-45q0 -131 -34.5 -226.5t-109.5 -168.5h220v225h102v-225h86v-94h-86v-162h-102z
" />
    <glyph glyph-name="onehalf" unicode="&#xbd;" horiz-adv-x="1310" 
d="M225 737v541q-33 -50 -72 -73.5t-98 -24.5l-18 102q83 4 129 40.5t70 111.5h92v-697h-103zM1020 1196l74 -74l-983 -938l-74 74zM766 489q0 96 67 156t171 60q114 0 176.5 -57t62.5 -156q0 -83 -44 -136.5t-146 -115.5q-72 -45 -104 -75.5t-42 -70.5h340v-94h-467
q0 107 51.5 177.5t151.5 123.5q89 48 123.5 87.5t34.5 98.5q0 57 -37 90t-100 33q-58 0 -97 -32t-39 -82q0 -51 29 -80l-80 -56q-51 54 -51 129z" />
    <glyph glyph-name="threequarters" unicode="&#xbe;" horiz-adv-x="1517" 
d="M57 928l99 45q8 -68 50 -107t109 -39q63 0 103.5 40.5t40.5 103.5t-39.5 102t-102.5 39q-45 0 -86 -27l-57 74l211 176h-291v99h434v-84l-194 -170l31 2q79 0 137.5 -58t58.5 -151q0 -104 -72 -176q-71 -68 -174 -68t-170 54t-88 145zM1227 1196l73 -74l-983 -938l-73 74
zM1296 0v162h-327v108q85 79 117 161.5t32 219.5v45h103v-45q0 -131 -34.5 -226.5t-109.5 -168.5h219v225h103v-225h86v-94h-86v-162h-103z" />
    <glyph glyph-name="questiondown" unicode="&#xbf;" horiz-adv-x="944" 
d="M549 1028v-176h-176v176h176zM788 379q0 -257 -344 -313q-235 -40 -235 -195q0 -81 68.5 -129.5t179.5 -48.5q120 0 197.5 65.5t107.5 184.5l112 -60q-32 -141 -144 -225t-265 -84q-167 0 -277 81t-110 200q0 129 84 206t268 113q227 45 227 207q0 79 -52 126.5
t-138 47.5q-87 0 -144 -48t-96 -149l-100 58q41 125 127.5 191.5t210.5 66.5q141 0 232 -81t91 -214z" />
    <glyph glyph-name="Agrave" unicode="&#xc0;" horiz-adv-x="1482" 
d="M29 0l612 1434h201l612 -1434h-151l-162 385h-799l-162 -385h-151zM397 516h688l-344 815zM680 1599l-250 248v25h195l182 -273h-127z" />
    <glyph glyph-name="Aacute" unicode="&#xc1;" horiz-adv-x="1482" 
d="M29 0l612 1434h201l612 -1434h-151l-162 385h-799l-162 -385h-151zM397 516h688l-344 815zM678 1599l182 273h195v-25l-250 -248h-127z" />
    <glyph glyph-name="Acircumflex" unicode="&#xc2;" horiz-adv-x="1482" 
d="M29 0l612 1434h201l612 -1434h-151l-162 385h-799l-162 -385h-151zM397 516h688l-344 815zM449 1599v25l235 211h115l235 -211v-25h-157l-136 156l-135 -156h-157z" />
    <glyph glyph-name="Atilde" unicode="&#xc3;" horiz-adv-x="1482" 
d="M29 0l612 1434h201l612 -1434h-151l-162 385h-799l-162 -385h-151zM397 516h688l-344 815zM717 1677q-28 27 -50 38t-53 11q-32 0 -53.5 -20.5t-21.5 -54.5q0 -17 6 -35l-105 12q-4 16 -4 35q0 72 51.5 119t126.5 47q50 0 79 -13.5t73 -48.5q28 -27 50 -38t52 -11
q31 0 53.5 21t22.5 53q0 19 -6 37l104 -12q5 -20 5 -35q0 -72 -52 -119t-127 -47q-50 0 -79 13t-72 48z" />
    <glyph glyph-name="Adieresis" unicode="&#xc4;" horiz-adv-x="1482" 
d="M29 0l612 1434h201l612 -1434h-151l-162 385h-799l-162 -385h-151zM397 516h688l-344 815zM504 1632v172h168v-172h-168zM811 1632v172h168v-172h-168z" />
    <glyph glyph-name="Aring" unicode="&#xc5;" horiz-adv-x="1482" 
d="M29 0l612 1434h201l612 -1434h-151l-162 385h-799l-162 -385h-151zM397 516h688l-344 815zM571 1747q0 72 49 121t121 49q70 0 120 -49.5t50 -120.5q0 -69 -50.5 -119.5t-119.5 -50.5q-71 0 -120.5 50t-49.5 120zM829 1747q0 37 -25.5 62.5t-62.5 25.5t-62.5 -25.5
t-25.5 -62.5t25.5 -62.5t62.5 -25.5t62.5 25.5t25.5 62.5z" />
    <glyph glyph-name="AE" unicode="&#xc6;" horiz-adv-x="1880" 
d="M985 131h772v-131h-915v385h-463l-195 -385h-155l721 1434h987v-131h-752v-496h690v-131h-690v-545zM842 516v791l-398 -791h398z" />
    <glyph glyph-name="Ccedilla" unicode="&#xc7;" horiz-adv-x="1574" 
d="M250 717q0 -282 152.5 -444t400.5 -162q256 0 387 125t190 344l121 -50q-59 -249 -237 -399q-180 -151 -459 -151q-158 0 -290.5 56t-223.5 154t-142 234t-51 293q-2 152 52 289.5t148 237t226.5 156.5t280.5 54q256 0 407 -133q154 -133 215 -340l-133 -59
q-43 187 -171 294t-320 107q-239 0 -396 -166.5t-157 -439.5zM729 -113q19 23 48.5 37.5t58.5 14.5q69 0 112 -43t43 -115q0 -74 -48 -120t-122 -46q-69 0 -117.5 36.5t-60.5 102.5l80 21q6 -36 32 -59t64 -23q43 0 68.5 24.5t25.5 63.5q0 42 -25 66t-69 24q-27 0 -52.5 -15
t-37.5 -38l-82 16q32 104 45 199h92q-34 -107 -55 -146z" />
    <glyph glyph-name="Egrave" unicode="&#xc8;" horiz-adv-x="1273" 
d="M164 1434h966v-131h-823v-496h762v-131h-762v-545h844v-131h-987v1434zM586 1599l-250 248v25h194l183 -273h-127z" />
    <glyph glyph-name="Eacute" unicode="&#xc9;" horiz-adv-x="1273" 
d="M164 1434h966v-131h-823v-496h762v-131h-762v-545h844v-131h-987v1434zM584 1599l182 273h195v-25l-250 -248h-127z" />
    <glyph glyph-name="Ecircumflex" unicode="&#xca;" horiz-adv-x="1273" 
d="M164 1434h966v-131h-823v-496h762v-131h-762v-545h844v-131h-987v1434zM354 1599v25l236 211h115l235 -211v-25h-158l-135 156l-135 -156h-158z" />
    <glyph glyph-name="Edieresis" unicode="&#xcb;" horiz-adv-x="1273" 
d="M164 1434h966v-131h-823v-496h762v-131h-762v-545h844v-131h-987v1434zM406 1632v172h167v-172h-167zM713 1632v172h168v-172h-168z" />
    <glyph glyph-name="Igrave" unicode="&#xcc;" horiz-adv-x="471" 
d="M164 0v1434h143v-1434h-143zM174 1599l-250 248v25h195l182 -273h-127z" />
    <glyph glyph-name="Iacute" unicode="&#xcd;" horiz-adv-x="471" 
d="M164 0v1434h143v-1434h-143zM172 1599l182 273h195v-25l-250 -248h-127z" />
    <glyph glyph-name="Icircumflex" unicode="&#xce;" horiz-adv-x="471" 
d="M164 0v1434h143v-1434h-143zM-57 1599v25l235 211h115l235 -211v-25h-157l-135 156l-136 -156h-157z" />
    <glyph glyph-name="Idieresis" unicode="&#xcf;" horiz-adv-x="471" 
d="M164 0v1434h143v-1434h-143zM-6 1632v172h168v-172h-168zM301 1632v172h168v-172h-168z" />
    <glyph glyph-name="Eth" unicode="&#xd0;" horiz-adv-x="1480" 
d="M164 0v1434h522q217 0 375.5 -92t239.5 -253t81 -372t-81 -372t-239.5 -253t-375.5 -92h-522zM307 1303v-1172h379q262 0 407.5 155t145.5 431t-145.5 431t-407.5 155h-379zM-2 776h725v-119h-725v119z" />
    <glyph glyph-name="Ntilde" unicode="&#xd1;" horiz-adv-x="1554" 
d="M307 1341v-1341h-143v1434h244l839 -1342v1342h144v-1434h-244zM754 1677q-28 27 -50 38t-53 11q-32 0 -54 -20.5t-22 -54.5q0 -14 7 -35l-105 12q-4 16 -4 35q0 72 51.5 119t126.5 47q50 0 79 -13.5t73 -48.5q28 -27 50 -38t52 -11q31 0 53.5 21t22.5 53q0 19 -6 37
l104 -12q4 -16 4 -35q0 -72 -51.5 -119t-126.5 -47q-50 0 -79 13t-72 48z" />
    <glyph glyph-name="Ograve" unicode="&#xd2;" horiz-adv-x="1658" 
d="M829 1454q153 3 290.5 -55.5t234.5 -159t153 -237.5t54 -285q2 -149 -54 -286t-153 -237t-234.5 -158.5t-290.5 -55.5q-153 -3 -290 55.5t-234 158.5t-153 237t-54 286q-2 148 54 285t153 237.5t234 159t290 55.5zM829 111q255 0 417.5 167t162.5 439q0 273 -162 439.5
t-418 166.5q-255 0 -417 -168t-162 -440q0 -179 76 -317.5t207.5 -212.5t295.5 -74zM768 1599l-250 248v25h195l182 -273h-127z" />
    <glyph glyph-name="Oacute" unicode="&#xd3;" horiz-adv-x="1658" 
d="M829 1454q153 3 290.5 -55.5t234.5 -159t153 -237.5t54 -285q2 -149 -54 -286t-153 -237t-234.5 -158.5t-290.5 -55.5q-153 -3 -290 55.5t-234 158.5t-153 237t-54 286q-2 148 54 285t153 237.5t234 159t290 55.5zM829 111q255 0 417.5 167t162.5 439q0 273 -162 439.5
t-418 166.5q-255 0 -417 -168t-162 -440q0 -179 76 -317.5t207.5 -212.5t295.5 -74zM766 1599l182 273h195v-25l-250 -248h-127z" />
    <glyph glyph-name="Ocircumflex" unicode="&#xd4;" horiz-adv-x="1658" 
d="M829 1454q153 3 290.5 -55.5t234.5 -159t153 -237.5t54 -285q2 -149 -54 -286t-153 -237t-234.5 -158.5t-290.5 -55.5q-153 -3 -290 55.5t-234 158.5t-153 237t-54 286q-2 148 54 285t153 237.5t234 159t290 55.5zM829 111q255 0 417.5 167t162.5 439q0 273 -162 439.5
t-418 166.5q-255 0 -417 -168t-162 -440q0 -179 76 -317.5t207.5 -212.5t295.5 -74zM537 1599v25l235 211h115l235 -211v-25h-157l-136 156l-135 -156h-157z" />
    <glyph glyph-name="Otilde" unicode="&#xd5;" horiz-adv-x="1658" 
d="M829 1454q153 3 290.5 -55.5t234.5 -159t153 -237.5t54 -285q2 -149 -54 -286t-153 -237t-234.5 -158.5t-290.5 -55.5q-153 -3 -290 55.5t-234 158.5t-153 237t-54 286q-2 148 54 285t153 237.5t234 159t290 55.5zM829 111q255 0 417.5 167t162.5 439q0 273 -162 439.5
t-418 166.5q-255 0 -417 -168t-162 -440q0 -179 76 -317.5t207.5 -212.5t295.5 -74zM805 1677q-28 27 -50 38t-53 11q-32 0 -53.5 -20.5t-21.5 -54.5q0 -17 6 -35l-105 12q-4 16 -4 35q0 72 51.5 119t126.5 47q50 0 79 -13.5t73 -48.5q28 -27 50 -38t52 -11q31 0 53.5 21
t22.5 53q0 19 -6 37l104 -12q5 -20 5 -35q0 -72 -52 -119t-127 -47q-50 0 -79 13t-72 48z" />
    <glyph glyph-name="Odieresis" unicode="&#xd6;" horiz-adv-x="1658" 
d="M829 1454q153 3 290.5 -55.5t234.5 -159t153 -237.5t54 -285q2 -149 -54 -286t-153 -237t-234.5 -158.5t-290.5 -55.5q-153 -3 -290 55.5t-234 158.5t-153 237t-54 286q-2 148 54 285t153 237.5t234 159t290 55.5zM829 111q255 0 417.5 167t162.5 439q0 273 -162 439.5
t-418 166.5q-255 0 -417 -168t-162 -440q0 -179 76 -317.5t207.5 -212.5t295.5 -74zM592 1632v172h168v-172h-168zM899 1632v172h168v-172h-168z" />
    <glyph glyph-name="multiply" unicode="&#xd7;" horiz-adv-x="987" 
d="M223 260l-84 84l271 270l-271 271l84 84l271 -271l270 271l84 -84l-270 -271l270 -270l-84 -84l-270 270z" />
    <glyph glyph-name="Oslash" unicode="&#xd8;" horiz-adv-x="1658" 
d="M829 1454q153 3 290.5 -55.5t234.5 -159t153 -237.5t54 -285q2 -149 -54 -286t-153 -237t-234.5 -158.5t-290.5 -55.5q-153 -3 -290 55.5t-234 158.5t-153 237t-54 286q-2 148 54 285t153 237.5t234 159t290 55.5zM829 111q255 0 417.5 167t162.5 439q0 273 -162 439.5
t-418 166.5q-255 0 -417 -168t-162 -440q0 -179 76 -317.5t207.5 -212.5t295.5 -74zM362 -39l-106 78l1040 1434l107 -78z" />
    <glyph glyph-name="Ugrave" unicode="&#xd9;" horiz-adv-x="1470" 
d="M152 1434h143v-836q0 -233 113 -360t327 -127t327.5 127t113.5 360v836h143v-861q0 -260 -157 -426.5t-427 -166.5q-180 0 -313.5 78t-201.5 211.5t-68 303.5v861zM674 1599l-250 248v25h194l183 -273h-127z" />
    <glyph glyph-name="Uacute" unicode="&#xda;" horiz-adv-x="1470" 
d="M152 1434h143v-836q0 -233 113 -360t327 -127t327.5 127t113.5 360v836h143v-861q0 -260 -157 -426.5t-427 -166.5q-180 0 -313.5 78t-201.5 211.5t-68 303.5v861zM672 1599l182 273h195v-25l-250 -248h-127z" />
    <glyph glyph-name="Ucircumflex" unicode="&#xdb;" horiz-adv-x="1470" 
d="M152 1434h143v-836q0 -233 113 -360t327 -127t327.5 127t113.5 360v836h143v-861q0 -260 -157 -426.5t-427 -166.5q-180 0 -313.5 78t-201.5 211.5t-68 303.5v861zM442 1599v25l236 211h115l235 -211v-25h-158l-135 156l-135 -156h-158z" />
    <glyph glyph-name="Udieresis" unicode="&#xdc;" horiz-adv-x="1470" 
d="M152 1434h143v-836q0 -233 113 -360t327 -127t327.5 127t113.5 360v836h143v-861q0 -260 -157 -426.5t-427 -166.5q-180 0 -313.5 78t-201.5 211.5t-68 303.5v861zM494 1632v172h168v-172h-168zM801 1632v172h168v-172h-168z" />
    <glyph glyph-name="Yacute" unicode="&#xdd;" horiz-adv-x="1323" 
d="M195 1434l467 -711l466 711h162l-557 -836v-598h-143v598l-557 836h162zM598 1599l182 273h195v-25l-250 -248h-127z" />
    <glyph glyph-name="Thorn" unicode="&#xde;" horiz-adv-x="1329" 
d="M307 305v-305h-143v1434h143v-306h451q217 0 343 -114.5t126 -296.5q0 -180 -129 -296t-340 -116h-451zM307 436h438q153 0 241.5 72t88.5 209q0 136 -88.5 208t-241.5 72h-438v-561z" />
    <glyph glyph-name="germandbls" unicode="&#xdf;" horiz-adv-x="1196" 
d="M678 98q122 0 200 83.5t78 236.5q0 176 -124 276.5t-312 100.5v118q132 2 212.5 63t80.5 173q0 86 -58 136t-157 50q-103 0 -167 -69.5t-64 -194.5v-1071h-131v795h-179v118h179v152q0 176 100.5 282.5t261.5 106.5q155 0 246.5 -82.5t91.5 -222.5q0 -97 -60 -170
t-153 -113q172 -45 268 -159t96 -287q0 -196 -116 -318t-293 -122q-113 0 -234 59l25 129q110 -70 209 -70z" />
    <glyph glyph-name="agrave" unicode="&#xe0;" horiz-adv-x="1032" 
d="M90 274q0 137 97 214t251 77q131 0 252 -43l68 -24v133q0 117 -70.5 179t-195.5 62q-112 0 -187.5 -54.5t-95.5 -155.5l-117 34q25 134 133 214.5t267 80.5q187 0 292 -101.5t105 -275.5v-614h-131v139q-40 -72 -137 -115.5t-205 -43.5q-148 0 -237 80.5t-89 213.5z
M758 356v33l-105 35q-103 35 -200 35q-111 0 -171.5 -48.5t-60.5 -138.5q0 -79 61 -126.5t160 -47.5q141 0 228.5 70.5t87.5 187.5zM430 1137l-250 247v25h195l182 -272h-127z" />
    <glyph glyph-name="aacute" unicode="&#xe1;" horiz-adv-x="1032" 
d="M90 274q0 137 97 214t251 77q131 0 252 -43l68 -24v133q0 117 -70.5 179t-195.5 62q-112 0 -187.5 -54.5t-95.5 -155.5l-117 34q25 134 133 214.5t267 80.5q187 0 292 -101.5t105 -275.5v-614h-131v139q-40 -72 -137 -115.5t-205 -43.5q-148 0 -237 80.5t-89 213.5z
M758 356v33l-105 35q-103 35 -200 35q-111 0 -171.5 -48.5t-60.5 -138.5q0 -79 61 -126.5t160 -47.5q141 0 228.5 70.5t87.5 187.5zM430 1137l182 272h195v-25l-250 -247h-127z" />
    <glyph glyph-name="acircumflex" unicode="&#xe2;" horiz-adv-x="1032" 
d="M90 274q0 137 97 214t251 77q131 0 252 -43l68 -24v133q0 117 -70.5 179t-195.5 62q-112 0 -187.5 -54.5t-95.5 -155.5l-117 34q25 134 133 214.5t267 80.5q187 0 292 -101.5t105 -275.5v-614h-131v139q-40 -72 -137 -115.5t-205 -43.5q-148 0 -237 80.5t-89 213.5z
M758 356v33l-105 35q-103 35 -200 35q-111 0 -171.5 -48.5t-60.5 -138.5q0 -79 61 -126.5t160 -47.5q141 0 228.5 70.5t87.5 187.5zM201 1137v24l235 211h115l235 -211v-24h-157l-135 155l-136 -155h-157z" />
    <glyph glyph-name="atilde" unicode="&#xe3;" horiz-adv-x="1032" 
d="M90 274q0 137 97 214t251 77q131 0 252 -43l68 -24v133q0 117 -70.5 179t-195.5 62q-112 0 -187.5 -54.5t-95.5 -155.5l-117 34q25 134 133 214.5t267 80.5q187 0 292 -101.5t105 -275.5v-614h-131v139q-40 -72 -137 -115.5t-205 -43.5q-148 0 -237 80.5t-89 213.5z
M758 356v33l-105 35q-103 35 -200 35q-111 0 -171.5 -48.5t-60.5 -138.5q0 -79 61 -126.5t160 -47.5q141 0 228.5 70.5t87.5 187.5zM469 1214q-29 27 -50.5 38.5t-51.5 11.5q-32 0 -54 -21t-22 -55q0 -17 6 -35l-104 12q-5 20 -5 35q0 72 52 119t127 47q50 0 79 -13t72 -48
q29 -27 51 -38.5t52 -11.5q31 0 53 21t22 53q0 19 -6 37l105 -12q4 -16 4 -35q0 -72 -51.5 -119t-126.5 -47q-50 0 -79.5 13t-72.5 48z" />
    <glyph glyph-name="adieresis" unicode="&#xe4;" horiz-adv-x="1032" 
d="M90 274q0 137 97 214t251 77q131 0 252 -43l68 -24v133q0 117 -70.5 179t-195.5 62q-112 0 -187.5 -54.5t-95.5 -155.5l-117 34q25 134 133 214.5t267 80.5q187 0 292 -101.5t105 -275.5v-614h-131v139q-40 -72 -137 -115.5t-205 -43.5q-148 0 -237 80.5t-89 213.5z
M758 356v33l-105 35q-103 35 -200 35q-111 0 -171.5 -48.5t-60.5 -138.5q0 -79 61 -126.5t160 -47.5q141 0 228.5 70.5t87.5 187.5zM252 1169v172h168v-172h-168zM559 1169v172h168v-172h-168z" />
    <glyph glyph-name="aring" unicode="&#xe5;" horiz-adv-x="1032" 
d="M90 274q0 137 97 214t251 77q131 0 252 -43l68 -24v133q0 117 -70.5 179t-195.5 62q-112 0 -187.5 -54.5t-95.5 -155.5l-117 34q25 134 133 214.5t267 80.5q187 0 292 -101.5t105 -275.5v-614h-131v139q-40 -72 -137 -115.5t-205 -43.5q-148 0 -237 80.5t-89 213.5z
M758 356v33l-105 35q-103 35 -200 35q-111 0 -171.5 -48.5t-60.5 -138.5q0 -79 61 -126.5t160 -47.5q141 0 228.5 70.5t87.5 187.5zM324 1284q0 72 49 121t121 49q70 0 120 -49.5t50 -120.5q0 -69 -50.5 -119.5t-119.5 -50.5q-71 0 -120.5 50t-49.5 120zM582 1284
q0 37 -25.5 62.5t-62.5 25.5t-62.5 -25.5t-25.5 -62.5t25.5 -62.5t62.5 -25.5t62.5 25.5t25.5 62.5z" />
    <glyph glyph-name="ae" unicode="&#xe6;" horiz-adv-x="1705" 
d="M90 276q0 140 97.5 218.5t261.5 78.5h294v58q0 118 -66 179.5t-188 61.5q-112 0 -186 -54.5t-94 -155.5l-117 34q25 134 132.5 214.5t264.5 80.5q255 0 347 -188q61 89 153.5 138.5t206.5 49.5q195 0 309.5 -106.5t114.5 -290.5q0 -56 -14 -127h-723q1 -171 92 -270
t239 -99q231 0 304 236l114 -45q-107 -309 -415 -309q-134 0 -239 63.5t-165 181.5q-102 -245 -393 -245q-148 0 -239 81.5t-91 214.5zM881 573h608l2 43q0 120 -85 188t-214 68q-125 0 -211.5 -81.5t-99.5 -217.5zM743 387v80h-280q-113 0 -177.5 -50.5t-64.5 -140.5
q0 -85 60 -131.5t165 -46.5q135 0 216 79t81 210z" />
    <glyph glyph-name="ccedilla" unicode="&#xe7;" horiz-adv-x="1118" 
d="M580 98q145 0 227 75.5t125 234.5l112 -43q-44 -185 -164 -285t-300 -100q-222 0 -360 141t-138 371q-2 105 37.5 199.5t106 160.5t155.5 103.5t182 35.5q173 0 285 -88t153 -254l-118 -37q-70 260 -322 260q-63 0 -124 -24.5t-111.5 -70t-81.5 -119.5t-31 -164
q0 -176 108.5 -286t258.5 -110zM518 -113q19 23 48.5 37.5t58.5 14.5q69 0 112 -43t43 -115q0 -74 -48 -120t-122 -46q-69 0 -117.5 36.5t-60.5 102.5l80 21q6 -36 32 -59t64 -23q43 0 68.5 24.5t25.5 63.5q0 42 -25 66t-69 24q-27 0 -52.5 -15t-37.5 -38l-82 16
q32 104 45 199h92q-34 -107 -55 -146z" />
    <glyph glyph-name="egrave" unicode="&#xe8;" horiz-adv-x="1044" 
d="M856 334l115 -45q-107 -309 -416 -309q-206 0 -339.5 140.5t-133.5 371.5q0 137 57.5 251t162 181t233.5 67q195 0 309 -106.5t114 -290.5q0 -56 -14 -127h-723q1 -171 92.5 -270t239.5 -99q230 0 303 236zM221 573h606l2 43q0 120 -84.5 188t-212.5 68
q-125 0 -211.5 -81.5t-99.5 -217.5zM471 1137l-250 247v25h195l182 -272h-127z" />
    <glyph glyph-name="eacute" unicode="&#xe9;" horiz-adv-x="1044" 
d="M856 334l115 -45q-107 -309 -416 -309q-206 0 -339.5 140.5t-133.5 371.5q0 137 57.5 251t162 181t233.5 67q195 0 309 -106.5t114 -290.5q0 -56 -14 -127h-723q1 -171 92.5 -270t239.5 -99q230 0 303 236zM221 573h606l2 43q0 120 -84.5 188t-212.5 68
q-125 0 -211.5 -81.5t-99.5 -217.5zM471 1137l182 272h195v-25l-250 -247h-127z" />
    <glyph glyph-name="ecircumflex" unicode="&#xea;" horiz-adv-x="1044" 
d="M856 334l115 -45q-107 -309 -416 -309q-206 0 -339.5 140.5t-133.5 371.5q0 137 57.5 251t162 181t233.5 67q195 0 309 -106.5t114 -290.5q0 -56 -14 -127h-723q1 -171 92.5 -270t239.5 -99q230 0 303 236zM221 573h606l2 43q0 120 -84.5 188t-212.5 68
q-125 0 -211.5 -81.5t-99.5 -217.5zM242 1137v24l235 211h115l235 -211v-24h-157l-135 155l-136 -155h-157z" />
    <glyph glyph-name="edieresis" unicode="&#xeb;" horiz-adv-x="1044" 
d="M856 334l115 -45q-107 -309 -416 -309q-206 0 -339.5 140.5t-133.5 371.5q0 137 57.5 251t162 181t233.5 67q195 0 309 -106.5t114 -290.5q0 -56 -14 -127h-723q1 -171 92.5 -270t239.5 -99q230 0 303 236zM221 573h606l2 43q0 120 -84.5 188t-212.5 68
q-125 0 -211.5 -81.5t-99.5 -217.5zM293 1169v172h168v-172h-168zM600 1169v172h168v-172h-168z" />
    <glyph glyph-name="igrave" unicode="&#xec;" horiz-adv-x="417" 
d="M143 971h131v-971h-131v971zM145 1137l-249 247v25h194l182 -272h-127z" />
    <glyph glyph-name="iacute" unicode="&#xed;" horiz-adv-x="417" 
d="M143 971h131v-971h-131v971zM145 1137l183 272h194v-25l-250 -247h-127z" />
    <glyph glyph-name="icircumflex" unicode="&#xee;" horiz-adv-x="417" 
d="M143 971h131v-971h-131v971zM-84 1137v24l236 211h114l236 -211v-24h-158l-135 155l-135 -155h-158z" />
    <glyph glyph-name="idieresis" unicode="&#xef;" horiz-adv-x="417" 
d="M143 971h131v-971h-131v971zM-33 1169v172h168v-172h-168zM274 1169v172h168v-172h-168z" />
    <glyph glyph-name="eth" unicode="&#xf0;" horiz-adv-x="1130" 
d="M82 481q0 220 134 365t349 145q199 0 316 -172q-52 203 -224 369l-96 -111l-96 82l96 111q-12 9 -127 88l78 96q97 -61 133 -90l78 90l96 -82l-78 -88q308 -293 308 -756q0 -247 -135 -397.5t-349 -150.5q-142 0 -252.5 65t-170.5 179t-60 257zM909 481q0 171 -96.5 281
t-247.5 110t-247.5 -110t-96.5 -281q0 -172 95 -277.5t249 -105.5t249 105.5t95 277.5z" />
    <glyph glyph-name="ntilde" unicode="&#xf1;" horiz-adv-x="1097" 
d="M274 0h-131v971h131v-178q53 90 141 144t195 54q161 0 252.5 -95.5t91.5 -270.5v-625h-131v596q0 276 -250 276q-124 0 -211.5 -97t-87.5 -251v-524zM543 1214q-29 27 -51 38.5t-52 11.5q-32 0 -53.5 -21t-21.5 -55q0 -17 6 -35l-105 12q-4 16 -4 35q0 72 51.5 119
t126.5 47q50 0 79.5 -13t72.5 -48q29 -27 50.5 -38.5t51.5 -11.5q31 0 53.5 21t22.5 53q0 19 -6 37l104 -12q4 -16 4 -35q0 -72 -51.5 -119t-126.5 -47q-50 0 -79 13t-72 48z" />
    <glyph glyph-name="ograve" unicode="&#xf2;" horiz-adv-x="1130" 
d="M82 485q0 218 134 362t349 144t349.5 -144t134.5 -362t-135 -361.5t-349 -143.5t-348.5 143.5t-134.5 361.5zM909 485q0 170 -96.5 278.5t-247.5 108.5t-247.5 -108.5t-96.5 -278.5t96.5 -278.5t247.5 -108.5t247.5 108.5t96.5 278.5zM502 1137l-250 247v25h194l183 -272
h-127z" />
    <glyph glyph-name="oacute" unicode="&#xf3;" horiz-adv-x="1130" 
d="M82 485q0 218 134 362t349 144t349.5 -144t134.5 -362t-135 -361.5t-349 -143.5t-348.5 143.5t-134.5 361.5zM909 485q0 170 -96.5 278.5t-247.5 108.5t-247.5 -108.5t-96.5 -278.5t96.5 -278.5t247.5 -108.5t247.5 108.5t96.5 278.5zM502 1137l182 272h195v-25
l-250 -247h-127z" />
    <glyph glyph-name="ocircumflex" unicode="&#xf4;" horiz-adv-x="1130" 
d="M82 485q0 218 134 362t349 144t349.5 -144t134.5 -362t-135 -361.5t-349 -143.5t-348.5 143.5t-134.5 361.5zM909 485q0 170 -96.5 278.5t-247.5 108.5t-247.5 -108.5t-96.5 -278.5t96.5 -278.5t247.5 -108.5t247.5 108.5t96.5 278.5zM272 1137v24l236 211h115l235 -211
v-24h-158l-135 155l-135 -155h-158z" />
    <glyph glyph-name="otilde" unicode="&#xf5;" horiz-adv-x="1130" 
d="M82 485q0 218 134 362t349 144t349.5 -144t134.5 -362t-135 -361.5t-349 -143.5t-348.5 143.5t-134.5 361.5zM909 485q0 170 -96.5 278.5t-247.5 108.5t-247.5 -108.5t-96.5 -278.5t96.5 -278.5t247.5 -108.5t247.5 108.5t96.5 278.5zM541 1214q-29 27 -51 38.5t-52 11.5
q-32 0 -54 -21t-22 -55q0 -14 7 -35l-105 12q-4 16 -4 35q0 72 51.5 119t126.5 47q50 0 79.5 -13t72.5 -48q29 -27 50.5 -38.5t51.5 -11.5q31 0 53.5 21t22.5 53q0 19 -6 37l104 -12q4 -16 4 -35q0 -72 -51.5 -119t-126.5 -47q-50 0 -79 13t-72 48z" />
    <glyph glyph-name="odieresis" unicode="&#xf6;" horiz-adv-x="1130" 
d="M82 485q0 218 134 362t349 144t349.5 -144t134.5 -362t-135 -361.5t-349 -143.5t-348.5 143.5t-134.5 361.5zM909 485q0 170 -96.5 278.5t-247.5 108.5t-247.5 -108.5t-96.5 -278.5t96.5 -278.5t247.5 -108.5t247.5 108.5t96.5 278.5zM324 1169v172h168v-172h-168z
M631 1169v172h168v-172h-168z" />
    <glyph glyph-name="divide" unicode="&#xf7;" horiz-adv-x="1163" 
d="M494 848v176h176v-176h-176zM139 555v119h885v-119h-885zM494 205v176h176v-176h-176z" />
    <glyph glyph-name="oslash" unicode="&#xf8;" horiz-adv-x="1130" 
d="M1049 485q0 -218 -135 -361.5t-349 -143.5q-45 0 -110 10l-33 -88l-123 45l33 88q-119 62 -184.5 180t-65.5 270q0 218 134 362t349 144q46 0 111 -10l33 88l122 -45l-32 -88q118 -61 184 -180t66 -271zM375 156l260 710q-35 6 -70 6q-151 0 -247.5 -108.5t-96.5 -278.5
q0 -108 40 -193.5t114 -135.5zM909 485q0 106 -40.5 193.5t-112.5 136.5l-260 -711q34 -6 69 -6q151 0 247.5 108.5t96.5 278.5z" />
    <glyph glyph-name="ugrave" unicode="&#xf9;" horiz-adv-x="1097" 
d="M823 971h131v-971h-131v178q-53 -90 -141 -144t-195 -54q-161 0 -252.5 95.5t-91.5 270.5v625h131v-596q0 -277 250 -277q124 0 211.5 97t87.5 251v525zM485 1137l-249 247v25h194l182 -272h-127z" />
    <glyph glyph-name="uacute" unicode="&#xfa;" horiz-adv-x="1097" 
d="M823 971h131v-971h-131v178q-53 -90 -141 -144t-195 -54q-161 0 -252.5 95.5t-91.5 270.5v625h131v-596q0 -277 250 -277q124 0 211.5 97t87.5 251v525zM485 1137l183 272h194v-25l-250 -247h-127z" />
    <glyph glyph-name="ucircumflex" unicode="&#xfb;" horiz-adv-x="1097" 
d="M823 971h131v-971h-131v178q-53 -90 -141 -144t-195 -54q-161 0 -252.5 95.5t-91.5 270.5v625h131v-596q0 -277 250 -277q124 0 211.5 97t87.5 251v525zM256 1137v24l236 211h114l236 -211v-24h-158l-135 155l-135 -155h-158z" />
    <glyph glyph-name="udieresis" unicode="&#xfc;" horiz-adv-x="1097" 
d="M823 971h131v-971h-131v178q-53 -90 -141 -144t-195 -54q-161 0 -252.5 95.5t-91.5 270.5v625h131v-596q0 -277 250 -277q124 0 211.5 97t87.5 251v525zM307 1169v172h168v-172h-168zM614 1169v172h168v-172h-168z" />
    <glyph glyph-name="yacute" unicode="&#xfd;" horiz-adv-x="915" 
d="M743 971h142l-582 -1377h-141l215 508l-357 869h144l287 -695zM375 1137l182 272h195v-25l-250 -247h-127z" />
    <glyph glyph-name="thorn" unicode="&#xfe;" horiz-adv-x="1157" 
d="M143 1434h131v-637q40 76 140 135t215 59q196 0 321 -136t125 -363t-129 -369.5t-321 -142.5q-115 0 -208 51t-143 139v-576h-131v1840zM606 98q65 0 123.5 22.5t107.5 67.5t78 122.5t29 176.5t-29 175.5t-78 121t-107.5 66.5t-123.5 22q-61 0 -121 -26t-109 -73.5
t-79.5 -122t-30.5 -163.5t30.5 -164.5t79.5 -123.5t109 -74.5t121 -26.5z" />
    <glyph glyph-name="ydieresis" unicode="&#xff;" horiz-adv-x="915" 
d="M743 971h142l-582 -1377h-141l215 508l-357 869h144l287 -695zM197 1169v172h168v-172h-168zM504 1169v172h168v-172h-168z" />
    <glyph glyph-name="Amacron" unicode="&#x100;" horiz-adv-x="1482" 
d="M29 0l612 1434h201l612 -1434h-151l-162 385h-799l-162 -385h-151zM397 516h688l-344 815zM487 1782h508v-119h-508v119z" />
    <glyph glyph-name="amacron" unicode="&#x101;" horiz-adv-x="1032" 
d="M90 274q0 137 97 214t251 77q131 0 252 -43l68 -24v133q0 117 -70.5 179t-195.5 62q-112 0 -187.5 -54.5t-95.5 -155.5l-117 34q25 134 133 214.5t267 80.5q187 0 292 -101.5t105 -275.5v-614h-131v139q-40 -72 -137 -115.5t-205 -43.5q-148 0 -237 80.5t-89 213.5z
M758 356v33l-105 35q-103 35 -200 35q-111 0 -171.5 -48.5t-60.5 -138.5q0 -79 61 -126.5t160 -47.5q141 0 228.5 70.5t87.5 187.5zM236 1319h507v-119h-507v119z" />
    <glyph glyph-name="Abreve" unicode="&#x102;" horiz-adv-x="1482" 
d="M29 0l612 1434h201l612 -1434h-151l-162 385h-799l-162 -385h-151zM397 516h688l-344 815zM981 1819q0 -103 -67 -160t-175 -57t-174.5 57t-66.5 160q0 20 2 26h118l-2 -22q0 -52 33.5 -83.5t89.5 -31.5t89.5 31.5t33.5 83.5l-2 22h119q2 -6 2 -26z" />
    <glyph glyph-name="abreve" unicode="&#x103;" horiz-adv-x="1032" 
d="M90 274q0 137 97 214t251 77q131 0 252 -43l68 -24v133q0 117 -70.5 179t-195.5 62q-112 0 -187.5 -54.5t-95.5 -155.5l-117 34q25 134 133 214.5t267 80.5q187 0 292 -101.5t105 -275.5v-614h-131v139q-40 -72 -137 -115.5t-205 -43.5q-148 0 -237 80.5t-89 213.5z
M758 356v33l-105 35q-103 35 -200 35q-111 0 -171.5 -48.5t-60.5 -138.5q0 -79 61 -126.5t160 -47.5q141 0 228.5 70.5t87.5 187.5zM733 1356q0 -103 -66.5 -160t-174.5 -57t-175 57t-67 160q0 20 2 26h119l-2 -22q0 -52 33.5 -83.5t89.5 -31.5t89 31.5t33 83.5l-2 22h119
q2 -6 2 -26z" />
    <glyph glyph-name="Aogonek" unicode="&#x104;" horiz-adv-x="1482" 
d="M29 0l612 1434h201l612 -1434h-151l-162 385h-799l-162 -385h-151zM397 516h688l-344 815zM1384 -379q-79 0 -127.5 46.5t-48.5 119.5q0 125 138 213h108q-135 -76 -135 -172q0 -38 26.5 -63t67.5 -25q32 0 74 22l45 -104q-67 -37 -148 -37z" />
    <glyph glyph-name="aogonek" unicode="&#x105;" horiz-adv-x="1032" 
d="M90 274q0 137 97 214t251 77q131 0 252 -43l68 -24v133q0 117 -70.5 179t-195.5 62q-112 0 -187.5 -54.5t-95.5 -155.5l-117 34q25 134 133 214.5t267 80.5q187 0 292 -101.5t105 -275.5v-614h-131v139q-40 -72 -137 -115.5t-205 -43.5q-148 0 -237 80.5t-89 213.5z
M758 356v33l-105 35q-103 35 -200 35q-111 0 -171.5 -48.5t-60.5 -138.5q0 -79 61 -126.5t160 -47.5q141 0 228.5 70.5t87.5 187.5zM819 -379q-79 0 -127.5 46.5t-48.5 119.5q0 125 137 213h109q-135 -76 -135 -172q0 -38 26.5 -63t67.5 -25q32 0 74 22l45 -104
q-67 -37 -148 -37z" />
    <glyph glyph-name="Cacute" unicode="&#x106;" horiz-adv-x="1574" 
d="M250 717q0 -282 152.5 -444t400.5 -162q256 0 387 125t190 344l121 -50q-59 -249 -237 -399q-180 -151 -459 -151q-158 0 -290.5 56t-223.5 154t-142 234t-51 293q-2 152 52 289.5t148 237t226.5 156.5t280.5 54q256 0 407 -133q154 -133 215 -340l-133 -59
q-43 187 -171 294t-320 107q-239 0 -396 -166.5t-157 -439.5zM729 1599l182 273h195v-25l-250 -248h-127z" />
    <glyph glyph-name="cacute" unicode="&#x107;" horiz-adv-x="1118" 
d="M580 98q145 0 227 75.5t125 234.5l112 -43q-44 -185 -164 -285t-300 -100q-222 0 -360 141t-138 371q-2 105 37.5 199.5t106 160.5t155.5 103.5t182 35.5q173 0 285 -88t153 -254l-118 -37q-70 260 -322 260q-63 0 -124 -24.5t-111.5 -70t-81.5 -119.5t-31 -164
q0 -176 108.5 -286t258.5 -110zM500 1137l182 272h195v-25l-250 -247h-127z" />
    <glyph glyph-name="Ccircumflex" unicode="&#x108;" horiz-adv-x="1574" 
d="M250 717q0 -282 152.5 -444t400.5 -162q256 0 387 125t190 344l121 -50q-59 -249 -237 -399q-180 -151 -459 -151q-158 0 -290.5 56t-223.5 154t-142 234t-51 293q-2 152 52 289.5t148 237t226.5 156.5t280.5 54q256 0 407 -133q154 -133 215 -340l-133 -59
q-43 187 -171 294t-320 107q-239 0 -396 -166.5t-157 -439.5zM500 1599v25l235 211h115l235 -211v-25h-157l-135 156l-136 -156h-157z" />
    <glyph glyph-name="ccircumflex" unicode="&#x109;" horiz-adv-x="1118" 
d="M580 98q145 0 227 75.5t125 234.5l112 -43q-44 -185 -164 -285t-300 -100q-222 0 -360 141t-138 371q-2 105 37.5 199.5t106 160.5t155.5 103.5t182 35.5q173 0 285 -88t153 -254l-118 -37q-70 260 -322 260q-63 0 -124 -24.5t-111.5 -70t-81.5 -119.5t-31 -164
q0 -176 108.5 -286t258.5 -110zM270 1137v24l236 211h115l235 -211v-24h-158l-135 155l-135 -155h-158z" />
    <glyph glyph-name="Cdotaccent" unicode="&#x10a;" horiz-adv-x="1574" 
d="M250 717q0 -282 152.5 -444t400.5 -162q256 0 387 125t190 344l121 -50q-59 -249 -237 -399q-180 -151 -459 -151q-158 0 -290.5 56t-223.5 154t-142 234t-51 293q-2 152 52 289.5t148 237t226.5 156.5t280.5 54q256 0 407 -133q154 -133 215 -340l-133 -59
q-43 187 -171 294t-320 107q-239 0 -396 -166.5t-157 -439.5zM717 1802h151v-170h-151v170z" />
    <glyph glyph-name="cdotaccent" unicode="&#x10b;" horiz-adv-x="1118" 
d="M580 98q145 0 227 75.5t125 234.5l112 -43q-44 -185 -164 -285t-300 -100q-222 0 -360 141t-138 371q-2 105 37.5 199.5t106 160.5t155.5 103.5t182 35.5q173 0 285 -88t153 -254l-118 -37q-70 260 -322 260q-63 0 -124 -24.5t-111.5 -70t-81.5 -119.5t-31 -164
q0 -176 108.5 -286t258.5 -110zM487 1169v170h152v-170h-152z" />
    <glyph glyph-name="Ccaron" unicode="&#x10c;" horiz-adv-x="1574" 
d="M250 717q0 -282 152.5 -444t400.5 -162q256 0 387 125t190 344l121 -50q-59 -249 -237 -399q-180 -151 -459 -151q-158 0 -290.5 56t-223.5 154t-142 234t-51 293q-2 152 52 289.5t148 237t226.5 156.5t280.5 54q256 0 407 -133q154 -133 215 -340l-133 -59
q-43 187 -171 294t-320 107q-239 0 -396 -166.5t-157 -439.5zM735 1599l-235 211v25h157l136 -156l135 156h157v-25l-235 -211h-115z" />
    <glyph glyph-name="ccaron" unicode="&#x10d;" horiz-adv-x="1118" 
d="M580 98q145 0 227 75.5t125 234.5l112 -43q-44 -185 -164 -285t-300 -100q-222 0 -360 141t-138 371q-2 105 37.5 199.5t106 160.5t155.5 103.5t182 35.5q173 0 285 -88t153 -254l-118 -37q-70 260 -322 260q-63 0 -124 -24.5t-111.5 -70t-81.5 -119.5t-31 -164
q0 -176 108.5 -286t258.5 -110zM516 1137l-235 211v24h157l135 -155l136 155h157v-24l-235 -211h-115z" />
    <glyph glyph-name="Dcaron" unicode="&#x10e;" horiz-adv-x="1480" 
d="M164 0v1434h522q217 0 375.5 -92t239.5 -253t81 -372t-81 -372t-239.5 -253t-375.5 -92h-522zM307 1303v-1172h379q262 0 407.5 155t145.5 431t-145.5 431t-407.5 155h-379zM526 1599l-235 211v25h158l135 -156l135 156h158v-25l-236 -211h-115z" />
    <glyph glyph-name="dcaron" unicode="&#x10f;" horiz-adv-x="1312" 
d="M82 479q0 227 129 369.5t321 142.5q111 0 205.5 -54t145.5 -146v643h131v-1434h-123v188q-60 -97 -148.5 -152.5t-201.5 -55.5q-198 0 -328.5 136.5t-130.5 362.5zM891 483q0 89 -30.5 164.5t-79.5 123.5t-109 74.5t-121 26.5q-63 0 -122.5 -25t-108 -72t-78 -123
t-29.5 -169t29.5 -168.5t78.5 -121.5t108 -70.5t122 -24.5q61 0 121 26t109 73.5t79.5 122t30.5 163.5zM1102 1049v88h55q30 0 49 15.5t19 43.5q0 27 -19 44t-53 17h-16v177h176v-228q0 -76 -41.5 -116.5t-110.5 -40.5h-59z" />
    <glyph glyph-name="Dcroat" unicode="&#x110;" horiz-adv-x="1480" 
d="M164 0v1434h522q217 0 375.5 -92t239.5 -253t81 -372t-81 -372t-239.5 -253t-375.5 -92h-522zM307 1303v-1172h379q262 0 407.5 155t145.5 431t-145.5 431t-407.5 155h-379zM-2 776h725v-119h-725v119z" />
    <glyph glyph-name="dslash" unicode="&#x111;" horiz-adv-x="1157" 
d="M82 479q0 227 129 369.5t321 142.5q111 0 205.5 -54t145.5 -146v643h131v-1434h-123v188q-60 -97 -148.5 -152.5t-201.5 -55.5q-198 0 -328.5 136.5t-130.5 362.5zM891 483q0 89 -30.5 164.5t-79.5 123.5t-109 74.5t-121 26.5q-63 0 -122.5 -25t-108 -72t-78 -123
t-29.5 -169t29.5 -168.5t78.5 -121.5t108 -70.5t122 -24.5q61 0 121 26t109 73.5t79.5 122t30.5 163.5zM557 1276h600v-107h-600v107z" />
    <glyph glyph-name="Emacron" unicode="&#x112;" horiz-adv-x="1273" 
d="M164 1434h966v-131h-823v-496h762v-131h-762v-545h844v-131h-987v1434zM393 1782h508v-119h-508v119z" />
    <glyph glyph-name="emacron" unicode="&#x113;" horiz-adv-x="1044" 
d="M856 334l115 -45q-107 -309 -416 -309q-206 0 -339.5 140.5t-133.5 371.5q0 137 57.5 251t162 181t233.5 67q195 0 309 -106.5t114 -290.5q0 -56 -14 -127h-723q1 -171 92.5 -270t239.5 -99q230 0 303 236zM221 573h606l2 43q0 120 -84.5 188t-212.5 68
q-125 0 -211.5 -81.5t-99.5 -217.5zM276 1319h508v-119h-508v119z" />
    <glyph glyph-name="Ebreve" unicode="&#x114;" horiz-adv-x="1273" 
d="M164 1434h966v-131h-823v-496h762v-131h-762v-545h844v-131h-987v1434zM889 1819q0 -103 -67 -160t-175 -57t-174.5 57t-66.5 160q0 20 2 26h118l-2 -22q0 -52 33.5 -83.5t89.5 -31.5t89.5 31.5t33.5 83.5l-2 22h119q2 -6 2 -26z" />
    <glyph glyph-name="ebreve" unicode="&#x115;" horiz-adv-x="1044" 
d="M856 334l115 -45q-107 -309 -416 -309q-206 0 -339.5 140.5t-133.5 371.5q0 137 57.5 251t162 181t233.5 67q195 0 309 -106.5t114 -290.5q0 -56 -14 -127h-723q1 -171 92.5 -270t239.5 -99q230 0 303 236zM221 573h606l2 43q0 120 -84.5 188t-212.5 68
q-125 0 -211.5 -81.5t-99.5 -217.5zM774 1356q0 -103 -67 -160t-175 -57t-174.5 57t-66.5 160q0 20 2 26h119l-2 -22q0 -52 33 -83.5t89 -31.5t89.5 31.5t33.5 83.5l-2 22h119q2 -6 2 -26z" />
    <glyph glyph-name="Edotaccent" unicode="&#x116;" horiz-adv-x="1273" 
d="M164 1434h966v-131h-823v-496h762v-131h-762v-545h844v-131h-987v1434zM571 1802h152v-170h-152v170z" />
    <glyph glyph-name="edotaccent" unicode="&#x117;" horiz-adv-x="1044" 
d="M856 334l115 -45q-107 -309 -416 -309q-206 0 -339.5 140.5t-133.5 371.5q0 137 57.5 251t162 181t233.5 67q195 0 309 -106.5t114 -290.5q0 -56 -14 -127h-723q1 -171 92.5 -270t239.5 -99q230 0 303 236zM221 573h606l2 43q0 120 -84.5 188t-212.5 68
q-125 0 -211.5 -81.5t-99.5 -217.5zM459 1169v170h151v-170h-151z" />
    <glyph glyph-name="Eogonek" unicode="&#x118;" horiz-adv-x="1273" 
d="M164 1434h966v-131h-823v-496h762v-131h-762v-545h844v-131h-987v1434zM1081 -379q-79 0 -127.5 46.5t-48.5 119.5q0 125 137 213h109q-135 -76 -135 -172q0 -38 26.5 -63t67.5 -25q32 0 74 22l45 -104q-67 -37 -148 -37z" />
    <glyph glyph-name="eogonek" unicode="&#x119;" horiz-adv-x="1044" 
d="M856 334l115 -45q-107 -309 -416 -309q-206 0 -339.5 140.5t-133.5 371.5q0 137 57.5 251t162 181t233.5 67q195 0 309 -106.5t114 -290.5q0 -56 -14 -127h-723q1 -171 92.5 -270t239.5 -99q230 0 303 236zM221 573h606l2 43q0 120 -84.5 188t-212.5 68
q-125 0 -211.5 -81.5t-99.5 -217.5zM600 -379q-79 0 -127.5 46.5t-48.5 119.5q0 125 137 213h109q-135 -76 -135 -172q0 -38 26.5 -63t67.5 -25q31 0 73 22l46 -104q-67 -37 -148 -37z" />
    <glyph glyph-name="Ecaron" unicode="&#x11a;" horiz-adv-x="1273" 
d="M164 1434h966v-131h-823v-496h762v-131h-762v-545h844v-131h-987v1434zM590 1599l-236 211v25h158l135 -156l135 156h158v-25l-235 -211h-115z" />
    <glyph glyph-name="ecaron" unicode="&#x11b;" horiz-adv-x="1044" 
d="M856 334l115 -45q-107 -309 -416 -309q-206 0 -339.5 140.5t-133.5 371.5q0 137 57.5 251t162 181t233.5 67q195 0 309 -106.5t114 -290.5q0 -56 -14 -127h-723q1 -171 92.5 -270t239.5 -99q230 0 303 236zM221 573h606l2 43q0 120 -84.5 188t-212.5 68
q-125 0 -211.5 -81.5t-99.5 -217.5zM487 1137l-235 211v24h158l135 -155l135 155h158v-24l-236 -211h-115z" />
    <glyph glyph-name="Gcircumflex" unicode="&#x11c;" horiz-adv-x="1607" 
d="M797 -20q-144 -3 -274.5 53t-224.5 154t-148 236.5t-52 293.5q-3 203 91.5 374t259 269t358.5 94q272 0 441.5 -126.5t221.5 -356.5l-133 -49q-57 206 -186.5 303.5t-345.5 97.5q-114 0 -215.5 -44.5t-176.5 -122.5t-119 -192t-44 -247q0 -178 67.5 -314.5t197.5 -214
t306 -77.5q106 -2 199 43.5t154 117.5t98.5 156t42.5 164h-686v131h856v-723h-123v342q-101 -187 -235 -274.5t-330 -87.5zM512 1599v25l236 211h114l236 -211v-25h-158l-135 156l-135 -156h-158z" />
    <glyph glyph-name="gcircumflex" unicode="&#x11d;" horiz-adv-x="1167" 
d="M143 -131l119 51q41 -121 113.5 -174t197.5 -53q153 0 236.5 99.5t83.5 283.5v114q-51 -89 -141.5 -139.5t-210.5 -50.5q-93 0 -176.5 35t-146 96.5t-99.5 152.5t-37 197q0 224 131 367t326 143q234 0 354 -182v162h131v-881q0 -227 -117 -371q-118 -145 -334 -145
q-345 0 -430 295zM901 494q0 165 -96 271.5t-244 106.5q-152 0 -250 -106t-98 -289q0 -165 96.5 -261.5t251.5 -96.5q148 0 244 105t96 270zM289 1137v24l235 211h115l235 -211v-24h-157l-135 155l-136 -155h-157z" />
    <glyph glyph-name="Gbreve" unicode="&#x11e;" horiz-adv-x="1607" 
d="M797 -20q-144 -3 -274.5 53t-224.5 154t-148 236.5t-52 293.5q-3 203 91.5 374t259 269t358.5 94q272 0 441.5 -126.5t221.5 -356.5l-133 -49q-57 206 -186.5 303.5t-345.5 97.5q-114 0 -215.5 -44.5t-176.5 -122.5t-119 -192t-44 -247q0 -178 67.5 -314.5t197.5 -214
t306 -77.5q106 -2 199 43.5t154 117.5t98.5 156t42.5 164h-686v131h856v-723h-123v342q-101 -187 -235 -274.5t-330 -87.5zM1044 1819q0 -103 -66.5 -160t-174.5 -57t-175 57t-67 160q0 20 2 26h119l-2 -22q0 -52 33.5 -83.5t89.5 -31.5t89.5 31.5t33.5 83.5l-2 22h118
q2 -6 2 -26z" />
    <glyph glyph-name="gbreve" unicode="&#x11f;" horiz-adv-x="1167" 
d="M143 -131l119 51q41 -121 113.5 -174t197.5 -53q153 0 236.5 99.5t83.5 283.5v114q-51 -89 -141.5 -139.5t-210.5 -50.5q-93 0 -176.5 35t-146 96.5t-99.5 152.5t-37 197q0 224 131 367t326 143q234 0 354 -182v162h131v-881q0 -227 -117 -371q-118 -145 -334 -145
q-345 0 -430 295zM901 494q0 165 -96 271.5t-244 106.5q-152 0 -250 -106t-98 -289q0 -165 96.5 -261.5t251.5 -96.5q148 0 244 105t96 270zM821 1356q0 -103 -66.5 -160t-174.5 -57t-175 57t-67 160q0 20 2 26h119l-2 -22q0 -52 33.5 -83.5t89.5 -31.5t89 31.5t33 83.5
l-2 22h119q2 -6 2 -26z" />
    <glyph glyph-name="Gdotaccent" unicode="&#x120;" horiz-adv-x="1607" 
d="M797 -20q-144 -3 -274.5 53t-224.5 154t-148 236.5t-52 293.5q-3 203 91.5 374t259 269t358.5 94q272 0 441.5 -126.5t221.5 -356.5l-133 -49q-57 206 -186.5 303.5t-345.5 97.5q-114 0 -215.5 -44.5t-176.5 -122.5t-119 -192t-44 -247q0 -178 67.5 -314.5t197.5 -214
t306 -77.5q106 -2 199 43.5t154 117.5t98.5 156t42.5 164h-686v131h856v-723h-123v342q-101 -187 -235 -274.5t-330 -87.5zM729 1802h152v-170h-152v170z" />
    <glyph glyph-name="gdotaccent" unicode="&#x121;" horiz-adv-x="1167" 
d="M143 -131l119 51q41 -121 113.5 -174t197.5 -53q153 0 236.5 99.5t83.5 283.5v114q-51 -89 -141.5 -139.5t-210.5 -50.5q-93 0 -176.5 35t-146 96.5t-99.5 152.5t-37 197q0 224 131 367t326 143q234 0 354 -182v162h131v-881q0 -227 -117 -371q-118 -145 -334 -145
q-345 0 -430 295zM901 494q0 165 -96 271.5t-244 106.5q-152 0 -250 -106t-98 -289q0 -165 96.5 -261.5t251.5 -96.5q148 0 244 105t96 270zM506 1169v170h151v-170h-151z" />
    <glyph glyph-name="Gcommaaccent" unicode="&#x122;" horiz-adv-x="1607" 
d="M797 -20q-144 -3 -274.5 53t-224.5 154t-148 236.5t-52 293.5q-3 203 91.5 374t259 269t358.5 94q272 0 441.5 -126.5t221.5 -356.5l-133 -49q-57 206 -186.5 303.5t-345.5 97.5q-114 0 -215.5 -44.5t-176.5 -122.5t-119 -192t-44 -247q0 -178 67.5 -314.5t197.5 -214
t306 -77.5q106 -2 199 43.5t154 117.5t98.5 156t42.5 164h-686v131h856v-723h-123v342q-101 -187 -235 -274.5t-330 -87.5zM664 -467l14 68q42 -17 72 -17q73 0 73 70q0 63 -82 63h-16v177h176v-224q0 -80 -38 -116.5t-115 -36.5q-41 0 -84 16z" />
    <glyph glyph-name="gcommaaccent" unicode="&#x123;" horiz-adv-x="1167" 
d="M143 -131l119 51q41 -121 113.5 -174t197.5 -53q153 0 236.5 99.5t83.5 283.5v114q-51 -89 -141.5 -139.5t-210.5 -50.5q-93 0 -176.5 35t-146 96.5t-99.5 152.5t-37 197q0 224 131 367t326 143q234 0 354 -182v162h131v-881q0 -227 -117 -371q-118 -145 -334 -145
q-345 0 -430 295zM901 494q0 165 -96 271.5t-244 106.5q-152 0 -250 -106t-98 -289q0 -165 96.5 -261.5t251.5 -96.5q148 0 244 105t96 270zM633 1110h-176v227q0 76 41 117t110 41h72v-88h-68q-30 0 -48.5 -15.5t-18.5 -43.5q0 -27 18.5 -44.5t52.5 -17.5h17v-176z" />
    <glyph glyph-name="Hcircumflex" unicode="&#x124;" horiz-adv-x="1490" 
d="M1184 641h-877v-641h-143v1434h143v-662h877v662h143v-1434h-143v641zM453 1599v25l235 211h115l235 -211v-25h-157l-136 156l-135 -156h-157z" />
    <glyph glyph-name="hcircumflex" unicode="&#x125;" horiz-adv-x="1110" 
d="M274 0h-131v1434h131v-676q43 106 138.5 169.5t212.5 63.5q159 0 250.5 -100.5t91.5 -276.5v-614h-131v602q0 132 -63 201t-177 69q-137 0 -229.5 -111t-92.5 -276v-485zM-84 1599v25l236 211h114l236 -211v-25h-158l-135 156l-135 -156h-158z" />
    <glyph glyph-name="Hbar" unicode="&#x126;" horiz-adv-x="1490" 
d="M1184 641h-877v-641h-143v1434h143v-662h877v662h143v-1434h-143v641zM4 1063v119h1483v-119h-1483z" />
    <glyph glyph-name="hbar" unicode="&#x127;" horiz-adv-x="1110" 
d="M274 0h-131v1434h131v-676q43 106 138.5 169.5t212.5 63.5q159 0 250.5 -100.5t91.5 -276.5v-614h-131v602q0 132 -63 201t-177 69q-137 0 -229.5 -111t-92.5 -276v-485zM0 1276h600v-107h-600v107z" />
    <glyph glyph-name="Itilde" unicode="&#x128;" horiz-adv-x="471" 
d="M164 0v1434h143v-1434h-143zM211 1677q-28 27 -50 38t-52 11q-32 0 -54 -20.5t-22 -54.5q0 -17 6 -35l-105 12q-4 16 -4 35q0 72 52 119t127 47q50 0 78.5 -13.5t72.5 -48.5q28 -27 50 -38t52 -11q31 0 53.5 21t22.5 53q0 19 -6 37l105 -12q4 -16 4 -35q0 -72 -52 -119
t-127 -47q-50 0 -79 13t-72 48z" />
    <glyph glyph-name="itilde" unicode="&#x129;" horiz-adv-x="417" 
d="M143 971h131v-971h-131v971zM184 1214q-29 27 -50.5 38.5t-51.5 11.5q-32 0 -54 -21t-22 -55q0 -17 6 -35l-104 12q-4 16 -4 35q0 72 51.5 119t126.5 47q50 0 79 -13t72 -48q29 -27 51 -38.5t52 -11.5q31 0 53.5 21t22.5 53q0 19 -6 37l104 -12q4 -16 4 -35
q0 -72 -51.5 -119t-126.5 -47q-50 0 -79.5 13t-72.5 48z" />
    <glyph glyph-name="Imacron" unicode="&#x12a;" horiz-adv-x="471" 
d="M164 0v1434h143v-1434h-143zM-18 1782h507v-119h-507v119z" />
    <glyph glyph-name="imacron" unicode="&#x12b;" horiz-adv-x="417" 
d="M143 971h131v-971h-131v971zM-49 1319h508v-119h-508v119z" />
    <glyph glyph-name="Ibreve" unicode="&#x12c;" horiz-adv-x="471" 
d="M164 0v1434h143v-1434h-143zM477 1819q0 -103 -66.5 -160t-174.5 -57t-175 57t-67 160q0 20 2 26h119l-2 -22q0 -52 33.5 -83.5t89.5 -31.5t89 31.5t33 83.5l-2 22h119q2 -6 2 -26z" />
    <glyph glyph-name="ibreve" unicode="&#x12d;" horiz-adv-x="417" 
d="M143 971h131v-971h-131v971zM449 1356q0 -103 -67 -160t-175 -57t-175 57t-67 160q0 20 2 26h119l-2 -22q0 -52 33.5 -83.5t89.5 -31.5t89.5 31.5t33.5 83.5l-2 22h118q3 -9 3 -26z" />
    <glyph glyph-name="Iogonek" unicode="&#x12e;" horiz-adv-x="471" 
d="M164 0v1434h143v-1434h-143zM238 -379q-79 0 -128 46.5t-49 119.5q0 125 138 213h108q-135 -76 -135 -172q0 -38 26.5 -63t67.5 -25q32 0 74 22l45 -104q-67 -37 -147 -37z" />
    <glyph glyph-name="iogonek" unicode="&#x12f;" horiz-adv-x="417" 
d="M143 971h131v-971h-131v971zM133 1169v170h152v-170h-152zM205 -379q-79 0 -127.5 46.5t-48.5 119.5q0 125 137 213h108q-135 -76 -135 -172q0 -38 26.5 -63t67.5 -25q32 0 74 22l45 -104q-67 -37 -147 -37z" />
    <glyph glyph-name="Idot" unicode="&#x130;" horiz-adv-x="471" 
d="M164 0v1434h143v-1434h-143zM160 1802h151v-170h-151v170z" />
    <glyph glyph-name="dotlessi" unicode="&#x131;" horiz-adv-x="417" 
d="M143 971h131v-971h-131v971z" />
    <glyph glyph-name="IJ" unicode="&#x132;" horiz-adv-x="1685" 
d="M164 0v1434h143v-1434h-143zM1391 1434h143v-957q0 -105 -29.5 -194.5t-86.5 -157.5t-146.5 -106.5t-202.5 -38.5q-220 0 -355.5 125t-135.5 329q0 151 51 250l133 -51q-41 -90 -41 -195q0 -149 92.5 -238t255.5 -89q161 0 241.5 101t80.5 310v912z" />
    <glyph glyph-name="ij" unicode="&#x133;" horiz-adv-x="835" 
d="M143 971h131v-971h-131v971zM133 1169v170h152v-170h-152zM561 -406v1377h131v-1377h-131zM551 1169v170h151v-170h-151z" />
    <glyph glyph-name="Jcircumflex" unicode="&#x134;" horiz-adv-x="1214" 
d="M920 1434h143v-957q0 -105 -29.5 -194.5t-86.5 -157.5t-146.5 -106.5t-202.5 -38.5q-220 0 -356 125t-136 329q0 149 52 250l133 -51q-41 -90 -41 -195q0 -149 92.5 -238t255.5 -89q161 0 241.5 101t80.5 310v912zM698 1599v25l236 211h115l235 -211v-25h-158l-135 156
l-135 -156h-158z" />
    <glyph glyph-name="jcircumflex" unicode="&#x135;" horiz-adv-x="417" 
d="M143 -406v1377h131v-1377h-131zM-84 1137v24l236 211h114l236 -211v-24h-158l-135 155l-135 -155h-158z" />
    <glyph glyph-name="Kcommaaccent" unicode="&#x136;" horiz-adv-x="1337" 
d="M733 874l547 -874h-164l-475 772l-334 -352v-420h-143v1434h143v-832l774 832h176zM561 -467l14 68q43 -17 72 -17q74 0 74 70q0 63 -82 63h-16v177h176v-224q0 -80 -38.5 -116.5t-115.5 -36.5q-41 0 -84 16z" />
    <glyph glyph-name="kcommaaccent" unicode="&#x137;" horiz-adv-x="1005" 
d="M549 584l405 -584h-166l-331 481l-183 -194v-287h-131v1434h131v-977l471 514h164zM360 -467l15 68q43 -17 71 -17q74 0 74 70q0 63 -82 63h-16v177h176v-224q0 -80 -38.5 -116.5t-115.5 -36.5q-41 0 -84 16z" />
    <glyph glyph-name="kgreenlandic" unicode="&#x138;" horiz-adv-x="909" 
d="M143 0v971h131v-432l404 432h164l-441 -459l457 -512h-160l-424 477v-477h-131z" />
    <glyph glyph-name="Lacute" unicode="&#x139;" horiz-adv-x="1294" 
d="M164 1434h143v-1303h897v-131h-1040v1434zM172 1599l182 273h195v-25l-250 -248h-127z" />
    <glyph glyph-name="lacute" unicode="&#x13a;" horiz-adv-x="417" 
d="M143 0v1434h131v-1434h-131zM145 1599l183 273h194v-25l-250 -248h-127z" />
    <glyph glyph-name="Lcommaaccent" unicode="&#x13b;" horiz-adv-x="1294" 
d="M164 1434h143v-1303h897v-131h-1040v1434zM514 -467l14 68q42 -17 72 -17q74 0 74 70q0 63 -82 63h-17v177h177v-224q0 -80 -38.5 -116.5t-115.5 -36.5q-41 0 -84 16z" />
    <glyph glyph-name="lcommaaccent" unicode="&#x13c;" horiz-adv-x="417" 
d="M143 0v1434h131v-1434h-131zM59 -467l15 68q43 -17 71 -17q74 0 74 70q0 63 -82 63h-16v177h176v-224q0 -80 -38.5 -116.5t-115.5 -36.5q-41 0 -84 16z" />
    <glyph glyph-name="Lcaron" unicode="&#x13d;" horiz-adv-x="1294" 
d="M164 1434h143v-1303h897v-131h-1040v1434zM993 1049v88h56q30 0 48.5 15.5t18.5 43.5q0 27 -19 44t-53 17h-16v177h176v-228q0 -76 -41 -116.5t-110 -40.5h-60z" />
    <glyph glyph-name="lcaron" unicode="&#x13e;" horiz-adv-x="573" 
d="M143 0v1434h131v-1434h-131zM362 1049v88h56q30 0 48.5 15.5t18.5 43.5q0 27 -18.5 44t-52.5 17h-17v177h176v-228q0 -76 -41 -116.5t-110 -40.5h-60z" />
    <glyph glyph-name="Ldot" unicode="&#x13f;" horiz-adv-x="1228" 
d="M164 1434h143v-1303h897v-131h-1040v1434zM799 805h176v-176h-176v176z" />
    <glyph glyph-name="ldot" unicode="&#x140;" horiz-adv-x="782" 
d="M143 0v1434h131v-1434h-131zM512 805h176v-176h-176v176z" />
    <glyph glyph-name="Lslash" unicode="&#x141;" horiz-adv-x="1294" 
d="M164 1434h143v-1303h897v-131h-1040v1434zM41 543l-55 104l569 297l55 -104z" />
    <glyph glyph-name="lslash" unicode="&#x142;" horiz-adv-x="417" 
d="M143 0v1434h131v-1434h-131zM-10 553l-56 104l494 254l55 -104z" />
    <glyph glyph-name="Nacute" unicode="&#x143;" horiz-adv-x="1554" 
d="M307 1341v-1341h-143v1434h244l839 -1342v1342h144v-1434h-244zM715 1599l182 273h195v-25l-250 -248h-127z" />
    <glyph glyph-name="nacute" unicode="&#x144;" horiz-adv-x="1097" 
d="M274 0h-131v971h131v-178q53 90 141 144t195 54q161 0 252.5 -95.5t91.5 -270.5v-625h-131v596q0 276 -250 276q-124 0 -211.5 -97t-87.5 -251v-524zM504 1137l182 272h195v-25l-250 -247h-127z" />
    <glyph glyph-name="Ncommaaccent" unicode="&#x145;" horiz-adv-x="1554" 
d="M307 1341v-1341h-143v1434h244l839 -1342v1342h144v-1434h-244zM629 -467l14 68q42 -17 72 -17q73 0 73 70q0 63 -81 63h-17v177h176v-224q0 -80 -38 -116.5t-115 -36.5q-41 0 -84 16z" />
    <glyph glyph-name="ncommaaccent" unicode="&#x146;" horiz-adv-x="1097" 
d="M274 0h-131v971h131v-178q53 90 141 144t195 54q161 0 252.5 -95.5t91.5 -270.5v-625h-131v596q0 276 -250 276q-124 0 -211.5 -97t-87.5 -251v-524zM397 -467l15 68q42 -17 71 -17q74 0 74 70q0 63 -82 63h-16v177h176v-224q0 -80 -38.5 -116.5t-115.5 -36.5
q-41 0 -84 16z" />
    <glyph glyph-name="Ncaron" unicode="&#x147;" horiz-adv-x="1554" 
d="M307 1341v-1341h-143v1434h244l839 -1342v1342h144v-1434h-244zM721 1599l-236 211v25h158l135 -156l135 156h158v-25l-235 -211h-115z" />
    <glyph glyph-name="ncaron" unicode="&#x148;" horiz-adv-x="1097" 
d="M274 0h-131v971h131v-178q53 90 141 144t195 54q161 0 252.5 -95.5t91.5 -270.5v-625h-131v596q0 276 -250 276q-124 0 -211.5 -97t-87.5 -251v-524zM520 1137l-235 211v24h157l136 -155l135 155h157v-24l-235 -211h-115z" />
    <glyph glyph-name="Eng" unicode="&#x14a;" horiz-adv-x="1554" 
d="M750 -188l124 55q55 -162 201 -162q79 0 125.5 54t46.5 151v90h-100l-840 1341v-1341h-143v1434h244l839 -1342v1342h144v-1516q0 -165 -83.5 -254.5t-232.5 -89.5q-122 0 -208.5 65t-116.5 173z" />
    <glyph glyph-name="eng" unicode="&#x14b;" horiz-adv-x="1097" 
d="M473 -250l123 55q10 -54 40.5 -83t74.5 -29q58 0 85 33t27 110v760q0 276 -250 276q-124 0 -211.5 -97t-87.5 -251v-524h-131v971h131v-178q53 90 141 144t195 54q161 0 252.5 -95.5t91.5 -270.5v-779q0 -134 -61.5 -203t-179.5 -69q-90 0 -153.5 47t-86.5 129z" />
    <glyph glyph-name="Omacron" unicode="&#x14c;" horiz-adv-x="1658" 
d="M829 1454q153 3 290.5 -55.5t234.5 -159t153 -237.5t54 -285q2 -149 -54 -286t-153 -237t-234.5 -158.5t-290.5 -55.5q-153 -3 -290 55.5t-234 158.5t-153 237t-54 286q-2 148 54 285t153 237.5t234 159t290 55.5zM829 111q255 0 417.5 167t162.5 439q0 273 -162 439.5
t-418 166.5q-255 0 -417 -168t-162 -440q0 -179 76 -317.5t207.5 -212.5t295.5 -74zM575 1782h508v-119h-508v119z" />
    <glyph glyph-name="omacron" unicode="&#x14d;" horiz-adv-x="1130" 
d="M82 485q0 218 134 362t349 144t349.5 -144t134.5 -362t-135 -361.5t-349 -143.5t-348.5 143.5t-134.5 361.5zM909 485q0 170 -96.5 278.5t-247.5 108.5t-247.5 -108.5t-96.5 -278.5t96.5 -278.5t247.5 -108.5t247.5 108.5t96.5 278.5zM307 1319h508v-119h-508v119z" />
    <glyph glyph-name="Obreve" unicode="&#x14e;" horiz-adv-x="1658" 
d="M829 1454q153 3 290.5 -55.5t234.5 -159t153 -237.5t54 -285q2 -149 -54 -286t-153 -237t-234.5 -158.5t-290.5 -55.5q-153 -3 -290 55.5t-234 158.5t-153 237t-54 286q-2 148 54 285t153 237.5t234 159t290 55.5zM829 111q255 0 417.5 167t162.5 439q0 273 -162 439.5
t-418 166.5q-255 0 -417 -168t-162 -440q0 -179 76 -317.5t207.5 -212.5t295.5 -74zM1071 1819q0 -103 -67 -160t-175 -57t-174.5 57t-66.5 160q0 20 2 26h119l-2 -22q0 -52 33 -83.5t89 -31.5t89.5 31.5t33.5 83.5l-2 22h119q2 -6 2 -26z" />
    <glyph glyph-name="obreve" unicode="&#x14f;" horiz-adv-x="1130" 
d="M82 485q0 218 134 362t349 144t349.5 -144t134.5 -362t-135 -361.5t-349 -143.5t-348.5 143.5t-134.5 361.5zM909 485q0 170 -96.5 278.5t-247.5 108.5t-247.5 -108.5t-96.5 -278.5t96.5 -278.5t247.5 -108.5t247.5 108.5t96.5 278.5zM805 1356q0 -103 -67 -160t-175 -57
t-174.5 57t-66.5 160q0 20 2 26h118l-2 -22q0 -52 33.5 -83.5t89.5 -31.5t89.5 31.5t33.5 83.5l-2 22h119q2 -6 2 -26z" />
    <glyph glyph-name="Ohungarumlaut" unicode="&#x150;" horiz-adv-x="1658" 
d="M829 1454q153 3 290.5 -55.5t234.5 -159t153 -237.5t54 -285q2 -149 -54 -286t-153 -237t-234.5 -158.5t-290.5 -55.5q-153 -3 -290 55.5t-234 158.5t-153 237t-54 286q-2 148 54 285t153 237.5t234 159t290 55.5zM829 111q255 0 417.5 167t162.5 439q0 273 -162 439.5
t-418 166.5q-255 0 -417 -168t-162 -440q0 -179 76 -317.5t207.5 -212.5t295.5 -74zM600 1599l182 273h195v-25l-250 -248h-127zM932 1599l182 273h195v-25l-250 -248h-127z" />
    <glyph glyph-name="ohungarumlaut" unicode="&#x151;" horiz-adv-x="1130" 
d="M82 485q0 218 134 362t349 144t349.5 -144t134.5 -362t-135 -361.5t-349 -143.5t-348.5 143.5t-134.5 361.5zM909 485q0 170 -96.5 278.5t-247.5 108.5t-247.5 -108.5t-96.5 -278.5t96.5 -278.5t247.5 -108.5t247.5 108.5t96.5 278.5zM336 1137l182 272h195v-25
l-250 -247h-127zM668 1137l182 272h194v-25l-249 -247h-127z" />
    <glyph glyph-name="OE" unicode="&#x152;" horiz-adv-x="2527" 
d="M98 717q-2 148 54 285t153 237.5t234 159t290 55.5q190 0 345.5 -83t242.5 -226v289h967v-131h-823v-496h761v-131h-761v-545h843v-131h-987v291q-112 -158 -257 -234.5t-331 -76.5q-153 -3 -290 55.5t-234 158.5t-153 237t-54 286zM1409 717q0 273 -162 439.5
t-418 166.5q-255 0 -417 -168t-162 -440q0 -179 76 -317.5t207.5 -212.5t295.5 -74q255 0 417.5 167t162.5 439z" />
    <glyph glyph-name="oe" unicode="&#x153;" horiz-adv-x="1871" 
d="M82 481q0 220 134 365t349 145q135 0 242.5 -61t169.5 -168q61 108 160.5 168.5t224.5 60.5q195 0 309.5 -106.5t114.5 -290.5q0 -56 -14 -127h-723q1 -171 92 -270t239 -99q230 0 303 236l115 -45q-107 -309 -416 -309q-133 0 -237 59.5t-166 169.5
q-62 -110 -169 -169.5t-245 -59.5q-142 0 -252.5 65t-170.5 179t-60 257zM909 481q0 171 -96.5 281t-247.5 110t-247.5 -110t-96.5 -281q0 -172 95 -277.5t249 -105.5t249 105.5t95 277.5zM1049 573h606l2 43q0 120 -84.5 188t-212.5 68q-125 0 -211.5 -81.5t-99.5 -217.5z
" />
    <glyph glyph-name="Racute" unicode="&#x154;" horiz-adv-x="1353" 
d="M1251 0h-176q-22 43 -32 116t-15 212q-4 158 -79.5 226.5t-231.5 68.5h-410v-623h-143v1434h620q203 0 328 -114t125 -276q0 -132 -73 -223t-218 -135q119 -39 176 -124t58 -236q2 -124 16 -188.5t55 -112.5v-25zM307 754h463q144 0 228.5 73t84.5 201t-84.5 201.5
t-228.5 73.5h-463v-549zM539 1599l182 273h194v-25l-249 -248h-127z" />
    <glyph glyph-name="racute" unicode="&#x155;" horiz-adv-x="862" 
d="M143 971h131v-142q36 76 104 119t159 43q113 0 180 -73t67 -177q0 -56 -8 -92h-125q6 38 6 60q0 79 -45 121t-125 42q-98 0 -155.5 -78t-57.5 -206v-588h-131v971zM451 1137l182 272h194v-25l-249 -247h-127z" />
    <glyph glyph-name="Rcommaaccent" unicode="&#x156;" horiz-adv-x="1353" 
d="M1251 0h-176q-22 43 -32 116t-15 212q-4 158 -79.5 226.5t-231.5 68.5h-410v-623h-143v1434h620q203 0 328 -114t125 -276q0 -132 -73 -223t-218 -135q119 -39 176 -124t58 -236q2 -124 16 -188.5t55 -112.5v-25zM307 754h463q144 0 228.5 73t84.5 201t-84.5 201.5
t-228.5 73.5h-463v-549zM535 -467l14 68q43 -17 72 -17q73 0 73 70q0 63 -82 63h-16v177h176v-224q0 -80 -38.5 -116.5t-115.5 -36.5q-40 0 -83 16z" />
    <glyph glyph-name="rcommaaccent" unicode="&#x157;" horiz-adv-x="862" 
d="M143 971h131v-142q36 76 104 119t159 43q113 0 180 -73t67 -177q0 -56 -8 -92h-125q6 38 6 60q0 79 -45 121t-125 42q-98 0 -155.5 -78t-57.5 -206v-588h-131v971zM59 -467l15 68q43 -17 71 -17q74 0 74 70q0 63 -82 63h-16v177h176v-224q0 -80 -38.5 -116.5
t-115.5 -36.5q-41 0 -84 16z" />
    <glyph glyph-name="Rcaron" unicode="&#x158;" horiz-adv-x="1353" 
d="M1251 0h-176q-22 43 -32 116t-15 212q-4 158 -79.5 226.5t-231.5 68.5h-410v-623h-143v1434h620q203 0 328 -114t125 -276q0 -132 -73 -223t-218 -135q119 -39 176 -124t58 -236q2 -124 16 -188.5t55 -112.5v-25zM307 754h463q144 0 228.5 73t84.5 201t-84.5 201.5
t-228.5 73.5h-463v-549zM545 1599l-236 211v25h158l135 -156l135 156h158v-25l-236 -211h-114z" />
    <glyph glyph-name="rcaron" unicode="&#x159;" horiz-adv-x="862" 
d="M143 971h131v-142q36 76 104 119t159 43q113 0 180 -73t67 -177q0 -56 -8 -92h-125q6 38 6 60q0 79 -45 121t-125 42q-98 0 -155.5 -78t-57.5 -206v-588h-131v971zM467 1137l-236 211v24h158l135 -155l135 155h158v-24l-235 -211h-115z" />
    <glyph glyph-name="Sacute" unicode="&#x15a;" horiz-adv-x="1255" 
d="M616 1323q-135 0 -221 -62t-86 -176q0 -119 92.5 -186.5t294.5 -105.5q257 -49 369.5 -142.5t112.5 -253.5q0 -182 -147.5 -299.5t-368.5 -117.5q-210 0 -366 110t-226 326l125 78q52 -184 170 -283.5t299 -99.5q169 0 269.5 76t100.5 208q0 109 -87.5 173t-299.5 100
q-225 38 -353 143.5t-128 269.5q0 160 127.5 266.5t333.5 106.5q178 0 308 -86.5t185 -245.5l-127 -71q-43 135 -138.5 203.5t-238.5 68.5zM571 1599l183 273h194v-25l-250 -248h-127z" />
    <glyph glyph-name="sacute" unicode="&#x15b;" horiz-adv-x="962" 
d="M76 262l110 57q48 -118 119.5 -169.5t192.5 -51.5q107 0 174 48.5t67 129.5q0 78 -63.5 124.5t-212.5 64.5q-334 42 -334 270q0 113 94.5 184.5t243.5 71.5q253 0 342 -221l-104 -57q-26 83 -90 127.5t-152 44.5q-92 0 -151.5 -41t-59.5 -109q0 -72 65.5 -112.5
t212.5 -59.5q166 -20 253 -91.5t87 -184.5q0 -141 -108 -224q-109 -83 -273 -83q-155 0 -264.5 77t-148.5 205zM403 1137l183 272h194v-25l-250 -247h-127z" />
    <glyph glyph-name="Scircumflex" unicode="&#x15c;" horiz-adv-x="1255" 
d="M616 1323q-135 0 -221 -62t-86 -176q0 -119 92.5 -186.5t294.5 -105.5q257 -49 369.5 -142.5t112.5 -253.5q0 -182 -147.5 -299.5t-368.5 -117.5q-210 0 -366 110t-226 326l125 78q52 -184 170 -283.5t299 -99.5q169 0 269.5 76t100.5 208q0 109 -87.5 173t-299.5 100
q-225 38 -353 143.5t-128 269.5q0 160 127.5 266.5t333.5 106.5q178 0 308 -86.5t185 -245.5l-127 -71q-43 135 -138.5 203.5t-238.5 68.5zM342 1599v25l236 211h114l236 -211v-25h-158l-135 156l-135 -156h-158z" />
    <glyph glyph-name="scircumflex" unicode="&#x15d;" horiz-adv-x="962" 
d="M76 262l110 57q48 -118 119.5 -169.5t192.5 -51.5q107 0 174 48.5t67 129.5q0 78 -63.5 124.5t-212.5 64.5q-334 42 -334 270q0 113 94.5 184.5t243.5 71.5q253 0 342 -221l-104 -57q-26 83 -90 127.5t-152 44.5q-92 0 -151.5 -41t-59.5 -109q0 -72 65.5 -112.5
t212.5 -59.5q166 -20 253 -91.5t87 -184.5q0 -141 -108 -224q-109 -83 -273 -83q-155 0 -264.5 77t-148.5 205zM174 1137v24l236 211h114l236 -211v-24h-158l-135 155l-135 -155h-158z" />
    <glyph glyph-name="Scedilla" unicode="&#x15e;" horiz-adv-x="1255" 
d="M616 1323q-135 0 -221 -62t-86 -176q0 -119 92.5 -186.5t294.5 -105.5q257 -49 369.5 -142.5t112.5 -253.5q0 -182 -147.5 -299.5t-368.5 -117.5q-210 0 -366 110t-226 326l125 78q52 -184 170 -283.5t299 -99.5q169 0 269.5 76t100.5 208q0 109 -87.5 173t-299.5 100
q-225 38 -353 143.5t-128 269.5q0 160 127.5 266.5t333.5 106.5q178 0 308 -86.5t185 -245.5l-127 -71q-43 135 -138.5 203.5t-238.5 68.5zM657 -113q19 23 48.5 37.5t58.5 14.5q69 0 112.5 -43t43.5 -115q0 -74 -48 -120t-122 -46q-69 0 -118 36.5t-61 102.5l80 21
q6 -36 32.5 -59t64.5 -23q43 0 68.5 24.5t25.5 63.5q0 42 -25 66t-69 24q-27 0 -53 -15t-38 -38l-82 16q34 110 46 199h92q-33 -102 -56 -146z" />
    <glyph glyph-name="scedilla" unicode="&#x15f;" horiz-adv-x="962" 
d="M76 262l110 57q48 -118 119.5 -169.5t192.5 -51.5q107 0 174 48.5t67 129.5q0 78 -63.5 124.5t-212.5 64.5q-334 42 -334 270q0 113 94.5 184.5t243.5 71.5q253 0 342 -221l-104 -57q-26 83 -90 127.5t-152 44.5q-92 0 -151.5 -41t-59.5 -109q0 -72 65.5 -112.5
t212.5 -59.5q166 -20 253 -91.5t87 -184.5q0 -141 -108 -224q-109 -83 -273 -83q-155 0 -264.5 77t-148.5 205zM422 -113q19 23 48 37.5t58 14.5q69 0 112.5 -43t43.5 -115q0 -74 -48 -120t-122 -46q-69 0 -117.5 36.5t-60.5 102.5l80 21q6 -36 32 -59t64 -23
q43 0 68.5 24.5t25.5 63.5q0 42 -25 66t-69 24q-27 0 -52.5 -15t-37.5 -38l-82 16q32 104 45 199h92q-34 -107 -55 -146z" />
    <glyph glyph-name="Scaron" unicode="&#x160;" horiz-adv-x="1255" 
d="M616 1323q-135 0 -221 -62t-86 -176q0 -119 92.5 -186.5t294.5 -105.5q257 -49 369.5 -142.5t112.5 -253.5q0 -182 -147.5 -299.5t-368.5 -117.5q-210 0 -366 110t-226 326l125 78q52 -184 170 -283.5t299 -99.5q169 0 269.5 76t100.5 208q0 109 -87.5 173t-299.5 100
q-225 38 -353 143.5t-128 269.5q0 160 127.5 266.5t333.5 106.5q178 0 308 -86.5t185 -245.5l-127 -71q-43 135 -138.5 203.5t-238.5 68.5zM578 1599l-236 211v25h158l135 -156l135 156h158v-25l-236 -211h-114z" />
    <glyph glyph-name="scaron" unicode="&#x161;" horiz-adv-x="962" 
d="M76 262l110 57q48 -118 119.5 -169.5t192.5 -51.5q107 0 174 48.5t67 129.5q0 78 -63.5 124.5t-212.5 64.5q-334 42 -334 270q0 113 94.5 184.5t243.5 71.5q253 0 342 -221l-104 -57q-26 83 -90 127.5t-152 44.5q-92 0 -151.5 -41t-59.5 -109q0 -72 65.5 -112.5
t212.5 -59.5q166 -20 253 -91.5t87 -184.5q0 -141 -108 -224q-109 -83 -273 -83q-155 0 -264.5 77t-148.5 205zM420 1137l-236 211v24h158l135 -155l135 155h158v-24l-235 -211h-115z" />
    <glyph glyph-name="uni0162" unicode="&#x162;" horiz-adv-x="1363" 
d="M1294 1434v-131h-540v-1303h-144v1303h-540v131h1224zM680 -113q19 23 48 37.5t58 14.5q69 0 112.5 -43t43.5 -115q0 -74 -48 -120t-122 -46q-69 0 -117.5 36.5t-60.5 102.5l80 21q6 -36 32 -59t64 -23q43 0 68.5 24.5t25.5 63.5q0 42 -25 66t-69 24q-27 0 -52.5 -15
t-37.5 -38l-82 16q32 104 45 199h92q-34 -107 -55 -146z" />
    <glyph glyph-name="uni0163" unicode="&#x163;" horiz-adv-x="860" 
d="M246 268v596h-193v107h193v289h131v-289h325v-107h-325v-602q0 -78 39 -121t106 -43q63 0 101.5 33t58.5 105l117 -31q-59 -225 -277 -225q-132 0 -204 74t-72 214zM444 -113q19 23 48.5 37.5t58.5 14.5q69 0 112.5 -43t43.5 -115q0 -74 -48 -120t-122 -46
q-69 0 -118 36.5t-61 102.5l80 21q6 -36 32.5 -59t64.5 -23q43 0 68.5 24.5t25.5 63.5q0 42 -25 66t-69 24q-27 0 -53 -15t-38 -38l-82 16q34 110 46 199h92q-33 -102 -56 -146z" />
    <glyph glyph-name="Tcaron" unicode="&#x164;" horiz-adv-x="1363" 
d="M1294 1434v-131h-540v-1303h-144v1303h-540v131h1224zM625 1599l-236 211v25h158l135 -156l135 156h158v-25l-236 -211h-114z" />
    <glyph glyph-name="tcaron" unicode="&#x165;" horiz-adv-x="860" 
d="M246 268v596h-193v107h193v289h131v-289h325v-107h-325v-602q0 -78 39 -121t106 -43q63 0 101.5 33t58.5 105l117 -31q-59 -225 -277 -225q-132 0 -204 74t-72 214zM492 1081v88h55q30 0 48.5 15.5t18.5 44.5q0 27 -18.5 44t-52.5 17h-17v176h176v-227q0 -76 -41 -117
t-110 -41h-59z" />
    <glyph glyph-name="Tbar" unicode="&#x166;" horiz-adv-x="1363" 
d="M1294 1434v-131h-540v-1303h-144v1303h-540v131h1224zM319 776h725v-119h-725v119z" />
    <glyph glyph-name="tbar" unicode="&#x167;" horiz-adv-x="860" 
d="M246 268v596h-193v107h193v289h131v-289h325v-107h-325v-602q0 -78 39 -121t106 -43q63 0 101.5 33t58.5 105l117 -31q-59 -225 -277 -225q-132 0 -204 74t-72 214zM86 618h600v-106h-600v106z" />
    <glyph glyph-name="Utilde" unicode="&#x168;" horiz-adv-x="1470" 
d="M152 1434h143v-836q0 -233 113 -360t327 -127t327.5 127t113.5 360v836h143v-861q0 -260 -157 -426.5t-427 -166.5q-180 0 -313.5 78t-201.5 211.5t-68 303.5v861zM711 1677q-28 27 -50 38t-53 11q-32 0 -54 -20.5t-22 -54.5q0 -14 7 -35l-105 12q-4 16 -4 35
q0 72 51.5 119t126.5 47q50 0 79 -13.5t73 -48.5q28 -27 50 -38t52 -11q31 0 53.5 21t22.5 53q0 19 -6 37l104 -12q4 -16 4 -35q0 -72 -51.5 -119t-126.5 -47q-50 0 -79 13t-72 48z" />
    <glyph glyph-name="utilde" unicode="&#x169;" horiz-adv-x="1097" 
d="M823 971h131v-971h-131v178q-53 -90 -141 -144t-195 -54q-161 0 -252.5 95.5t-91.5 270.5v625h131v-596q0 -277 250 -277q124 0 211.5 97t87.5 251v525zM524 1214q-29 27 -50.5 38.5t-51.5 11.5q-32 0 -54 -21t-22 -55q0 -17 6 -35l-104 12q-4 16 -4 35q0 72 51.5 119
t126.5 47q50 0 79 -13t72 -48q29 -27 51 -38.5t52 -11.5q31 0 53.5 21t22.5 53q0 16 -7 37l105 -12q4 -16 4 -35q0 -72 -51.5 -119t-126.5 -47q-50 0 -79.5 13t-72.5 48z" />
    <glyph glyph-name="Umacron" unicode="&#x16a;" horiz-adv-x="1470" 
d="M152 1434h143v-836q0 -233 113 -360t327 -127t327.5 127t113.5 360v836h143v-861q0 -260 -157 -426.5t-427 -166.5q-180 0 -313.5 78t-201.5 211.5t-68 303.5v861zM481 1782h508v-119h-508v119z" />
    <glyph glyph-name="umacron" unicode="&#x16b;" horiz-adv-x="1097" 
d="M823 971h131v-971h-131v178q-53 -90 -141 -144t-195 -54q-161 0 -252.5 95.5t-91.5 270.5v625h131v-596q0 -277 250 -277q124 0 211.5 97t87.5 251v525zM291 1319h508v-119h-508v119z" />
    <glyph glyph-name="Ubreve" unicode="&#x16c;" horiz-adv-x="1470" 
d="M152 1434h143v-836q0 -233 113 -360t327 -127t327.5 127t113.5 360v836h143v-861q0 -260 -157 -426.5t-427 -166.5q-180 0 -313.5 78t-201.5 211.5t-68 303.5v861zM977 1819q0 -103 -67 -160t-175 -57t-174.5 57t-66.5 160q0 20 2 26h118l-2 -22q0 -52 33.5 -83.5
t89.5 -31.5t89.5 31.5t33.5 83.5l-2 22h119q2 -6 2 -26z" />
    <glyph glyph-name="ubreve" unicode="&#x16d;" horiz-adv-x="1097" 
d="M823 971h131v-971h-131v178q-53 -90 -141 -144t-195 -54q-161 0 -252.5 95.5t-91.5 270.5v625h131v-596q0 -277 250 -277q124 0 211.5 97t87.5 251v525zM788 1356q0 -103 -66.5 -160t-174.5 -57t-175 57t-67 160q0 20 2 26h119l-2 -22q0 -52 33.5 -83.5t89.5 -31.5
t89.5 31.5t33.5 83.5l-2 22h118q2 -6 2 -26z" />
    <glyph glyph-name="Uring" unicode="&#x16e;" horiz-adv-x="1470" 
d="M152 1434h143v-836q0 -233 113 -360t327 -127t327.5 127t113.5 360v836h143v-861q0 -260 -157 -426.5t-427 -166.5q-180 0 -313.5 78t-201.5 211.5t-68 303.5v861zM565 1747q0 72 49 121t121 49q70 0 120 -49.5t50 -120.5q0 -69 -50.5 -119.5t-119.5 -50.5
q-71 0 -120.5 50t-49.5 120zM823 1747q0 37 -25.5 62.5t-62.5 25.5t-62.5 -25.5t-25.5 -62.5t25.5 -62.5t62.5 -25.5t62.5 25.5t25.5 62.5z" />
    <glyph glyph-name="uring" unicode="&#x16f;" horiz-adv-x="1097" 
d="M823 971h131v-971h-131v178q-53 -90 -141 -144t-195 -54q-161 0 -252.5 95.5t-91.5 270.5v625h131v-596q0 -277 250 -277q124 0 211.5 97t87.5 251v525zM379 1284q0 72 49 121t121 49q70 0 120 -49.5t50 -120.5q0 -69 -50.5 -119.5t-119.5 -50.5q-71 0 -120.5 50
t-49.5 120zM637 1284q0 37 -25.5 62.5t-62.5 25.5t-62.5 -25.5t-25.5 -62.5t25.5 -62.5t62.5 -25.5t62.5 25.5t25.5 62.5z" />
    <glyph glyph-name="Uhungarumlaut" unicode="&#x170;" horiz-adv-x="1470" 
d="M152 1434h143v-836q0 -233 113 -360t327 -127t327.5 127t113.5 360v836h143v-861q0 -260 -157 -426.5t-427 -166.5q-180 0 -313.5 78t-201.5 211.5t-68 303.5v861zM506 1599l182 273h195v-25l-250 -248h-127zM838 1599l182 273h194v-25l-249 -248h-127z" />
    <glyph glyph-name="uhungarumlaut" unicode="&#x171;" horiz-adv-x="1097" 
d="M823 971h131v-971h-131v178q-53 -90 -141 -144t-195 -54q-161 0 -252.5 95.5t-91.5 270.5v625h131v-596q0 -277 250 -277q124 0 211.5 97t87.5 251v525zM319 1137l183 272h194v-25l-250 -247h-127zM651 1137l183 272h194v-25l-250 -247h-127z" />
    <glyph glyph-name="Uogonek" unicode="&#x172;" horiz-adv-x="1470" 
d="M152 1434h143v-836q0 -233 113 -360t327 -127t327.5 127t113.5 360v836h143v-861q0 -260 -157 -426.5t-427 -166.5q-180 0 -313.5 78t-201.5 211.5t-68 303.5v861zM780 -379q-79 0 -127.5 46.5t-48.5 119.5q0 125 137 213h109q-135 -76 -135 -172q0 -38 26.5 -63
t67.5 -25q32 0 74 22l45 -104q-67 -37 -148 -37z" />
    <glyph glyph-name="uogonek" unicode="&#x173;" horiz-adv-x="1097" 
d="M823 971h131v-971h-131v178q-53 -90 -141 -144t-195 -54q-161 0 -252.5 95.5t-91.5 270.5v625h131v-596q0 -277 250 -277q124 0 211.5 97t87.5 251v525zM885 -379q-79 0 -127.5 46.5t-48.5 119.5q0 125 137 213h108q-135 -76 -135 -172q0 -38 26.5 -63t67.5 -25
q32 0 74 22l45 -104q-67 -37 -147 -37z" />
    <glyph glyph-name="Wcircumflex" unicode="&#x174;" horiz-adv-x="1982" 
d="M385 0l-356 1434h153l328 -1348l354 1348h254l355 -1348l327 1348h154l-357 -1434h-247l-359 1348l-358 -1348h-248zM698 1599v25l236 211h115l235 -211v-25h-158l-135 156l-135 -156h-158z" />
    <glyph glyph-name="wcircumflex" unicode="&#x175;" horiz-adv-x="1490" 
d="M162 971l254 -852l250 852h159l250 -852l254 852h125l-293 -971h-176l-240 823l-239 -823h-176l-293 971h125zM453 1137v24l235 211h115l235 -211v-24h-157l-136 155l-135 -155h-157z" />
    <glyph glyph-name="Ycircumflex" unicode="&#x176;" horiz-adv-x="1323" 
d="M195 1434l467 -711l466 711h162l-557 -836v-598h-143v598l-557 836h162zM369 1599v25l235 211h115l235 -211v-25h-157l-135 156l-136 -156h-157z" />
    <glyph glyph-name="ycircumflex" unicode="&#x177;" horiz-adv-x="915" 
d="M743 971h142l-582 -1377h-141l215 508l-357 869h144l287 -695zM145 1137v24l236 211h115l235 -211v-24h-158l-135 155l-135 -155h-158z" />
    <glyph glyph-name="Ydieresis" unicode="&#x178;" horiz-adv-x="1323" 
d="M195 1434l467 -711l466 711h162l-557 -836v-598h-143v598l-557 836h162zM420 1632v172h168v-172h-168zM727 1632v172h168v-172h-168z" />
    <glyph glyph-name="Zacute" unicode="&#x179;" horiz-adv-x="1423" 
d="M111 131l1011 1172h-1001v131h1177v-131l-1011 -1172h1022v-131h-1198v131zM641 1599l182 273h195v-25l-250 -248h-127z" />
    <glyph glyph-name="zacute" unicode="&#x17a;" horiz-adv-x="1001" 
d="M899 0h-809v109l633 743h-623v119h789v-109l-633 -743h643v-119zM430 1137l182 272h195v-25l-250 -247h-127z" />
    <glyph glyph-name="Zdotaccent" unicode="&#x17b;" horiz-adv-x="1423" 
d="M111 131l1011 1172h-1001v131h1177v-131l-1011 -1172h1022v-131h-1198v131zM629 1802h151v-170h-151v170z" />
    <glyph glyph-name="zdotaccent" unicode="&#x17c;" horiz-adv-x="1001" 
d="M899 0h-809v109l633 743h-623v119h789v-109l-633 -743h643v-119zM418 1169v170h151v-170h-151z" />
    <glyph glyph-name="Zcaron" unicode="&#x17d;" horiz-adv-x="1423" 
d="M111 131l1011 1172h-1001v131h1177v-131l-1011 -1172h1022v-131h-1198v131zM647 1599l-235 211v25h157l136 -156l135 156h157v-25l-235 -211h-115z" />
    <glyph glyph-name="zcaron" unicode="&#x17e;" horiz-adv-x="1001" 
d="M899 0h-809v109l633 743h-623v119h789v-109l-633 -743h643v-119zM446 1137l-235 211v24h158l135 -155l135 155h158v-24l-236 -211h-115z" />
    <glyph glyph-name="florin" unicode="&#x192;" horiz-adv-x="962" 
d="M82 139l100 66q40 -119 135 -119q123 0 123 162v616h-221v107h221v139q0 162 79 253t231 91q142 0 219.5 -70.5t77.5 -195.5l-3 -43h-118l2 31q0 85 -47 128.5t-131 43.5q-96 0 -137.5 -58t-41.5 -184v-135h283v-107h-283v-620q0 -121 -65 -192.5t-189 -71.5
q-85 0 -147.5 42.5t-87.5 116.5z" />
    <glyph glyph-name="uni01B5" unicode="&#x1b5;" horiz-adv-x="1228" 
d="M287 131h1022v-131h-1198v131l454 526h-360v119h463l454 527h-1001v131h1177v-131l-454 -527h373v-119h-476z" />
    <glyph glyph-name="uni01B6" unicode="&#x1b6;" horiz-adv-x="1001" 
d="M90 0v109l283 331h-178v107h268l260 305h-623v119h789v-109l-268 -315h174v-107h-265l-274 -321h643v-119h-809z" />
    <glyph glyph-name="Aringacute" unicode="&#x1fa;" horiz-adv-x="1482" 
d="M29 0l612 1434h201l612 -1434h-151l-162 385h-799l-162 -385h-151zM397 516h688l-344 815zM571 1747q0 72 49 121t121 49q70 0 120 -49.5t50 -120.5q0 -69 -50.5 -119.5t-119.5 -50.5q-71 0 -120.5 50t-49.5 120zM829 1747q0 37 -25.5 62.5t-62.5 25.5t-62.5 -25.5
t-25.5 -62.5t25.5 -62.5t62.5 -25.5t62.5 25.5t25.5 62.5zM678 1878l182 272h195v-24l-250 -248h-127z" />
    <glyph glyph-name="aringacute" unicode="&#x1fb;" horiz-adv-x="1032" 
d="M90 274q0 137 97 214t251 77q131 0 252 -43l68 -24v133q0 117 -70.5 179t-195.5 62q-112 0 -187.5 -54.5t-95.5 -155.5l-117 34q25 134 133 214.5t267 80.5q187 0 292 -101.5t105 -275.5v-614h-131v139q-40 -72 -137 -115.5t-205 -43.5q-148 0 -237 80.5t-89 213.5z
M758 356v33l-105 35q-103 35 -200 35q-111 0 -171.5 -48.5t-60.5 -138.5q0 -79 61 -126.5t160 -47.5q141 0 228.5 70.5t87.5 187.5zM324 1284q0 72 49 121t121 49q70 0 120 -49.5t50 -120.5q0 -69 -50.5 -119.5t-119.5 -50.5q-71 0 -120.5 50t-49.5 120zM582 1284
q0 37 -25.5 62.5t-62.5 25.5t-62.5 -25.5t-25.5 -62.5t25.5 -62.5t62.5 -25.5t62.5 25.5t25.5 62.5zM430 1415l182 273h195v-25l-250 -248h-127z" />
    <glyph glyph-name="AEacute" unicode="&#x1fc;" horiz-adv-x="1880" 
d="M985 131h772v-131h-915v385h-463l-195 -385h-155l721 1434h987v-131h-752v-496h690v-131h-690v-545zM842 516v791l-398 -791h398zM1171 1599l183 273h194v-25l-250 -248h-127z" />
    <glyph glyph-name="aeacute" unicode="&#x1fd;" horiz-adv-x="1705" 
d="M90 276q0 140 97.5 218.5t261.5 78.5h294v58q0 118 -66 179.5t-188 61.5q-112 0 -186 -54.5t-94 -155.5l-117 34q25 134 132.5 214.5t264.5 80.5q255 0 347 -188q61 89 153.5 138.5t206.5 49.5q195 0 309.5 -106.5t114.5 -290.5q0 -56 -14 -127h-723q1 -171 92 -270
t239 -99q231 0 304 236l114 -45q-107 -309 -415 -309q-134 0 -239 63.5t-165 181.5q-102 -245 -393 -245q-148 0 -239 81.5t-91 214.5zM881 573h608l2 43q0 120 -85 188t-214 68q-125 0 -211.5 -81.5t-99.5 -217.5zM743 387v80h-280q-113 0 -177.5 -50.5t-64.5 -140.5
q0 -85 60 -131.5t165 -46.5q135 0 216 79t81 210zM774 1137l182 272h195v-25l-250 -247h-127z" />
    <glyph glyph-name="Scommaaccent" unicode="&#x218;" horiz-adv-x="1255" 
d="M616 1323q-135 0 -221 -62t-86 -176q0 -119 92.5 -186.5t294.5 -105.5q257 -49 369.5 -142.5t112.5 -253.5q0 -182 -147.5 -299.5t-368.5 -117.5q-210 0 -366 110t-226 326l125 78q52 -184 170 -283.5t299 -99.5q169 0 269.5 76t100.5 208q0 109 -87.5 173t-299.5 100
q-225 38 -353 143.5t-128 269.5q0 160 127.5 266.5t333.5 106.5q178 0 308 -86.5t185 -245.5l-127 -71q-43 135 -138.5 203.5t-238.5 68.5zM510 -467l14 68q42 -17 72 -17q74 0 74 70q0 63 -82 63h-17v177h177v-224q0 -80 -38.5 -116.5t-115.5 -36.5q-41 0 -84 16z" />
    <glyph glyph-name="scommaaccent" unicode="&#x219;" horiz-adv-x="962" 
d="M76 262l110 57q48 -118 119.5 -169.5t192.5 -51.5q107 0 174 48.5t67 129.5q0 78 -63.5 124.5t-212.5 64.5q-334 42 -334 270q0 113 94.5 184.5t243.5 71.5q253 0 342 -221l-104 -57q-26 83 -90 127.5t-152 44.5q-92 0 -151.5 -41t-59.5 -109q0 -72 65.5 -112.5
t212.5 -59.5q166 -20 253 -91.5t87 -184.5q0 -141 -108 -224q-109 -83 -273 -83q-155 0 -264.5 77t-148.5 205zM344 -467l14 68q42 -17 72 -17q74 0 74 70q0 63 -82 63h-16v177h176v-224q0 -80 -38.5 -116.5t-115.5 -36.5q-41 0 -84 16z" />
    <glyph glyph-name="uni021A" unicode="&#x21a;" horiz-adv-x="1363" 
d="M1294 1434v-131h-540v-1303h-144v1303h-540v131h1224zM532 -467l15 68q43 -17 71 -17q74 0 74 70q0 63 -82 63h-16v177h176v-224q0 -80 -38.5 -116.5t-115.5 -36.5q-41 0 -84 16z" />
    <glyph glyph-name="uni021B" unicode="&#x21b;" horiz-adv-x="860" 
d="M246 268v596h-193v107h193v289h131v-289h325v-107h-325v-602q0 -78 39 -121t106 -43q63 0 101.5 33t58.5 105l117 -31q-59 -225 -277 -225q-132 0 -204 74t-72 214zM373 -467l14 68q43 -17 72 -17q73 0 73 70q0 63 -81 63h-17v177h176v-224q0 -80 -38 -116.5t-115 -36.5
q-41 0 -84 16z" />
    <glyph glyph-name="uni0237" unicode="&#x237;" horiz-adv-x="417" 
d="M143 -406v1377h131v-1377h-131z" />
    <glyph glyph-name="circumflex" unicode="&#x2c6;" horiz-adv-x="860" 
d="M137 1137v24l236 211h114l236 -211v-24h-158l-135 155l-135 -155h-158z" />
    <glyph glyph-name="caron" unicode="&#x2c7;" horiz-adv-x="839" 
d="M373 1137l-236 211v24h158l135 -155l135 155h158v-24l-236 -211h-114z" />
    <glyph glyph-name="uni02C9" unicode="&#x2c9;" horiz-adv-x="786" 
d="M139 1319h508v-119h-508v119z" />
    <glyph glyph-name="breve" unicode="&#x2d8;" horiz-adv-x="733" 
d="M608 1356q0 -103 -66.5 -160t-174.5 -57t-175 57t-67 160q0 20 2 26h119l-2 -22q0 -52 33.5 -83.5t89.5 -31.5t89 31.5t33 83.5l-2 22h119q2 -6 2 -26z" />
    <glyph glyph-name="dotaccent" unicode="&#x2d9;" horiz-adv-x="356" 
d="M102 1169v170h152v-170h-152z" />
    <glyph glyph-name="ring" unicode="&#x2da;" horiz-adv-x="616" 
d="M307 1454q72 0 121 -49t49 -121q0 -69 -50.5 -118.5t-119.5 -49.5t-118.5 49.5t-49.5 118.5t49.5 119.5t118.5 50.5zM307 1198q38 0 64 25t26 61q0 38 -26 64t-64 26q-36 0 -61 -26t-25 -64q0 -35 25.5 -60.5t60.5 -25.5z" />
    <glyph glyph-name="ogonek" unicode="&#x2db;" horiz-adv-x="649" 
d="M332 -348q-79 0 -127.5 46.5t-48.5 119.5q0 125 137 213h108q-135 -77 -135 -172q0 -38 26.5 -63t67.5 -25q32 0 74 22l45 -104q-67 -37 -147 -37z" />
    <glyph glyph-name="tilde" unicode="&#x2dc;" horiz-adv-x="851" 
d="M393 1219q-26 24 -44.5 33.5t-43.5 9.5q-35 0 -57.5 -23.5t-22.5 -58.5q0 -7 4 -27l-104 14q-4 28 -4 33q0 68 52 117t124 49q51 0 82.5 -13.5t71.5 -47.5q33 -28 52.5 -38t49.5 -10q32 0 52 20t20 54q0 16 -7 37l109 -14q4 -20 4 -35q0 -73 -51 -119.5t-127 -46.5
q-56 0 -90 15.5t-70 50.5z" />
    <glyph glyph-name="hungarumlaut" unicode="&#x2dd;" horiz-adv-x="919" 
d="M106 1137l183 272h194v-25l-250 -247h-127zM438 1137l183 272h194v-25l-250 -247h-127z" />
    <glyph glyph-name="gravecomb" unicode="&#x300;" 
d="M-250 1137l-250 247v25h195l182 -272h-127z" />
    <glyph glyph-name="acutecomb" unicode="&#x301;" 
d="M-500 1137l183 272h194v-25l-250 -247h-127z" />
    <glyph glyph-name="uni0302" unicode="&#x302;" 
d="M-723 1137v24l236 211h114l236 -211v-24h-158l-135 155l-135 -155h-158z" />
    <glyph glyph-name="tildecomb" unicode="&#x303;" 
d="M-457 1214q-29 27 -50.5 38.5t-51.5 11.5q-32 0 -54 -21t-22 -55q0 -17 6 -35l-104 12q-4 16 -4 35q0 72 51.5 119t126.5 47q50 0 79 -13t72 -48q29 -27 51 -38.5t52 -11.5q31 0 53.5 21t22.5 53q0 16 -7 37l105 -12q4 -16 4 -35q0 -72 -51.5 -119t-126.5 -47
q-50 0 -79.5 13t-72.5 48z" />
    <glyph glyph-name="uni0304" unicode="&#x304;" 
d="M-643 1319h508v-119h-508v119z" />
    <glyph glyph-name="uni0306" unicode="&#x306;" 
d="M-125 1356q0 -103 -67 -160t-175 -57t-174.5 57t-66.5 160q0 20 2 26h119l-2 -22q0 -52 33 -83.5t89 -31.5t89.5 31.5t33.5 83.5l-2 22h119q2 -6 2 -26z" />
    <glyph glyph-name="uni0307" unicode="&#x307;" 
d="M-254 1169v170h152v-170h-152z" />
    <glyph glyph-name="uni0308" unicode="&#x308;" 
d="M-557 1169v172h168v-172h-168zM-250 1169v172h168v-172h-168z" />
    <glyph glyph-name="uni030A" unicode="&#x30a;" 
d="M-463 1284q0 72 49 121t121 49q70 0 120 -49.5t50 -120.5q0 -69 -50.5 -119.5t-119.5 -50.5q-71 0 -120.5 50t-49.5 120zM-205 1284q0 37 -25.5 62.5t-62.5 25.5t-62.5 -25.5t-25.5 -62.5t25.5 -62.5t62.5 -25.5t62.5 25.5t25.5 62.5z" />
    <glyph glyph-name="uni030B" unicode="&#x30b;" 
d="M-815 1137l182 272h195v-25l-250 -247h-127zM-483 1137l182 272h195v-25l-250 -247h-127z" />
    <glyph glyph-name="uni030C" unicode="&#x30c;" 
d="M-467 1137l-235 211v24h157l135 -155l136 155h157v-24l-235 -211h-115z" />
    <glyph glyph-name="uni0312" unicode="&#x312;" 
d="M-176 1110h-176v227q0 76 41 117t110 41h72v-88h-68q-30 0 -48.5 -15.5t-18.5 -43.5q0 -27 18.5 -44.5t52.5 -17.5h17v-176z" />
    <glyph glyph-name="uni0326" unicode="&#x326;" 
d="M-360 -467l14 68q43 -17 72 -17q73 0 73 70q0 63 -82 63h-16v177h176v-224q0 -80 -38 -116.5t-115 -36.5q-41 0 -84 16z" />
    <glyph glyph-name="uni0327" unicode="&#x327;" 
d="M-385 -113q19 23 48 37.5t58 14.5q69 0 112.5 -43t43.5 -115q0 -74 -48 -120t-122 -46q-69 0 -117.5 36.5t-60.5 102.5l80 21q6 -36 32 -59t64 -23q43 0 68.5 24.5t25.5 63.5q0 42 -25 66t-69 24q-27 0 -52.5 -15t-37.5 -38l-82 16q32 104 45 199h92q-34 -107 -55 -146z
" />
    <glyph glyph-name="uni0328" unicode="&#x328;" 
d="M-317 -348q-79 0 -128 46.5t-49 119.5q0 125 138 213h108q-135 -77 -135 -172q0 -38 26.5 -63t67.5 -25q32 0 74 22l45 -104q-67 -37 -147 -37z" />
    <glyph glyph-name="uni0335" unicode="&#x335;" 
d="M-702 741h600v-106h-600v106z" />
    <glyph glyph-name="uni0336" unicode="&#x336;" 
d="M-1606 657v119h1483v-119h-1483z" />
    <glyph glyph-name="uni0337" unicode="&#x337;" 
d="M-639 555l-55 104l493 254l56 -104z" />
    <glyph glyph-name="uni0338" unicode="&#x338;" 
d="M-784 -98l-123 45l409 1122l123 -45z" />
    <glyph glyph-name="uni037E" unicode="&#x37e;" horiz-adv-x="462" 
d="M143 725v176h176v-176h-176zM84 -193l12 68q29 -16 68 -16q36 0 57 18.5t21 54.5q0 32 -22 50t-60 18h-17v176h176v-217q0 -168 -153 -168q-53 0 -82 16z" />
    <glyph glyph-name="tonos" unicode="&#x384;" horiz-adv-x="608" 
d="M172 1137l78 272h186v-25l-145 -247h-119z" />
    <glyph glyph-name="dieresistonos" unicode="&#x385;" horiz-adv-x="679" 
d="M231 1120l37 273h187v-25l-105 -248h-119zM29 1169v172h168v-172h-168zM483 1169v172h168v-172h-168z" />
    <glyph glyph-name="Alphatonos" unicode="&#x386;" horiz-adv-x="1482" 
d="M29 0l612 1434h201l612 -1434h-151l-162 385h-799l-162 -385h-151zM397 516h688l-344 815zM125 1161l78 273h186v-25l-145 -248h-119z" />
    <glyph glyph-name="anoteleia" unicode="&#x387;" horiz-adv-x="462" 
d="M143 805h176v-176h-176v176z" />
    <glyph glyph-name="Epsilontonos" unicode="&#x388;" horiz-adv-x="1273" 
d="M164 1434h966v-131h-823v-496h762v-131h-762v-545h844v-131h-987v1434zM-223 1161l78 273h186v-25l-145 -248h-119z" />
    <glyph glyph-name="Etatonos" unicode="&#x389;" horiz-adv-x="1490" 
d="M1184 641h-877v-641h-143v1434h143v-662h877v662h143v-1434h-143v641zM-223 1161l78 273h186v-25l-145 -248h-119z" />
    <glyph glyph-name="Iotatonos" unicode="&#x38a;" horiz-adv-x="471" 
d="M164 0v1434h143v-1434h-143zM-223 1161l78 273h186v-25l-145 -248h-119z" />
    <glyph glyph-name="Omicrontonos" unicode="&#x38c;" horiz-adv-x="1658" 
d="M829 1454q153 3 290.5 -55.5t234.5 -159t153 -237.5t54 -285q2 -149 -54 -286t-153 -237t-234.5 -158.5t-290.5 -55.5q-153 -3 -290 55.5t-234 158.5t-153 237t-54 286q-2 148 54 285t153 237.5t234 159t290 55.5zM829 111q255 0 417.5 167t162.5 439q0 273 -162 439.5
t-418 166.5q-255 0 -417 -168t-162 -440q0 -179 76 -317.5t207.5 -212.5t295.5 -74zM-43 1161l78 273h186v-25l-145 -248h-119z" />
    <glyph glyph-name="Upsilontonos" unicode="&#x38e;" horiz-adv-x="1323" 
d="M195 1434l467 -711l466 711h162l-557 -836v-598h-143v598l-557 836h162zM-293 1161l78 273h186v-25l-145 -248h-119z" />
    <glyph glyph-name="Omegatonos" unicode="&#x38f;" horiz-adv-x="1572" 
d="M1475 768q0 -192 -106 -366.5t-255 -270.5h305v-131h-526v121q60 30 121 75.5t119 108.5t102.5 133t71 155.5t24.5 170.5q3 154 -69.5 284t-199 204t-276.5 71q-112 2 -214 -41.5t-175 -118.5t-115 -179.5t-40 -219.5q-2 -85 24.5 -170.5t71 -155.5t102.5 -133
t119 -108.5t121 -75.5v-121h-526v131h305q-149 96 -255 270.5t-106 366.5q-3 189 87 347.5t249.5 250t351.5 88.5q144 2 273 -51.5t221 -145.5t144.5 -220t50.5 -269zM-63 1161l77 273h187v-25l-146 -248h-118z" />
    <glyph glyph-name="iotadieresistonos" unicode="&#x390;" horiz-adv-x="649" 
d="M143 268v703h131v-709q0 -78 39.5 -121t106.5 -43q89 0 123 88l98 -71q-38 -68 -91 -101.5t-130 -33.5q-132 0 -204.5 74t-72.5 214zM100 1120l37 273h187v-25l-105 -248h-119zM-102 1169v172h168v-172h-168zM352 1169v172h168v-172h-168z" />
    <glyph glyph-name="Alpha" unicode="&#x391;" horiz-adv-x="1482" 
d="M29 0l612 1434h201l612 -1434h-151l-162 385h-799l-162 -385h-151zM397 516h688l-344 815z" />
    <glyph glyph-name="Beta" unicode="&#x392;" horiz-adv-x="1382" 
d="M164 0v1434h620q203 0 324 -102.5t121 -262.5q0 -104 -57 -194.5t-146 -133.5q128 -56 191 -140.5t63 -215.5q0 -164 -130.5 -274.5t-322.5 -110.5h-663zM307 799h504q124 0 201.5 68t77.5 184q0 117 -82 184q-83 68 -197 68h-504v-504zM307 131h518q137 0 221 72t84 198
t-85 200.5t-220 74.5h-518v-545z" />
    <glyph glyph-name="Gamma" unicode="&#x393;" horiz-adv-x="1239" 
d="M1169 1303h-862v-1303h-143v1434h1005v-131z" />
    <glyph glyph-name="uni0394" unicode="&#x394;" horiz-adv-x="1482" 
d="M29 0l612 1434h201l612 -1434h-1425zM236 131h1011l-506 1200z" />
    <glyph glyph-name="Epsilon" unicode="&#x395;" horiz-adv-x="1273" 
d="M164 1434h966v-131h-823v-496h762v-131h-762v-545h844v-131h-987v1434z" />
    <glyph glyph-name="Zeta" unicode="&#x396;" horiz-adv-x="1423" 
d="M111 131l1011 1172h-1001v131h1177v-131l-1011 -1172h1022v-131h-1198v131z" />
    <glyph glyph-name="Eta" unicode="&#x397;" horiz-adv-x="1490" 
d="M1184 641h-877v-641h-143v1434h143v-662h877v662h143v-1434h-143v641z" />
    <glyph glyph-name="Theta" unicode="&#x398;" horiz-adv-x="1658" 
d="M829 1454q153 3 290.5 -55.5t234.5 -159t153 -237.5t54 -285q2 -149 -54 -286t-153 -237t-234.5 -158.5t-290.5 -55.5q-153 -3 -290 55.5t-234 158.5t-153 237t-54 286q-2 148 54 285t153 237.5t234 159t290 55.5zM829 111q255 0 417.5 167t162.5 439q0 273 -162 439.5
t-418 166.5q-255 0 -417 -168t-162 -440q0 -179 76 -317.5t207.5 -212.5t295.5 -74zM575 657v119h508v-119h-508z" />
    <glyph glyph-name="Iota" unicode="&#x399;" horiz-adv-x="471" 
d="M164 0v1434h143v-1434h-143z" />
    <glyph glyph-name="Kappa" unicode="&#x39a;" horiz-adv-x="1337" 
d="M733 874l547 -874h-164l-475 772l-334 -352v-420h-143v1434h143v-832l774 832h176z" />
    <glyph glyph-name="Lambda" unicode="&#x39b;" horiz-adv-x="1482" 
d="M29 0l612 1434h201l612 -1434h-151l-562 1331l-561 -1331h-151z" />
    <glyph glyph-name="Mu" unicode="&#x39c;" horiz-adv-x="1925" 
d="M1761 0h-143v1364l-551 -1364h-209l-551 1364v-1364h-143v1434h264l535 -1334l534 1334h264v-1434z" />
    <glyph glyph-name="Nu" unicode="&#x39d;" horiz-adv-x="1554" 
d="M307 1341v-1341h-143v1434h244l839 -1342v1342h144v-1434h-244z" />
    <glyph glyph-name="Xi" unicode="&#x39e;" horiz-adv-x="1361" 
d="M1229 1303h-1096v131h1096v-131zM983 662h-604v131h604v-131zM123 131h1116v-131h-1116v131z" />
    <glyph glyph-name="Omicron" unicode="&#x39f;" horiz-adv-x="1658" 
d="M829 1454q153 3 290.5 -55.5t234.5 -159t153 -237.5t54 -285q2 -149 -54 -286t-153 -237t-234.5 -158.5t-290.5 -55.5q-153 -3 -290 55.5t-234 158.5t-153 237t-54 286q-2 148 54 285t153 237.5t234 159t290 55.5zM829 111q255 0 417.5 167t162.5 439q0 273 -162 439.5
t-418 166.5q-255 0 -417 -168t-162 -440q0 -179 76 -317.5t207.5 -212.5t295.5 -74z" />
    <glyph glyph-name="Pi" unicode="&#x3a0;" horiz-adv-x="1490" 
d="M1184 1303h-877v-1303h-143v1434h1163v-1434h-143v1303z" />
    <glyph glyph-name="Rho" unicode="&#x3a1;" horiz-adv-x="1329" 
d="M307 610v-610h-143v1434h594q217 0 343 -115t126 -297q0 -180 -129 -296t-340 -116h-451zM307 741h438q153 0 241.5 72t88.5 209t-88.5 209t-241.5 72h-438v-562z" />
    <glyph glyph-name="Sigma" unicode="&#x3a3;" horiz-adv-x="1316" 
d="M825 778v-123l-565 -524h934v-131h-1083v164l600 553l-600 553v164h1042v-131h-893z" />
    <glyph glyph-name="Tau" unicode="&#x3a4;" horiz-adv-x="1363" 
d="M1294 1434v-131h-540v-1303h-144v1303h-540v131h1224z" />
    <glyph glyph-name="Upsilon" unicode="&#x3a5;" horiz-adv-x="1323" 
d="M195 1434l467 -711l466 711h162l-557 -836v-598h-143v598l-557 836h162z" />
    <glyph glyph-name="Phi" unicode="&#x3a6;" horiz-adv-x="1654" 
d="M756 0v164h-113q-244 0 -394.5 155t-150.5 398q0 238 152 395.5t393 157.5h113v164h143v-164h113q241 0 392.5 -157.5t151.5 -395.5q0 -244 -150 -398.5t-394 -154.5h-113v-164h-143zM657 295h99v844h-99q-181 0 -298 -119.5t-117 -302.5t117 -302.5t298 -119.5zM899 295
h98q181 0 298.5 119.5t117.5 302.5t-117.5 302.5t-298.5 119.5h-98v-844z" />
    <glyph glyph-name="Chi" unicode="&#x3a7;" horiz-adv-x="1335" 
d="M41 0l543 778l-461 656h172l373 -557l389 557h155l-460 -656l542 -778h-157l-469 676l-467 -676h-160z" />
    <glyph glyph-name="Psi" unicode="&#x3a8;" horiz-adv-x="1626" 
d="M1331 1434h144v-347q0 -325 -152 -505.5t-438 -200.5v-381h-144v381q-286 20 -437.5 200.5t-151.5 505.5v347h143v-353q0 -261 114.5 -404.5t331.5 -162.5v920h144v-920q217 19 331.5 162.5t114.5 404.5v353z" />
    <glyph glyph-name="uni03A9" unicode="&#x3a9;" horiz-adv-x="1572" 
d="M1475 768q0 -192 -106 -366.5t-255 -270.5h305v-131h-526v121q60 30 121 75.5t119 108.5t102.5 133t71 155.5t24.5 170.5q3 154 -69.5 284t-199 204t-276.5 71q-112 2 -214 -41.5t-175 -118.5t-115 -179.5t-40 -219.5q-2 -85 24.5 -170.5t71 -155.5t102.5 -133
t119 -108.5t121 -75.5v-121h-526v131h305q-149 96 -255 270.5t-106 366.5q-3 189 87 347.5t249.5 250t351.5 88.5q144 2 273 -51.5t221 -145.5t144.5 -220t50.5 -269z" />
    <glyph glyph-name="Iotadieresis" unicode="&#x3aa;" horiz-adv-x="471" 
d="M164 0v1434h143v-1434h-143zM-2 1632v172h168v-172h-168zM305 1632v172h168v-172h-168z" />
    <glyph glyph-name="Upsilondieresis" unicode="&#x3ab;" horiz-adv-x="1323" 
d="M195 1434l467 -711l466 711h162l-557 -836v-598h-143v598l-557 836h162zM410 1632v172h168v-172h-168zM717 1632v172h168v-172h-168z" />
    <glyph glyph-name="alphatonos" unicode="&#x3ac;" horiz-adv-x="1208" 
d="M82 479q0 226 119.5 369t294.5 143q225 0 313 -184v164h131v-776q0 -97 78 -97q31 0 50 17.5t36 60.5l96 -47q-49 -149 -190 -149q-80 0 -135 52t-62 144q-95 -196 -309 -196q-184 0 -303 136.5t-119 362.5zM817 483q0 182 -88.5 285.5t-214.5 103.5q-127 0 -214 -103.5
t-87 -285.5t87 -283.5t214 -101.5q126 0 214.5 102t88.5 283zM516 1137l78 272h186v-25l-145 -247h-119z" />
    <glyph glyph-name="epsilontonos" unicode="&#x3ad;" horiz-adv-x="911" 
d="M88 279q0 175 199 219q-76 21 -125 80t-49 139q0 124 92 199t241 75q121 0 209 -63t129 -180l-112 -56q-21 82 -78.5 131t-147.5 49q-94 0 -148 -39t-54 -116q0 -75 54.5 -120.5t127.5 -45.5h63v-119h-83q-85 0 -136 -39t-51 -114q0 -84 63.5 -132.5t170.5 -48.5
q112 0 180 64t86 174l119 -53q-21 -134 -127 -220q-106 -83 -250 -83q-165 0 -269 85t-104 214zM393 1137l78 272h186v-25l-145 -247h-119z" />
    <glyph glyph-name="etatonos" unicode="&#x3ae;" horiz-adv-x="1097" 
d="M823 -406v1002q0 276 -250 276q-124 0 -211.5 -97t-87.5 -251v-524h-131v971h131v-178q53 90 141 144t195 54q161 0 252.5 -95.5t91.5 -270.5v-1031h-131zM508 1137l78 272h186v-25l-145 -247h-119z" />
    <glyph glyph-name="iotatonos" unicode="&#x3af;" horiz-adv-x="649" 
d="M143 268v703h131v-709q0 -78 39.5 -121t106.5 -43q89 0 123 88l98 -71q-38 -68 -91 -101.5t-130 -33.5q-132 0 -204.5 74t-72.5 214zM150 1137l77 272h187v-25l-146 -247h-118z" />
    <glyph glyph-name="upsilondieresistonos" unicode="&#x3b0;" horiz-adv-x="1081" 
d="M143 393v578h131v-584q0 -140 71.5 -214.5t195.5 -74.5t195 74.5t71 214.5v584h131v-578q0 -193 -107.5 -303t-289.5 -110q-181 0 -289.5 110t-108.5 303zM432 1120l37 273h186v-25l-104 -248h-119zM229 1169v172h168v-172h-168zM684 1169v172h168v-172h-168z" />
    <glyph glyph-name="alpha" unicode="&#x3b1;" horiz-adv-x="1208" 
d="M82 479q0 226 119.5 369t294.5 143q225 0 313 -184v164h131v-776q0 -97 78 -97q31 0 50 17.5t36 60.5l96 -47q-49 -149 -190 -149q-80 0 -135 52t-62 144q-95 -196 -309 -196q-184 0 -303 136.5t-119 362.5zM817 483q0 182 -88.5 285.5t-214.5 103.5q-127 0 -214 -103.5
t-87 -285.5t87 -283.5t214 -101.5q126 0 214.5 102t88.5 283z" />
    <glyph glyph-name="beta" unicode="&#x3b2;" horiz-adv-x="1103" 
d="M143 -406v1471q0 176 101 282.5t262 106.5q156 0 247 -88t91 -231q0 -103 -48.5 -181t-129.5 -118q329 -89 329 -416q0 -200 -115.5 -320t-293.5 -120q-104 0 -185.5 41.5t-126.5 115.5v-543h-131zM864 418q0 113 -57.5 194.5t-145 118.5t-192.5 37h-66v119h66
q122 2 187 66t65 182q0 88 -59.5 144t-155.5 56q-103 0 -167.5 -69.5t-64.5 -194.5v-631q0 -153 85 -247.5t227 -94.5q122 0 200 83.5t78 236.5z" />
    <glyph glyph-name="gamma" unicode="&#x3b3;" horiz-adv-x="1052" 
d="M461 -406v539l-420 838h139l346 -719l346 719h140l-420 -838v-539h-131z" />
    <glyph glyph-name="delta" unicode="&#x3b4;" horiz-adv-x="1130" 
d="M82 485q0 169 76.5 277t201.5 147q-99 23 -157 91.5t-58 164.5q0 122 111 205.5t283 83.5q246 0 397 -160l-68 -102q-143 143 -329 143q-107 0 -180.5 -47.5t-73.5 -124.5q0 -89 70.5 -138.5t209.5 -49.5q222 0 353 -137.5t131 -352.5q0 -218 -135 -361.5t-349 -143.5
t-348.5 143.5t-134.5 361.5zM909 485q0 167 -95 269t-249 102t-249 -102t-95 -269q0 -170 96.5 -278.5t247.5 -108.5t247.5 108.5t96.5 278.5z" />
    <glyph glyph-name="epsilon" unicode="&#x3b5;" horiz-adv-x="911" 
d="M88 279q0 175 199 219q-76 21 -125 80t-49 139q0 124 92 199t241 75q121 0 209 -63t129 -180l-112 -56q-21 82 -78.5 131t-147.5 49q-94 0 -148 -39t-54 -116q0 -75 54.5 -120.5t127.5 -45.5h63v-119h-83q-85 0 -136 -39t-51 -114q0 -84 63.5 -132.5t170.5 -48.5
q112 0 180 64t86 174l119 -53q-21 -134 -127 -220q-106 -83 -250 -83q-165 0 -269 85t-104 214z" />
    <glyph glyph-name="zeta" unicode="&#x3b6;" horiz-adv-x="980" 
d="M831 -426l-92 66q88 79 88 174q0 85 -59.5 125.5t-183.5 40.5q-98 0 -187.5 34.5t-160 99t-112.5 168.5t-42 232q0 306 194 494q194 185 453 307h-627v119h832v-119q-237 -117 -387 -219q-334 -223 -334 -582q0 -211 115.5 -313.5t316.5 -102.5q156 0 233.5 -70.5
t77.5 -201.5q0 -151 -125 -252z" />
    <glyph glyph-name="eta" unicode="&#x3b7;" horiz-adv-x="1097" 
d="M823 -406v1002q0 276 -250 276q-124 0 -211.5 -97t-87.5 -251v-524h-131v971h131v-178q53 90 141 144t195 54q161 0 252.5 -95.5t91.5 -270.5v-1031h-131z" />
    <glyph glyph-name="theta" unicode="&#x3b8;" horiz-adv-x="1130" 
d="M82 717q0 212 54 376.5t165 262.5t264 98t264 -98t165.5 -262.5t54.5 -376.5t-54 -376.5t-165 -262.5t-265 -98t-265 98t-164.5 262.5t-53.5 376.5zM223 776h684q-9 256 -96 406q-89 153 -246 153t-246 -153q-87 -150 -96 -406zM907 657h-684q8 -258 96.5 -408.5
t245.5 -150.5t245.5 150.5t96.5 408.5z" />
    <glyph glyph-name="iota" unicode="&#x3b9;" horiz-adv-x="649" 
d="M143 268v703h131v-709q0 -78 39.5 -121t106.5 -43q89 0 123 88l98 -71q-38 -68 -91 -101.5t-130 -33.5q-132 0 -204.5 74t-72.5 214z" />
    <glyph glyph-name="kappa" unicode="&#x3ba;" horiz-adv-x="909" 
d="M143 0v971h131v-432l404 432h164l-441 -459l457 -512h-160l-424 477v-477h-131z" />
    <glyph glyph-name="lambda" unicode="&#x3bb;" horiz-adv-x="985" 
d="M954 0h-143l-305 813l-330 -813h-143l411 983l-75 201q-51 131 -136 131q-77 0 -112 -86l-101 55q25 69 83.5 109.5t132.5 40.5q100 0 157 -47t101 -166z" />
    <glyph glyph-name="uni03BC" unicode="&#x3bc;" horiz-adv-x="1097" 
d="M143 -406v1377h131v-596q0 -277 250 -277q124 0 211.5 97t87.5 251v525h131v-971h-131v178q-53 -90 -141 -144t-195 -54q-137 0 -213 98v-484h-131z" />
    <glyph glyph-name="nu" unicode="&#x3bd;" horiz-adv-x="1036" 
d="M180 971l338 -852l338 852h139l-389 -971h-176l-389 971h139z" />
    <glyph glyph-name="xi" unicode="&#x3be;" horiz-adv-x="980" 
d="M836 -424l-99 74q31 27 51.5 67t20.5 76q0 99 -52 143t-192 44q-223 0 -350 104.5t-127 306.5q0 140 70.5 232t185.5 129q-81 22 -152 111t-71 214q0 165 119 271t292 106q175 0 285 -87t139 -255l-118 -37q-47 260 -308 260q-124 0 -201 -68.5t-77 -187.5t79 -192.5
t212 -73.5h190v-119h-190q-145 0 -234 -86q-90 -84 -90 -213q0 -159 89.5 -228t256.5 -69q192 0 282.5 -74t90.5 -229q0 -60 -27 -118t-75 -101z" />
    <glyph glyph-name="omicron" unicode="&#x3bf;" horiz-adv-x="1130" 
d="M82 485q0 218 134 362t349 144t349.5 -144t134.5 -362t-135 -361.5t-349 -143.5t-348.5 143.5t-134.5 361.5zM909 485q0 170 -96.5 278.5t-247.5 108.5t-247.5 -108.5t-96.5 -278.5t96.5 -278.5t247.5 -108.5t247.5 108.5t96.5 278.5z" />
    <glyph glyph-name="pi" unicode="&#x3c0;" horiz-adv-x="1206" 
d="M686 236v628h-305v-864h-133v864h-217v107h1083v-107h-295v-628q0 -71 31 -108.5t86 -37.5q68 0 117 94l92 -61q-58 -143 -209 -143q-121 0 -185.5 70t-64.5 186z" />
    <glyph glyph-name="rho" unicode="&#x3c1;" horiz-adv-x="1148" 
d="M143 -406v848q0 274 129 411.5t353 137.5q196 0 319 -135t123 -364q0 -227 -127.5 -369.5t-318.5 -142.5q-117 0 -207.5 44t-139.5 126v-556h-131zM936 487q0 99 -28.5 175.5t-77 121t-106 66.5t-122.5 22q-64 0 -122 -22t-107 -66.5t-78 -121t-29 -175.5t29 -176.5
t78 -122.5t107 -67.5t122 -22.5q51 0 98 13.5t90.5 44t75.5 75t51 110.5t19 146z" />
    <glyph glyph-name="uni03C2" unicode="&#x3c2;" horiz-adv-x="1026" 
d="M881 -426l-97 82q37 33 60.5 76.5t23.5 81.5q0 77 -71 121.5t-217 44.5q-222 0 -360 141t-138 371q-2 105 37.5 199.5t106 160.5t155.5 103.5t182 35.5q173 0 285 -88t153 -254l-118 -37q-70 260 -322 260q-63 0 -124 -24.5t-111.5 -70t-81.5 -119.5t-31 -164
q0 -181 104 -288.5t263 -107.5q417 0 417 -284q0 -77 -28 -131t-88 -109z" />
    <glyph glyph-name="sigma" unicode="&#x3c3;" horiz-adv-x="1130" 
d="M82 475q0 223 139.5 359.5t384.5 136.5h463v-119h-221q96 -57 148.5 -155.5t52.5 -221.5q0 -218 -134 -356.5t-350 -138.5t-349.5 138.5t-133.5 356.5zM909 475q0 170 -95 273.5t-249 103.5t-249 -103.5t-95 -273.5t95 -273.5t249 -103.5t249 103.5t95 273.5z" />
    <glyph glyph-name="tau" unicode="&#x3c4;" horiz-adv-x="882" 
d="M324 268v596h-271v107h672v-107h-270v-602q0 -78 39 -121t106 -43q89 0 123 88l98 -71q-38 -68 -91 -101.5t-130 -33.5q-132 0 -204 74t-72 214z" />
    <glyph glyph-name="upsilon" unicode="&#x3c5;" horiz-adv-x="1081" 
d="M143 393v578h131v-584q0 -140 71.5 -214.5t195.5 -74.5t195 74.5t71 214.5v584h131v-578q0 -193 -107.5 -303t-289.5 -110q-181 0 -289.5 110t-108.5 303z" />
    <glyph glyph-name="phi" unicode="&#x3c6;" horiz-adv-x="1404" 
d="M1323 485q0 -138 -64.5 -249.5t-174.5 -173.5t-242 -62h-74v-406h-131v406h-74q-132 0 -242 62t-174.5 173.5t-64.5 249.5q0 103 38 194t102.5 154.5t153 100.5t187.5 37h74v463h131v-463h74q99 0 187.5 -37t153 -100.5t102.5 -154.5t38 -194zM590 119h47v733h-47
q-176 0 -276.5 -98t-100.5 -269t100 -268.5t277 -97.5zM1192 485q0 171 -100.5 269t-276.5 98h-47v-733h47q177 0 277 97.5t100 268.5z" />
    <glyph glyph-name="chi" unicode="&#x3c7;" horiz-adv-x="925" 
d="M29 -406l362 715l-323 662h157l238 -527l235 527h160l-321 -658l360 -719h-149l-285 590l-285 -590h-149z" />
    <glyph glyph-name="psi" unicode="&#x3c8;" horiz-adv-x="1196" 
d="M532 119v1315h132v-1315q130 5 194 81.5t64 233.5v537h131v-537q0 -202 -99 -312.5t-290 -121.5v-406h-132v406q-191 11 -290 121.5t-99 312.5v537h131v-537q0 -157 64 -233.5t194 -81.5z" />
    <glyph glyph-name="omega" unicode="&#x3c9;" horiz-adv-x="1441" 
d="M655 387v369h131v-369q0 -129 60 -209t153 -80q118 0 174 90t56 285q0 141 -45 277t-111 221h139q148 -211 148 -488q0 -243 -91 -373t-263 -130q-105 0 -179 60t-106 169q-32 -109 -106 -169t-179 -60q-172 0 -263 130t-91 373q0 278 147 488h140q-66 -85 -111 -221
t-45 -277q0 -195 55.5 -285t173.5 -90q93 0 153 80t60 209z" />
    <glyph glyph-name="iotadieresis" unicode="&#x3ca;" horiz-adv-x="649" 
d="M143 268v703h131v-709q0 -78 39.5 -121t106.5 -43q89 0 123 88l98 -71q-38 -68 -91 -101.5t-130 -33.5q-132 0 -204.5 74t-72.5 214zM-33 1169v172h168v-172h-168zM274 1169v172h168v-172h-168z" />
    <glyph glyph-name="upsilondieresis" unicode="&#x3cb;" horiz-adv-x="1081" 
d="M143 393v578h131v-584q0 -140 71.5 -214.5t195.5 -74.5t195 74.5t71 214.5v584h131v-578q0 -193 -107.5 -303t-289.5 -110q-181 0 -289.5 110t-108.5 303zM299 1169v172h168v-172h-168zM606 1169v172h168v-172h-168z" />
    <glyph glyph-name="omicrontonos" unicode="&#x3cc;" horiz-adv-x="1130" 
d="M82 485q0 218 134 362t349 144t349.5 -144t134.5 -362t-135 -361.5t-349 -143.5t-348.5 143.5t-134.5 361.5zM909 485q0 170 -96.5 278.5t-247.5 108.5t-247.5 -108.5t-96.5 -278.5t96.5 -278.5t247.5 -108.5t247.5 108.5t96.5 278.5zM506 1137l78 272h186v-25l-145 -247
h-119z" />
    <glyph glyph-name="upsilontonos" unicode="&#x3cd;" horiz-adv-x="1081" 
d="M143 393v578h131v-584q0 -140 71.5 -214.5t195.5 -74.5t195 74.5t71 214.5v584h131v-578q0 -193 -107.5 -303t-289.5 -110q-181 0 -289.5 110t-108.5 303zM481 1137l78 272h186v-25l-145 -247h-119z" />
    <glyph glyph-name="omegatonos" unicode="&#x3ce;" horiz-adv-x="1441" 
d="M655 387v369h131v-369q0 -129 60 -209t153 -80q118 0 174 90t56 285q0 141 -45 277t-111 221h139q148 -211 148 -488q0 -243 -91 -373t-263 -130q-105 0 -179 60t-106 169q-32 -109 -106 -169t-179 -60q-172 0 -263 130t-91 373q0 278 147 488h140q-66 -85 -111 -221
t-45 -277q0 -195 55.5 -285t173.5 -90q93 0 153 80t60 209zM702 1137l78 272h187v-25l-146 -247h-119z" />
    <glyph glyph-name="uni0400" unicode="&#x400;" horiz-adv-x="1273" 
d="M164 1434h966v-131h-823v-496h762v-131h-762v-545h844v-131h-987v1434zM551 1599l-250 248v25h195l182 -273h-127z" />
    <glyph glyph-name="uni0401" unicode="&#x401;" horiz-adv-x="1273" 
d="M164 1434h966v-131h-823v-496h762v-131h-762v-545h844v-131h-987v1434zM375 1632v172h168v-172h-168zM682 1632v172h168v-172h-168z" />
    <glyph glyph-name="uni0402" unicode="&#x402;" horiz-adv-x="1718" 
d="M1298 -225v20q170 299 170 602q0 463 -354 463q-140 0 -250 -118t-110 -277v-465h-144v1303h-540v131h1224v-131h-540v-545q53 103 163.5 168t247.5 65q218 0 332.5 -155t114.5 -426q0 -298 -166 -635h-148z" />
    <glyph glyph-name="uni0403" unicode="&#x403;" horiz-adv-x="1239" 
d="M1169 1303h-862v-1303h-143v1434h1005v-131zM573 1599l183 273h194v-25l-250 -248h-127z" />
    <glyph glyph-name="uni0404" unicode="&#x404;" horiz-adv-x="1574" 
d="M1380 580l121 -50q-59 -249 -237 -399q-180 -151 -459 -151q-158 0 -290.5 56t-223.5 154t-142 234t-51 293q-2 152 52 289.5t148 237t226.5 156.5t280.5 54q256 0 407 -133q154 -133 215 -340l-133 -59q-43 187 -171 294t-320 107q-145 0 -265 -64t-196 -186.5
t-90 -284.5h639v-131h-639q15 -256 167 -401t384 -145q256 0 387 125t190 344z" />
    <glyph glyph-name="uni0405" unicode="&#x405;" horiz-adv-x="1255" 
d="M616 1323q-135 0 -221 -62t-86 -176q0 -119 92.5 -186.5t294.5 -105.5q257 -49 369.5 -142.5t112.5 -253.5q0 -182 -147.5 -299.5t-368.5 -117.5q-210 0 -366 110t-226 326l125 78q52 -184 170 -283.5t299 -99.5q169 0 269.5 76t100.5 208q0 109 -87.5 173t-299.5 100
q-225 38 -353 143.5t-128 269.5q0 160 127.5 266.5t333.5 106.5q178 0 308 -86.5t185 -245.5l-127 -71q-43 135 -138.5 203.5t-238.5 68.5z" />
    <glyph glyph-name="uni0406" unicode="&#x406;" horiz-adv-x="471" 
d="M164 0v1434h143v-1434h-143z" />
    <glyph glyph-name="uni0407" unicode="&#x407;" horiz-adv-x="471" 
d="M164 0v1434h143v-1434h-143zM-2 1632v172h168v-172h-168zM305 1632v172h168v-172h-168z" />
    <glyph glyph-name="uni0408" unicode="&#x408;" horiz-adv-x="1214" 
d="M920 1434h143v-957q0 -105 -29.5 -194.5t-86.5 -157.5t-146.5 -106.5t-202.5 -38.5q-220 0 -356 125t-136 329q0 149 52 250l133 -51q-41 -90 -41 -195q0 -149 92.5 -238t255.5 -89q161 0 241.5 101t80.5 310v912z" />
    <glyph glyph-name="uni0409" unicode="&#x409;" horiz-adv-x="2043" 
d="M66 0v16q66 127 94 277q28 152 28 401v740h883v-631h418q198 0 325.5 -110.5t127.5 -291.5t-127.5 -291t-325.5 -110h-561v1303h-596v-588q0 -295 -33 -451q-29 -159 -80 -264h-153zM1071 131h416q137 0 221 72t84 198t-84 198.5t-221 72.5h-416v-541z" />
    <glyph glyph-name="uni040A" unicode="&#x40a;" horiz-adv-x="2013" 
d="M164 0v1434h143v-631h631v631h143v-631h377q198 0 325.5 -110.5t127.5 -291.5t-127.5 -291t-325.5 -110h-520v672h-631v-672h-143zM1081 131h375q137 0 221 72t84 198t-84 198.5t-221 72.5h-375v-541z" />
    <glyph glyph-name="uni040B" unicode="&#x40b;" horiz-adv-x="1617" 
d="M610 0v1303h-540v131h1224v-131h-540v-533q43 104 135 162.5t215 58.5q163 0 260.5 -101t97.5 -276v-614h-143v590q0 132 -63.5 201t-180.5 69q-137 0 -229 -111t-92 -276v-473h-144z" />
    <glyph glyph-name="uni040C" unicode="&#x40c;" horiz-adv-x="1193" 
d="M164 0v1434h143v-643l635 643h182l-690 -686l719 -748h-182l-664 682v-682h-143zM565 1599l183 273h194v-25l-250 -248h-127z" />
    <glyph glyph-name="uni040D" unicode="&#x40d;" horiz-adv-x="1554" 
d="M1247 1341l-839 -1341h-244v1434h143v-1342l840 1342h244v-1434h-144v1341zM692 1599l-250 248v25h195l182 -273h-127z" />
    <glyph glyph-name="uni040E" unicode="&#x40e;" horiz-adv-x="1378" 
d="M254 0l350 545l-567 889h172l481 -758l481 758h170l-917 -1434h-170zM932 1819q0 -103 -67 -160t-175 -57t-174.5 57t-66.5 160q0 20 2 26h118l-2 -22q0 -52 33.5 -83.5t89.5 -31.5t89.5 31.5t33.5 83.5l-2 22h119q2 -6 2 -26z" />
    <glyph glyph-name="uni040F" unicode="&#x40f;" horiz-adv-x="1335" 
d="M596 -225v225h-432v1434h143v-1303h721v1303h143v-1434h-432v-225h-143z" />
    <glyph glyph-name="uni0410" unicode="&#x410;" horiz-adv-x="1482" 
d="M29 0l612 1434h201l612 -1434h-151l-162 385h-799l-162 -385h-151zM397 516h688l-344 815z" />
    <glyph glyph-name="uni0411" unicode="&#x411;" horiz-adv-x="1382" 
d="M164 0v1434h964v-131h-821v-500h520q198 0 325.5 -110.5t127.5 -291.5t-127.5 -291t-325.5 -110h-663zM307 131h518q137 0 221 72t84 198t-84 198.5t-221 72.5h-518v-541z" />
    <glyph glyph-name="uni0412" unicode="&#x412;" horiz-adv-x="1382" 
d="M164 0v1434h620q203 0 324 -102.5t121 -262.5q0 -104 -57 -194.5t-146 -133.5q128 -56 191 -140.5t63 -215.5q0 -164 -130.5 -274.5t-322.5 -110.5h-663zM307 799h504q124 0 201.5 68t77.5 184q0 117 -82 184q-83 68 -197 68h-504v-504zM307 131h518q137 0 221 72t84 198
t-85 200.5t-220 74.5h-518v-545z" />
    <glyph glyph-name="uni0413" unicode="&#x413;" horiz-adv-x="1239" 
d="M1169 1303h-862v-1303h-143v1434h1005v-131z" />
    <glyph glyph-name="uni0414" unicode="&#x414;" horiz-adv-x="1351" 
d="M70 -225v356h106q75 115 113 227q38 113 47 232q10 137 10 325v519h813v-1303h123v-356h-143v225h-926v-225h-143zM342 131h674v1172h-527v-408q0 -285 -32 -442q-36 -175 -115 -322z" />
    <glyph glyph-name="uni0415" unicode="&#x415;" horiz-adv-x="1273" 
d="M164 1434h966v-131h-823v-496h762v-131h-762v-545h844v-131h-987v1434z" />
    <glyph glyph-name="uni0416" unicode="&#x416;" horiz-adv-x="1916" 
d="M1157 748l719 -748h-182l-664 682v-682h-143v682l-664 -682h-182l719 748l-690 686h182l635 -643v643h143v-643l635 643h182z" />
    <glyph glyph-name="uni0417" unicode="&#x417;" horiz-adv-x="1169" 
d="M94 373l127 55q68 -317 367 -317q145 0 236 71.5t91 202.5q0 132 -84.5 203t-218.5 71h-49v132h49q131 0 206 67.5t75 194.5q0 134 -77 202t-224 68q-126 0 -212.5 -73t-117.5 -199l-127 55q29 137 159 242.5t298 105.5q211 0 327.5 -104.5t116.5 -296.5
q0 -117 -62.5 -198.5t-166.5 -125.5q109 -31 180.5 -117.5t71.5 -205.5q0 -197 -132.5 -311.5t-338.5 -114.5q-196 0 -322 104.5t-172 288.5z" />
    <glyph glyph-name="uni0418" unicode="&#x418;" horiz-adv-x="1554" 
d="M1247 1341l-839 -1341h-244v1434h143v-1342l840 1342h244v-1434h-144v1341z" />
    <glyph glyph-name="uni0419" unicode="&#x419;" horiz-adv-x="1554" 
d="M1247 1341l-839 -1341h-244v1434h143v-1342l840 1342h244v-1434h-144v1341zM995 1819q0 -103 -66.5 -160t-174.5 -57t-175 57t-67 160q0 20 2 26h119l-2 -22q0 -52 33.5 -83.5t89.5 -31.5t89.5 31.5t33.5 83.5l-3 22h119q2 -6 2 -26z" />
    <glyph glyph-name="uni041A" unicode="&#x41a;" horiz-adv-x="1193" 
d="M164 0v1434h143v-643l635 643h182l-690 -686l719 -748h-182l-664 682v-682h-143z" />
    <glyph glyph-name="uni041B" unicode="&#x41b;" horiz-adv-x="1388" 
d="M66 0v16q66 127 94 277q28 152 28 401v740h1037v-1434h-144v1303h-749v-588q0 -295 -33 -451q-29 -159 -80 -264h-153z" />
    <glyph glyph-name="uni041C" unicode="&#x41c;" horiz-adv-x="1925" 
d="M1761 0h-143v1364l-551 -1364h-209l-551 1364v-1364h-143v1434h264l535 -1334l534 1334h264v-1434z" />
    <glyph glyph-name="uni041D" unicode="&#x41d;" horiz-adv-x="1490" 
d="M1184 641h-877v-641h-143v1434h143v-662h877v662h143v-1434h-143v641z" />
    <glyph glyph-name="uni041E" unicode="&#x41e;" horiz-adv-x="1658" 
d="M829 1454q153 3 290.5 -55.5t234.5 -159t153 -237.5t54 -285q2 -149 -54 -286t-153 -237t-234.5 -158.5t-290.5 -55.5q-153 -3 -290 55.5t-234 158.5t-153 237t-54 286q-2 148 54 285t153 237.5t234 159t290 55.5zM829 111q255 0 417.5 167t162.5 439q0 273 -162 439.5
t-418 166.5q-255 0 -417 -168t-162 -440q0 -179 76 -317.5t207.5 -212.5t295.5 -74z" />
    <glyph glyph-name="uni041F" unicode="&#x41f;" horiz-adv-x="1490" 
d="M1184 1303h-877v-1303h-143v1434h1163v-1434h-143v1303z" />
    <glyph glyph-name="uni0420" unicode="&#x420;" horiz-adv-x="1329" 
d="M307 610v-610h-143v1434h594q217 0 343 -115t126 -297q0 -180 -129 -296t-340 -116h-451zM307 741h438q153 0 241.5 72t88.5 209t-88.5 209t-241.5 72h-438v-562z" />
    <glyph glyph-name="uni0421" unicode="&#x421;" horiz-adv-x="1574" 
d="M250 717q0 -282 152.5 -444t400.5 -162q256 0 387 125t190 344l121 -50q-59 -249 -237 -399q-180 -151 -459 -151q-158 0 -290.5 56t-223.5 154t-142 234t-51 293q-2 152 52 289.5t148 237t226.5 156.5t280.5 54q256 0 407 -133q154 -133 215 -340l-133 -59
q-43 187 -171 294t-320 107q-239 0 -396 -166.5t-157 -439.5z" />
    <glyph glyph-name="uni0422" unicode="&#x422;" horiz-adv-x="1363" 
d="M1294 1434v-131h-540v-1303h-144v1303h-540v131h1224z" />
    <glyph glyph-name="uni0423" unicode="&#x423;" horiz-adv-x="1378" 
d="M254 0l350 545l-567 889h172l481 -758l481 758h170l-917 -1434h-170z" />
    <glyph glyph-name="uni0424" unicode="&#x424;" horiz-adv-x="1654" 
d="M899 0h-143v164h-101q-248 0 -402.5 157.5t-154.5 395.5q0 113 40.5 214t112 176t176.5 119t228 44h101v164h143v-164h100q123 0 228 -44t176.5 -119t112 -176t40.5 -214q0 -238 -154.5 -395.5t-402.5 -157.5h-100v-164zM672 295h84v844h-84q-205 0 -317.5 -112.5
t-112.5 -309.5t112.5 -309.5t317.5 -112.5zM983 1139h-84v-844h84q205 0 317.5 112.5t112.5 309.5t-112.5 309.5t-317.5 112.5z" />
    <glyph glyph-name="uni0425" unicode="&#x425;" horiz-adv-x="1335" 
d="M41 0l543 778l-461 656h172l373 -557l389 557h155l-460 -656l542 -778h-157l-469 676l-467 -676h-160z" />
    <glyph glyph-name="uni0426" unicode="&#x426;" horiz-adv-x="1394" 
d="M1182 -225v225h-1018v1434h143v-1303h721v1303h143v-1303h154v-356h-143z" />
    <glyph glyph-name="uni0427" unicode="&#x427;" horiz-adv-x="1363" 
d="M1057 0v510q-155 -186 -428 -186q-219 0 -348 135t-129 370v605h143v-584q0 -194 94.5 -294.5t269.5 -100.5q110 0 216.5 61.5t181.5 167.5v750h143v-1434h-143z" />
    <glyph glyph-name="uni0428" unicode="&#x428;" horiz-adv-x="1839" 
d="M1532 1434h143v-1434h-1511v1434h143v-1303h541v1303h143v-1303h541v1303z" />
    <glyph glyph-name="uni0429" unicode="&#x429;" horiz-adv-x="1898" 
d="M1686 -225v225h-1522v1434h143v-1303h541v1303h143v-1303h541v1303h143v-1303h154v-356h-143z" />
    <glyph glyph-name="uni042A" unicode="&#x42a;" horiz-adv-x="1583" 
d="M1481 401q0 -181 -127.5 -291t-325.5 -110h-663v1303h-295v131h438v-631h520q198 0 325.5 -110.5t127.5 -291.5zM1331 401q0 126 -84 198.5t-221 72.5h-518v-541h518q137 0 221 72t84 198z" />
    <glyph glyph-name="uni042B" unicode="&#x42b;" horiz-adv-x="1853" 
d="M164 0v1434h143v-631h520q198 0 325.5 -110.5t127.5 -291.5t-127.5 -291t-325.5 -110h-663zM307 131h518q137 0 221 72t84 198t-84 198.5t-221 72.5h-518v-541zM1546 0v1434h144v-1434h-144z" />
    <glyph glyph-name="uni042C" unicode="&#x42c;" horiz-adv-x="1382" 
d="M164 0v1434h143v-631h520q198 0 325.5 -110.5t127.5 -291.5t-127.5 -291t-325.5 -110h-663zM307 131h518q137 0 221 72t84 198t-84 198.5t-221 72.5h-518v-541z" />
    <glyph glyph-name="uni042D" unicode="&#x42d;" horiz-adv-x="1574" 
d="M74 530l121 50q60 -221 188 -344q131 -125 389 -125q236 0 390 145t169 401h-659v131h657q-14 162 -91.5 284.5t-198.5 186.5t-267 64q-192 0 -320 -107t-171 -294l-134 59q61 206 213 340q154 133 410 133q155 2 288.5 -54t226 -154.5t143.5 -235.5t49 -293
q0 -161 -48 -296.5t-137.5 -233.5t-223.5 -152.5t-298 -54.5q-279 0 -459 151q-179 150 -237 399z" />
    <glyph glyph-name="uni042E" unicode="&#x42e;" horiz-adv-x="2195" 
d="M2097 717q2 -149 -54 -286t-153 -237t-234 -158.5t-290 -55.5q-144 -2 -274.5 49t-226 140.5t-156 212t-70.5 259.5h-332v-641h-143v1434h143v-662h330q7 140 67 266.5t156 218.5t228 145.5t278 51.5q153 3 290 -55.5t234 -159t153 -237.5t54 -285zM1946 717
q0 273 -162 439.5t-418 166.5q-255 0 -417.5 -168t-162.5 -440q0 -134 44.5 -248t121.5 -191.5t184 -121t230 -43.5q255 0 417.5 167t162.5 439z" />
    <glyph glyph-name="uni042F" unicode="&#x42f;" horiz-adv-x="1353" 
d="M102 0v25l506 598h-24q-212 0 -339.5 111t-127.5 296q0 172 124 288t328 116h621v-1434h-143v623h-246l-531 -623h-168zM584 754h463v549h-463q-144 0 -229 -73.5t-85 -201.5t85 -201t229 -73z" />
    <glyph glyph-name="uni0430" unicode="&#x430;" horiz-adv-x="1032" 
d="M90 274q0 137 97 214t251 77q131 0 252 -43l68 -24v133q0 117 -70.5 179t-195.5 62q-112 0 -187.5 -54.5t-95.5 -155.5l-117 34q25 134 133 214.5t267 80.5q187 0 292 -101.5t105 -275.5v-614h-131v139q-40 -72 -137 -115.5t-205 -43.5q-148 0 -237 80.5t-89 213.5z
M758 356v33l-105 35q-103 35 -200 35q-111 0 -171.5 -48.5t-60.5 -138.5q0 -79 61 -126.5t160 -47.5q141 0 228.5 70.5t87.5 187.5z" />
    <glyph glyph-name="uni0431" unicode="&#x431;" horiz-adv-x="1138" 
d="M82 594q0 274 136.5 445t383.5 243q168 45 233.5 88t65.5 113l-2 22h123l2 -30q0 -113 -84.5 -182t-277.5 -119q-192 -50 -295.5 -152t-133.5 -260q50 110 146.5 169.5t228.5 59.5q139 0 242 -69t155 -183.5t52 -257.5q0 -215 -134.5 -358t-342.5 -143q-127 0 -224 48.5
t-156 134t-88.5 194.5t-29.5 237zM918 481q0 170 -97 280.5t-248 110.5t-247.5 -110t-96.5 -281q0 -172 95 -277.5t249 -105.5t249.5 106t95.5 277z" />
    <glyph glyph-name="uni0432" unicode="&#x432;" horiz-adv-x="1054" 
d="M143 0v971h461q144 0 231 -70.5t87 -191.5q0 -71 -43 -127.5t-113 -81.5q85 -21 135.5 -78.5t50.5 -145.5q0 -118 -91.5 -197t-225.5 -79h-492zM274 553h336q87 0 134 38.5t47 110.5t-47.5 111t-133.5 39h-336v-299zM274 119h357q88 0 139 40.5t51 116.5t-51 117t-139 41
h-357v-315z" />
    <glyph glyph-name="uni0433" unicode="&#x433;" horiz-adv-x="806" 
d="M143 0v971h619v-119h-488v-852h-131z" />
    <glyph glyph-name="uni0434" unicode="&#x434;" horiz-adv-x="1140" 
d="M78 -225v344h92q70 136 90 252q23 131 23 295v305h678v-852h102v-344h-131v225h-723v-225h-131zM309 119h520v733h-415v-186q0 -180 -27 -297q-23 -108 -78 -250z" />
    <glyph glyph-name="uni0435" unicode="&#x435;" horiz-adv-x="1044" 
d="M856 334l115 -45q-107 -309 -416 -309q-206 0 -339.5 140.5t-133.5 371.5q0 137 57.5 251t162 181t233.5 67q195 0 309 -106.5t114 -290.5q0 -56 -14 -127h-723q1 -171 92.5 -270t239.5 -99q230 0 303 236zM221 573h606l2 43q0 120 -84.5 188t-212.5 68
q-125 0 -211.5 -81.5t-99.5 -217.5z" />
    <glyph glyph-name="uni0436" unicode="&#x436;" horiz-adv-x="1384" 
d="M51 0l457 512l-440 459h155l404 -432v432h131v-432l403 432h156l-440 -459l456 -512h-151l-424 477v-477h-131v477l-424 -477h-152z" />
    <glyph glyph-name="uni0437" unicode="&#x437;" horiz-adv-x="911" 
d="M74 283l119 53q18 -110 86 -174t180 -64q107 0 170 48.5t63 132.5q0 75 -50.5 114t-135.5 39h-84v119h63q73 0 128 45.5t55 120.5q0 77 -54.5 116t-148.5 39q-90 0 -147 -49t-78 -131l-113 56q41 117 129 180t209 63q149 0 241.5 -75t92.5 -199q0 -80 -49 -139t-125 -80
q198 -44 198 -219q0 -129 -103.5 -214t-268.5 -85q-144 0 -250 83q-106 86 -127 220z" />
    <glyph glyph-name="uni0438" unicode="&#x438;" horiz-adv-x="1130" 
d="M143 0v971h131v-840l523 840h190v-971h-131v840l-522 -840h-191z" />
    <glyph glyph-name="uni0439" unicode="&#x439;" horiz-adv-x="1130" 
d="M143 0v971h131v-840l523 840h190v-971h-131v840l-522 -840h-191zM807 1356q0 -103 -67 -160t-175 -57t-174.5 57t-66.5 160q0 20 2 26h118l-2 -22q0 -52 33.5 -83.5t89.5 -31.5t89.5 31.5t33.5 83.5l-2 22h119q2 -6 2 -26z" />
    <glyph glyph-name="uni043A" unicode="&#x43a;" horiz-adv-x="909" 
d="M143 0v971h131v-432l404 432h164l-441 -459l457 -512h-160l-424 477v-477h-131z" />
    <glyph glyph-name="uni043B" unicode="&#x43b;" horiz-adv-x="1044" 
d="M61 0v25q65 122 99 262q33 138 33 389v295h708v-971h-131v852h-446v-166q0 -270 -37 -418q-34 -145 -94 -268h-132z" />
    <glyph glyph-name="uni043C" unicode="&#x43c;" horiz-adv-x="1376" 
d="M1233 971v-971h-131v846l-326 -846h-176l-326 846v-846h-131v971h215l330 -865l330 865h215z" />
    <glyph glyph-name="uni043D" unicode="&#x43d;" horiz-adv-x="1091" 
d="M274 971v-412h543v412h131v-971h-131v440h-543v-440h-131v971h131z" />
    <glyph glyph-name="uni043E" unicode="&#x43e;" horiz-adv-x="1130" 
d="M82 485q0 218 134 362t349 144t349.5 -144t134.5 -362t-135 -361.5t-349 -143.5t-348.5 143.5t-134.5 361.5zM909 485q0 170 -96.5 278.5t-247.5 108.5t-247.5 -108.5t-96.5 -278.5t96.5 -278.5t247.5 -108.5t247.5 108.5t96.5 278.5z" />
    <glyph glyph-name="uni043F" unicode="&#x43f;" horiz-adv-x="1089" 
d="M143 0v971h803v-971h-131v852h-541v-852h-131z" />
    <glyph glyph-name="uni0440" unicode="&#x440;" horiz-adv-x="1157" 
d="M143 971h123v-195q44 87 144 150q103 65 219 65q196 0 321 -136t125 -363t-129 -369.5t-321 -142.5q-115 0 -208 51t-143 139v-576h-131v1377zM606 98q65 0 123.5 22.5t107.5 67.5t78 122.5t29 176.5t-29 175.5t-78 121t-107.5 66.5t-123.5 22q-61 0 -121 -26t-109 -73.5
t-79.5 -122t-30.5 -163.5t30.5 -164.5t79.5 -123.5t109 -74.5t121 -26.5z" />
    <glyph glyph-name="uni0441" unicode="&#x441;" horiz-adv-x="1118" 
d="M580 98q145 0 227 75.5t125 234.5l112 -43q-44 -185 -164 -285t-300 -100q-222 0 -360 141t-138 371q-2 105 37.5 199.5t106 160.5t155.5 103.5t182 35.5q173 0 285 -88t153 -254l-118 -37q-70 260 -322 260q-63 0 -124 -24.5t-111.5 -70t-81.5 -119.5t-31 -164
q0 -176 108.5 -286t258.5 -110z" />
    <glyph glyph-name="uni0442" unicode="&#x442;" horiz-adv-x="802" 
d="M336 0v852h-303v119h737v-119h-303v-852h-131z" />
    <glyph glyph-name="uni0443" unicode="&#x443;" horiz-adv-x="915" 
d="M743 971h142l-582 -1377h-141l215 508l-357 869h144l287 -695z" />
    <glyph glyph-name="uni0444" unicode="&#x444;" horiz-adv-x="1802" 
d="M836 -406v560q-54 -80 -140 -127t-178 -47q-185 0 -310.5 144t-125.5 359q0 223 124.5 365.5t311.5 142.5q107 0 192 -50t126 -140v633h131v-633q41 90 125.5 140t191.5 50q187 0 311.5 -142.5t124.5 -365.5q0 -215 -125.5 -359t-310.5 -144q-92 0 -177.5 47t-139.5 127
v-560h-131zM844 483q0 174 -90 279.5t-226 105.5q-135 0 -225 -105t-90 -280t90 -280t225 -105q136 0 226 105.5t90 279.5zM1589 483q0 175 -90 280t-225 105q-136 0 -226 -105.5t-90 -279.5t90 -279.5t226 -105.5q135 0 225 105t90 280z" />
    <glyph glyph-name="uni0445" unicode="&#x445;" horiz-adv-x="917" 
d="M846 971l-314 -459l357 -512h-150l-280 408l-281 -408h-149l358 508l-315 463h157l230 -353l227 353h160z" />
    <glyph glyph-name="uni0446" unicode="&#x446;" horiz-adv-x="1122" 
d="M913 -225v225h-770v971h131v-852h539v852h131v-852h100v-344h-131z" />
    <glyph glyph-name="uni0447" unicode="&#x447;" horiz-adv-x="1091" 
d="M817 532v439h131v-971h-131v410q-44 -81 -135.5 -132t-206.5 -51q-159 0 -245.5 91t-86.5 251v402h131v-402q0 -107 58 -165t155 -58q103 0 182.5 45.5t147.5 140.5z" />
    <glyph glyph-name="uni0448" unicode="&#x448;" horiz-adv-x="1564" 
d="M143 0v971h131v-852h443v852h131v-852h442v852h131v-971h-1278z" />
    <glyph glyph-name="uni0449" unicode="&#x449;" horiz-adv-x="1599" 
d="M1391 -225v225h-1248v971h131v-852h443v852h131v-852h442v852h131v-852h101v-344h-131z" />
    <glyph glyph-name="uni044A" unicode="&#x44a;" horiz-adv-x="1148" 
d="M295 0v852h-246v119h377v-369h303q136 0 227 -87t91 -214q0 -133 -89 -217t-229 -84h-434zM426 119h299q85 0 137.5 50t52.5 132t-52.5 132t-137.5 50h-299v-364z" />
    <glyph glyph-name="uni044B" unicode="&#x44b;" horiz-adv-x="1415" 
d="M143 0v971h131v-369h304q136 0 226.5 -87t90.5 -214q0 -133 -88.5 -217t-228.5 -84h-435zM274 119h299q85 0 138 50t53 132t-53 132t-138 50h-299v-364zM1141 971h131v-971h-131v971z" />
    <glyph glyph-name="uni044C" unicode="&#x44c;" horiz-adv-x="997" 
d="M143 0v971h131v-369h304q136 0 226.5 -87t90.5 -214q0 -133 -88.5 -217t-228.5 -84h-435zM274 119h299q85 0 138 50t53 132t-53 132t-138 50h-299v-364z" />
    <glyph glyph-name="uni044D" unicode="&#x44d;" horiz-adv-x="1118" 
d="M1036 492q0 -230 -137.5 -371t-359.5 -141q-180 0 -300.5 100t-164.5 285l112 43q43 -158 125.5 -234t227.5 -76q135 0 239.5 91.5t122.5 242.5h-391v119h391q-18 150 -119.5 235.5t-224.5 85.5q-251 0 -321 -260l-119 37q41 166 153 254t285 88q134 0 243.5 -63
t173.5 -177.5t64 -258.5z" />
    <glyph glyph-name="uni044E" unicode="&#x44e;" horiz-adv-x="1503" 
d="M1421 481q0 -143 -60 -257t-170.5 -179t-252.5 -65q-205 0 -337 129t-144 331h-183v-440h-131v971h131v-412h185q25 193 154 312.5t325 119.5q215 0 349 -145t134 -365zM1282 481q0 171 -96.5 281t-247.5 110t-247.5 -110t-96.5 -281q0 -172 95 -277.5t249 -105.5
t249 105.5t95 277.5z" />
    <glyph glyph-name="uni044F" unicode="&#x44f;" horiz-adv-x="1001" 
d="M78 20l309 379q-125 0 -215 78q-88 76 -88 209q0 129 85 207t232 78h457v-971h-131v399h-172l-338 -399h-139v20zM727 518v334h-324q-90 0 -139 -45t-49 -127q0 -78 48.5 -120t139.5 -42h324z" />
    <glyph glyph-name="uni0450" unicode="&#x450;" horiz-adv-x="1044" 
d="M856 334l115 -45q-107 -309 -416 -309q-206 0 -339.5 140.5t-133.5 371.5q0 137 57.5 251t162 181t233.5 67q195 0 309 -106.5t114 -290.5q0 -56 -14 -127h-723q1 -171 92.5 -270t239.5 -99q230 0 303 236zM221 573h606l2 43q0 120 -84.5 188t-212.5 68
q-125 0 -211.5 -81.5t-99.5 -217.5zM471 1137l-250 247v25h195l182 -272h-127z" />
    <glyph glyph-name="uni0451" unicode="&#x451;" horiz-adv-x="1044" 
d="M856 334l115 -45q-107 -309 -416 -309q-206 0 -339.5 140.5t-133.5 371.5q0 137 57.5 251t162 181t233.5 67q195 0 309 -106.5t114 -290.5q0 -56 -14 -127h-723q1 -171 92.5 -270t239.5 -99q230 0 303 236zM221 573h606l2 43q0 120 -84.5 188t-212.5 68
q-125 0 -211.5 -81.5t-99.5 -217.5zM293 1169v172h168v-172h-168zM600 1169v172h168v-172h-168z" />
    <glyph glyph-name="uni0452" unicode="&#x452;" horiz-adv-x="1110" 
d="M967 614v-815q0 -115 -59.5 -170t-153.5 -55q-88 0 -149.5 43.5t-80.5 118.5l119 51q26 -90 111 -90q82 0 82 98v807q0 132 -63 201t-177 69q-137 0 -229.5 -111t-92.5 -276v-485h-131v1169h-143v107h143v158h131v-158h326v-107h-326v-411q43 106 138.5 169.5t212.5 63.5
q159 0 250.5 -100.5t91.5 -276.5z" />
    <glyph glyph-name="uni0453" unicode="&#x453;" horiz-adv-x="806" 
d="M143 0v971h619v-119h-488v-852h-131zM389 1137l182 272h195v-25l-250 -247h-127z" />
    <glyph glyph-name="uni0454" unicode="&#x454;" horiz-adv-x="1118" 
d="M82 492q0 144 64 258.5t173.5 177.5t243.5 63q173 0 285 -88t153 -254l-118 -37q-70 260 -322 260q-123 0 -224.5 -85.5t-119.5 -235.5h391v-119h-391q18 -151 123 -242.5t240 -91.5q145 0 227 75.5t125 234.5l112 -43q-44 -185 -164 -285t-300 -100q-222 0 -360 141
t-138 371z" />
    <glyph glyph-name="uni0455" unicode="&#x455;" horiz-adv-x="962" 
d="M76 262l110 57q48 -118 119.5 -169.5t192.5 -51.5q107 0 174 48.5t67 129.5q0 78 -63.5 124.5t-212.5 64.5q-334 42 -334 270q0 113 94.5 184.5t243.5 71.5q253 0 342 -221l-104 -57q-26 83 -90 127.5t-152 44.5q-92 0 -151.5 -41t-59.5 -109q0 -72 65.5 -112.5
t212.5 -59.5q166 -20 253 -91.5t87 -184.5q0 -141 -108 -224q-109 -83 -273 -83q-155 0 -264.5 77t-148.5 205z" />
    <glyph glyph-name="uni0456" unicode="&#x456;" horiz-adv-x="417" 
d="M143 971h131v-971h-131v971zM133 1169v170h152v-170h-152z" />
    <glyph glyph-name="uni0457" unicode="&#x457;" horiz-adv-x="417" 
d="M143 971h131v-971h-131v971zM-33 1169v172h168v-172h-168zM274 1169v172h168v-172h-168z" />
    <glyph glyph-name="uni0458" unicode="&#x458;" horiz-adv-x="417" 
d="M143 -406v1377h131v-1377h-131zM133 1169v170h152v-170h-152z" />
    <glyph glyph-name="uni0459" unicode="&#x459;" horiz-adv-x="1558" 
d="M61 0v25q65 122 99 262q33 138 33 389v295h643v-369h303q136 0 226.5 -87t90.5 -214q0 -133 -88.5 -217t-228.5 -84h-434v852h-381v-166q0 -270 -37 -418q-34 -145 -94 -268h-132zM836 119h299q85 0 137.5 50t52.5 132t-52.5 132t-137.5 50h-299v-364z" />
    <glyph glyph-name="uni045A" unicode="&#x45a;" horiz-adv-x="1611" 
d="M143 0v971h131v-412h498v412h131v-412h297q143 0 226 -75t83 -205q0 -134 -81 -206.5t-228 -72.5h-428v440h-498v-440h-131zM903 119h285q190 0 190 160q0 161 -190 161h-285v-321z" />
    <glyph glyph-name="uni045B" unicode="&#x45b;" horiz-adv-x="1110" 
d="M274 0h-131v1434h131v-676q43 106 138.5 169.5t212.5 63.5q159 0 250.5 -100.5t91.5 -276.5v-614h-131v602q0 132 -63 201t-177 69q-137 0 -229.5 -111t-92.5 -276v-485zM0 1276h600v-107h-600v107z" />
    <glyph glyph-name="uni045C" unicode="&#x45c;" horiz-adv-x="909" 
d="M143 0v971h131v-432l404 432h164l-441 -459l457 -512h-160l-424 477v-477h-131zM389 1137l182 272h195v-25l-250 -247h-127z" />
    <glyph glyph-name="uni045D" unicode="&#x45d;" horiz-adv-x="1130" 
d="M143 0v971h131v-840l523 840h190v-971h-131v840l-522 -840h-191zM502 1137l-250 247v25h194l183 -272h-127z" />
    <glyph glyph-name="uni045E" unicode="&#x45e;" horiz-adv-x="915" 
d="M743 971h142l-582 -1377h-141l215 508l-357 869h144l287 -695zM680 1356q0 -103 -67 -160t-175 -57t-174.5 57t-66.5 160q0 20 2 26h118l-2 -22q0 -52 33.5 -83.5t89.5 -31.5t89.5 31.5t33.5 83.5l-2 22h119q2 -6 2 -26z" />
    <glyph glyph-name="uni045F" unicode="&#x45f;" horiz-adv-x="1089" 
d="M479 -225v225h-336v971h131v-852h541v852h131v-971h-336v-225h-131z" />
    <glyph glyph-name="uni0462" unicode="&#x462;" horiz-adv-x="1525" 
d="M1423 401q0 -181 -127 -291t-325 -110h-664v1098h-299v119h299v217h144v-217h282v-119h-282v-295h520q198 0 325 -110.5t127 -291.5zM1274 401q0 126 -84 198.5t-221 72.5h-518v-541h518q137 0 221 72t84 198z" />
    <glyph glyph-name="uni0463" unicode="&#x463;" horiz-adv-x="950" 
d="M848 381q0 -183 -111 -282t-299 -99h-299v1098h-245v119h245v217h131v-217h320v-119h-320v-336h168q188 0 299 -99t111 -282zM717 381q0 128 -76 195t-217 67h-154v-524h154q141 0 217 67t76 195z" />
    <glyph glyph-name="uni0472" unicode="&#x472;" horiz-adv-x="1658" 
d="M1561 717q2 -149 -54 -286t-153 -237t-234.5 -158.5t-290.5 -55.5q-153 -3 -290 55.5t-234 158.5t-153 237t-54 286q-2 148 54 285t153 237.5t234 159t290 55.5q153 3 290.5 -55.5t234.5 -159t153 -237.5t54 -285zM252 764q119 113 297 113q79 0 140.5 -23.5t162.5 -83.5
q86 -51 138.5 -71.5t111.5 -20.5q183 0 299 151q-31 225 -187.5 359.5t-384.5 134.5q-243 0 -402.5 -153.5t-174.5 -405.5zM1407 670q-113 -113 -297 -113q-79 0 -140.5 23.5t-162.5 83.5q-86 51 -138.5 71.5t-111.5 20.5q-182 0 -299 -152q34 -225 190.5 -359t380.5 -134
q242 0 404 153.5t174 405.5z" />
    <glyph glyph-name="uni0473" unicode="&#x473;" horiz-adv-x="1130" 
d="M1049 481q0 -217 -134.5 -359t-349.5 -142q-142 0 -252.5 65t-170.5 179t-60 257q0 220 134 365t349 145t349.5 -145t134.5 -365zM223 537q71 47 172 47q75 0 180 -45q47 -18 64.5 -24t43 -11.5t48.5 -5.5q109 0 172 63q-23 141 -114.5 226t-223.5 85
q-138 0 -231.5 -92.5t-110.5 -242.5zM907 438q-70 -49 -172 -49q-75 0 -180 45q-47 18 -64.5 24t-43 11.5t-48.5 5.5q-109 0 -174 -65q20 -141 112.5 -226.5t227.5 -85.5q143 0 236.5 93t105.5 247z" />
    <glyph glyph-name="uni0474" unicode="&#x474;" horiz-adv-x="1560" 
d="M621 0l-596 1434h147l549 -1332l498 1209q67 164 208 164q152 0 187 -148l-123 -49q-15 57 -68 57q-47 0 -73 -63l-529 -1272h-200z" />
    <glyph glyph-name="uni0475" unicode="&#x475;" horiz-adv-x="1097" 
d="M430 0l-389 971h139l338 -852l293 745q32 77 75 113.5t109 36.5q97 0 140 -82l-95 -90q-18 30 -51 30q-35 0 -49 -36l-334 -836h-176z" />
    <glyph glyph-name="uni0490" unicode="&#x490;" horiz-adv-x="1239" 
d="M1026 1782h143v-479h-862v-1303h-143v1434h862v348z" />
    <glyph glyph-name="uni0491" unicode="&#x491;" horiz-adv-x="806" 
d="M631 1198h131v-346h-488v-852h-131v971h488v227z" />
    <glyph glyph-name="uni0492" unicode="&#x492;" horiz-adv-x="1318" 
d="M1208 1303h-862v-521h533v-106h-533v-676h-143v676h-162v106h162v652h1005v-131z" />
    <glyph glyph-name="uni0493" unicode="&#x493;" horiz-adv-x="831" 
d="M795 852h-488v-311h246v-99h-246v-442h-131v442h-131v99h131v430h619v-119z" />
    <glyph glyph-name="uni0496" unicode="&#x496;" horiz-adv-x="1916" 
d="M1157 748l719 -748h-182l-664 682v-682h-143v682l-664 -682h-182l719 748l-690 686h182l635 -643v643h143v-643l635 643h182zM1749 -225v356h143v-356h-143z" />
    <glyph glyph-name="uni0497" unicode="&#x497;" horiz-adv-x="1384" 
d="M51 0l457 512l-440 459h155l404 -432v432h131v-432l403 432h156l-440 -459l456 -512h-151l-424 477v-477h-131v477l-424 -477h-152zM1217 -225v356h122v-356h-122z" />
    <glyph glyph-name="uni0498" unicode="&#x498;" horiz-adv-x="1169" 
d="M94 373l127 55q68 -317 367 -317q145 0 236 71.5t91 202.5q0 132 -84.5 203t-218.5 71h-49v132h49q131 0 206 67.5t75 194.5q0 134 -77 202t-224 68q-126 0 -212.5 -73t-117.5 -199l-127 55q29 137 159 242.5t298 105.5q211 0 327.5 -104.5t116.5 -296.5
q0 -117 -62.5 -198.5t-166.5 -125.5q109 -31 180.5 -117.5t71.5 -205.5q0 -197 -132.5 -311.5t-338.5 -114.5q-196 0 -322 104.5t-172 288.5zM528 -113q19 23 48.5 37.5t58.5 14.5q69 0 112.5 -43t43.5 -115q0 -74 -48 -120t-122 -46q-69 0 -118 36.5t-61 102.5l80 21
q6 -36 32 -59t64 -23q44 0 69.5 24.5t25.5 63.5q0 41 -25.5 65.5t-69.5 24.5q-27 0 -52.5 -15t-37.5 -38l-82 16q34 110 46 199h92q-33 -102 -56 -146z" />
    <glyph glyph-name="uni0499" unicode="&#x499;" horiz-adv-x="911" 
d="M74 283l119 53q18 -110 86 -174t180 -64q107 0 170 48.5t63 132.5q0 75 -50.5 114t-135.5 39h-84v119h63q73 0 128 45.5t55 120.5q0 77 -54.5 116t-148.5 39q-90 0 -147 -49t-78 -131l-113 56q41 117 129 180t209 63q149 0 241.5 -75t92.5 -199q0 -80 -49 -139t-125 -80
q198 -44 198 -219q0 -129 -103.5 -214t-268.5 -85q-144 0 -250 83q-106 86 -127 220zM385 -113q19 23 48.5 37.5t58.5 14.5q69 0 112 -43t43 -115q0 -74 -48 -120t-122 -46q-69 0 -117.5 36.5t-60.5 102.5l80 21q6 -36 32 -59t64 -23q43 0 68.5 24.5t25.5 63.5q0 42 -25 66
t-69 24q-27 0 -52.5 -15t-37.5 -38l-82 16q32 104 45 199h92q-34 -107 -55 -146z" />
    <glyph glyph-name="uni049A" unicode="&#x49a;" horiz-adv-x="1193" 
d="M164 0v1434h143v-643l635 643h182l-690 -686l719 -748h-182l-664 682v-682h-143zM1026 -225v356h143v-356h-143z" />
    <glyph glyph-name="uni049B" unicode="&#x49b;" horiz-adv-x="909" 
d="M143 0v971h131v-432l404 432h164l-441 -459l457 -512h-160l-424 477v-477h-131zM741 -225v356h123v-356h-123z" />
    <glyph glyph-name="uni04A0" unicode="&#x4a0;" horiz-adv-x="1501" 
d="M741 748l719 -748h-182l-664 682v-682h-143v1315h-401v119h544v-643l635 643h183z" />
    <glyph glyph-name="uni04A1" unicode="&#x4a1;" horiz-adv-x="1030" 
d="M522 512l457 -512h-160l-424 477v-477h-131v864h-223v107h354v-432l404 432h164z" />
    <glyph glyph-name="uni04A2" unicode="&#x4a2;" horiz-adv-x="1490" 
d="M1184 641h-877v-641h-143v1434h143v-662h877v662h143v-1434h-143v641zM1303 -225v356h143v-356h-143z" />
    <glyph glyph-name="uni04A3" unicode="&#x4a3;" horiz-adv-x="1091" 
d="M274 971v-412h543v412h131v-971h-131v440h-543v-440h-131v971h131zM948 -225v356h123v-356h-123z" />
    <glyph glyph-name="uni04AA" unicode="&#x4aa;" horiz-adv-x="1574" 
d="M250 717q0 -282 152.5 -444t400.5 -162q256 0 387 125t190 344l121 -50q-59 -249 -237 -399q-180 -151 -459 -151q-158 0 -290.5 56t-223.5 154t-142 234t-51 293q-2 152 52 289.5t148 237t226.5 156.5t280.5 54q256 0 407 -133q154 -133 215 -340l-133 -59
q-43 187 -171 294t-320 107q-239 0 -396 -166.5t-157 -439.5zM729 -113q19 23 48.5 37.5t58.5 14.5q69 0 112 -43t43 -115q0 -74 -48 -120t-122 -46q-69 0 -117.5 36.5t-60.5 102.5l80 21q6 -36 32 -59t64 -23q43 0 68.5 24.5t25.5 63.5q0 42 -25 66t-69 24q-27 0 -52.5 -15
t-37.5 -38l-82 16q32 104 45 199h92q-34 -107 -55 -146z" />
    <glyph glyph-name="uni04AB" unicode="&#x4ab;" horiz-adv-x="1118" 
d="M580 98q145 0 227 75.5t125 234.5l112 -43q-44 -185 -164 -285t-300 -100q-222 0 -360 141t-138 371q-2 105 37.5 199.5t106 160.5t155.5 103.5t182 35.5q173 0 285 -88t153 -254l-118 -37q-70 260 -322 260q-63 0 -124 -24.5t-111.5 -70t-81.5 -119.5t-31 -164
q0 -176 108.5 -286t258.5 -110zM518 -113q19 23 48.5 37.5t58.5 14.5q69 0 112 -43t43 -115q0 -74 -48 -120t-122 -46q-69 0 -117.5 36.5t-60.5 102.5l80 21q6 -36 32 -59t64 -23q43 0 68.5 24.5t25.5 63.5q0 42 -25 66t-69 24q-27 0 -52.5 -15t-37.5 -38l-82 16
q32 104 45 199h92q-34 -107 -55 -146z" />
    <glyph glyph-name="uni04AE" unicode="&#x4ae;" horiz-adv-x="1323" 
d="M195 1434l467 -711l466 711h162l-557 -836v-598h-143v598l-557 836h162z" />
    <glyph glyph-name="uni04AF" unicode="&#x4af;" horiz-adv-x="1036" 
d="M453 -406v406l-412 971h139l338 -830l338 830h139l-411 -971v-406h-131z" />
    <glyph glyph-name="uni04B0" unicode="&#x4b0;" horiz-adv-x="1323" 
d="M1290 1434l-485 -729h276v-107h-348v-598h-143v598h-346v107h274l-485 729h162l467 -711l466 711h162z" />
    <glyph glyph-name="uni04B1" unicode="&#x4b1;" horiz-adv-x="1036" 
d="M995 971l-389 -920h170v-102h-192v-355h-131v355h-193v102h170l-389 920h139l338 -830l338 830h139z" />
    <glyph glyph-name="uni04B2" unicode="&#x4b2;" horiz-adv-x="1335" 
d="M41 0l543 778l-461 656h172l373 -557l389 557h155l-460 -656l542 -778h-157l-469 676l-467 -676h-160zM1184 -225v356h143v-356h-143z" />
    <glyph glyph-name="uni04B3" unicode="&#x4b3;" horiz-adv-x="917" 
d="M846 971l-314 -459l357 -512h-150l-280 408l-281 -408h-149l358 508l-315 463h157l230 -353l227 353h160zM778 -225v356h123v-356h-123z" />
    <glyph glyph-name="uni04B6" unicode="&#x4b6;" horiz-adv-x="1363" 
d="M1057 0v510q-155 -186 -428 -186q-219 0 -348 135t-129 370v605h143v-584q0 -194 94.5 -294.5t269.5 -100.5q110 0 216.5 61.5t181.5 167.5v750h143v-1434h-143zM1200 -225v356h143v-356h-143z" />
    <glyph glyph-name="uni04B7" unicode="&#x4b7;" horiz-adv-x="1091" 
d="M817 532v439h131v-971h-131v410q-44 -81 -135.5 -132t-206.5 -51q-159 0 -245.5 91t-86.5 251v402h131v-402q0 -107 58 -165t155 -58q103 0 182.5 45.5t147.5 140.5zM948 -225v356h123v-356h-123z" />
    <glyph glyph-name="uni04BA" unicode="&#x4ba;" horiz-adv-x="1363" 
d="M164 0v1434h143v-510q155 186 428 186q219 0 348 -135t129 -371v-604h-143v584q0 194 -94.5 294.5t-269.5 100.5q-110 0 -216.5 -61.5t-181.5 -167.5v-750h-143z" />
    <glyph glyph-name="uni04BB" unicode="&#x4bb;" horiz-adv-x="1110" 
d="M274 0h-131v1434h131v-676q43 106 138.5 169.5t212.5 63.5q159 0 250.5 -100.5t91.5 -276.5v-614h-131v602q0 132 -63 201t-177 69q-137 0 -229.5 -111t-92.5 -276v-485z" />
    <glyph glyph-name="uni04C0" unicode="&#x4c0;" horiz-adv-x="471" 
d="M164 0v1434h143v-1434h-143z" />
    <glyph glyph-name="uni04C1" unicode="&#x4c1;" horiz-adv-x="1916" 
d="M1157 748l719 -748h-182l-664 682v-682h-143v682l-664 -682h-182l719 748l-690 686h182l635 -643v643h143v-643l635 643h182zM1200 1819q0 -103 -67 -160t-175 -57t-174.5 57t-66.5 160q0 20 2 26h119l-2 -22q0 -52 33 -83.5t89 -31.5t89.5 31.5t33.5 83.5l-2 22h119
q2 -6 2 -26z" />
    <glyph glyph-name="uni04C2" unicode="&#x4c2;" horiz-adv-x="1384" 
d="M51 0l457 512l-440 459h155l404 -432v432h131v-432l403 432h156l-440 -459l456 -512h-151l-424 477v-477h-131v477l-424 -477h-152zM934 1356q0 -103 -67 -160t-175 -57t-174.5 57t-66.5 160q0 20 2 26h118l-2 -22q0 -52 33.5 -83.5t89.5 -31.5t89.5 31.5t33.5 83.5
l-2 22h119q2 -6 2 -26z" />
    <glyph glyph-name="uni04CF" unicode="&#x4cf;" horiz-adv-x="417" 
d="M143 0v1434h131v-1434h-131z" />
    <glyph glyph-name="uni04D0" unicode="&#x4d0;" horiz-adv-x="1482" 
d="M29 0l612 1434h201l612 -1434h-151l-162 385h-799l-162 -385h-151zM397 516h688l-344 815zM983 1819q0 -103 -67 -160t-175 -57t-174.5 57t-66.5 160q0 20 2 26h119l-3 -22q0 -52 33.5 -83.5t89.5 -31.5t89.5 31.5t33.5 83.5l-2 22h119q2 -6 2 -26z" />
    <glyph glyph-name="uni04D1" unicode="&#x4d1;" horiz-adv-x="1032" 
d="M90 274q0 137 97 214t251 77q131 0 252 -43l68 -24v133q0 117 -70.5 179t-195.5 62q-112 0 -187.5 -54.5t-95.5 -155.5l-117 34q25 134 133 214.5t267 80.5q187 0 292 -101.5t105 -275.5v-614h-131v139q-40 -72 -137 -115.5t-205 -43.5q-148 0 -237 80.5t-89 213.5z
M758 356v33l-105 35q-103 35 -200 35q-111 0 -171.5 -48.5t-60.5 -138.5q0 -79 61 -126.5t160 -47.5q141 0 228.5 70.5t87.5 187.5zM735 1356q0 -103 -66.5 -160t-174.5 -57t-175 57t-67 160q0 20 2 26h119l-2 -22q0 -52 33.5 -83.5t89.5 -31.5t89 31.5t33 83.5l-2 22h119
q2 -6 2 -26z" />
    <glyph glyph-name="uni04D2" unicode="&#x4d2;" horiz-adv-x="1482" 
d="M29 0l612 1434h201l612 -1434h-151l-162 385h-799l-162 -385h-151zM397 516h688l-344 815zM504 1632v172h168v-172h-168zM811 1632v172h168v-172h-168z" />
    <glyph glyph-name="uni04D3" unicode="&#x4d3;" horiz-adv-x="1032" 
d="M90 274q0 137 97 214t251 77q131 0 252 -43l68 -24v133q0 117 -70.5 179t-195.5 62q-112 0 -187.5 -54.5t-95.5 -155.5l-117 34q25 134 133 214.5t267 80.5q187 0 292 -101.5t105 -275.5v-614h-131v139q-40 -72 -137 -115.5t-205 -43.5q-148 0 -237 80.5t-89 213.5z
M758 356v33l-105 35q-103 35 -200 35q-111 0 -171.5 -48.5t-60.5 -138.5q0 -79 61 -126.5t160 -47.5q141 0 228.5 70.5t87.5 187.5zM252 1169v172h168v-172h-168zM559 1169v172h168v-172h-168z" />
    <glyph glyph-name="uni04D4" unicode="&#x4d4;" horiz-adv-x="1880" 
d="M985 131h772v-131h-915v385h-463l-195 -385h-155l721 1434h987v-131h-752v-496h690v-131h-690v-545zM842 516v791l-398 -791h398z" />
    <glyph glyph-name="uni04D5" unicode="&#x4d5;" horiz-adv-x="1705" 
d="M90 276q0 140 97.5 218.5t261.5 78.5h294v58q0 118 -66 179.5t-188 61.5q-112 0 -186 -54.5t-94 -155.5l-117 34q25 134 132.5 214.5t264.5 80.5q255 0 347 -188q61 89 153.5 138.5t206.5 49.5q195 0 309.5 -106.5t114.5 -290.5q0 -56 -14 -127h-723q1 -171 92 -270
t239 -99q231 0 304 236l114 -45q-107 -309 -415 -309q-134 0 -239 63.5t-165 181.5q-102 -245 -393 -245q-148 0 -239 81.5t-91 214.5zM881 573h608l2 43q0 120 -85 188t-214 68q-125 0 -211.5 -81.5t-99.5 -217.5zM743 387v80h-280q-113 0 -177.5 -50.5t-64.5 -140.5
q0 -85 60 -131.5t165 -46.5q135 0 216 79t81 210z" />
    <glyph glyph-name="uni04D6" unicode="&#x4d6;" horiz-adv-x="1273" 
d="M164 1434h966v-131h-823v-496h762v-131h-762v-545h844v-131h-987v1434zM854 1819q0 -103 -67 -160t-175 -57t-174.5 57t-66.5 160q0 20 2 26h119l-3 -22q0 -52 33.5 -83.5t89.5 -31.5t89.5 31.5t33.5 83.5l-2 22h119q2 -6 2 -26z" />
    <glyph glyph-name="uni04D7" unicode="&#x4d7;" horiz-adv-x="1044" 
d="M856 334l115 -45q-107 -309 -416 -309q-206 0 -339.5 140.5t-133.5 371.5q0 137 57.5 251t162 181t233.5 67q195 0 309 -106.5t114 -290.5q0 -56 -14 -127h-723q1 -171 92.5 -270t239.5 -99q230 0 303 236zM221 573h606l2 43q0 120 -84.5 188t-212.5 68
q-125 0 -211.5 -81.5t-99.5 -217.5zM776 1356q0 -103 -66.5 -160t-174.5 -57t-175 57t-67 160q0 20 2 26h119l-2 -22q0 -52 33.5 -83.5t89.5 -31.5t89 31.5t33 83.5l-2 22h119q2 -6 2 -26z" />
    <glyph glyph-name="uni04D8" unicode="&#x4d8;" horiz-adv-x="1468" 
d="M1370 717q3 -203 -81 -373t-237 -268.5t-341 -95.5q-280 0 -449.5 165t-169.5 433q0 90 21 172h1106q-9 262 -158 417.5t-373 155.5q-178 0 -305 -109q-122 -107 -168 -270l-141 55q74 214 231 334.5t381 120.5q146 0 272 -52.5t217 -147t143 -233.5t52 -304zM1212 618
h-964q-4 -50 -4 -77q0 -190 132 -310t339 -120q211 0 342 137q134 140 155 370z" />
    <glyph glyph-name="uni04D9" unicode="&#x4d9;" horiz-adv-x="1044" 
d="M188 637l-114 45q107 309 415 309q206 0 340 -140.5t134 -371.5q0 -137 -57.5 -251t-162 -181t-233.5 -67q-195 0 -309.5 106.5t-114.5 290.5q0 56 14 127h723q-1 171 -92 269.5t-239 98.5q-231 0 -304 -235zM823 397h-606l-2 -43q0 -120 84.5 -188t212.5 -68
q125 0 211.5 81.5t99.5 217.5z" />
    <glyph glyph-name="uni04DA" unicode="&#x4da;" horiz-adv-x="1468" 
d="M1370 717q3 -203 -81 -373t-237 -268.5t-341 -95.5q-280 0 -449.5 165t-169.5 433q0 90 21 172h1106q-9 262 -158 417.5t-373 155.5q-178 0 -305 -109q-122 -107 -168 -270l-141 55q74 214 231 334.5t381 120.5q146 0 272 -52.5t217 -147t143 -233.5t52 -304zM1212 618
h-964q-4 -50 -4 -77q0 -190 132 -310t339 -120q211 0 342 137q134 140 155 370zM446 1632v172h168v-172h-168zM754 1632v172h168v-172h-168z" />
    <glyph glyph-name="uni04DB" unicode="&#x4db;" horiz-adv-x="1044" 
d="M188 637l-114 45q107 309 415 309q206 0 340 -140.5t134 -371.5q0 -137 -57.5 -251t-162 -181t-233.5 -67q-195 0 -309.5 106.5t-114.5 290.5q0 56 14 127h723q-1 171 -92 269.5t-239 98.5q-231 0 -304 -235zM823 397h-606l-2 -43q0 -120 84.5 -188t212.5 -68
q125 0 211.5 81.5t99.5 217.5zM279 1169v172h167v-172h-167zM586 1169v172h168v-172h-168z" />
    <glyph glyph-name="uni04DC" unicode="&#x4dc;" horiz-adv-x="1916" 
d="M1157 748l719 -748h-182l-664 682v-682h-143v682l-664 -682h-182l719 748l-690 686h182l635 -643v643h143v-643l635 643h182zM721 1632v172h168v-172h-168zM1028 1632v172h168v-172h-168z" />
    <glyph glyph-name="uni04DD" unicode="&#x4dd;" horiz-adv-x="1384" 
d="M51 0l457 512l-440 459h155l404 -432v432h131v-432l403 432h156l-440 -459l456 -512h-151l-424 477v-477h-131v477l-424 -477h-152zM451 1169v172h167v-172h-167zM758 1169v172h168v-172h-168z" />
    <glyph glyph-name="uni04DE" unicode="&#x4de;" horiz-adv-x="1169" 
d="M94 373l127 55q68 -317 367 -317q145 0 236 71.5t91 202.5q0 132 -84.5 203t-218.5 71h-49v132h49q131 0 206 67.5t75 194.5q0 134 -77 202t-224 68q-126 0 -212.5 -73t-117.5 -199l-127 55q29 137 159 242.5t298 105.5q211 0 327.5 -104.5t116.5 -296.5
q0 -117 -62.5 -198.5t-166.5 -125.5q109 -31 180.5 -117.5t71.5 -205.5q0 -197 -132.5 -311.5t-338.5 -114.5q-196 0 -322 104.5t-172 288.5zM356 1632v172h168v-172h-168zM664 1632v172h167v-172h-167z" />
    <glyph glyph-name="uni04DF" unicode="&#x4df;" horiz-adv-x="911" 
d="M74 283l119 53q18 -110 86 -174t180 -64q107 0 170 48.5t63 132.5q0 75 -50.5 114t-135.5 39h-84v119h63q73 0 128 45.5t55 120.5q0 77 -54.5 116t-148.5 39q-90 0 -147 -49t-78 -131l-113 56q41 117 129 180t209 63q149 0 241.5 -75t92.5 -199q0 -80 -49 -139t-125 -80
q198 -44 198 -219q0 -129 -103.5 -214t-268.5 -85q-144 0 -250 83q-106 86 -127 220zM227 1169v172h168v-172h-168zM535 1169v172h167v-172h-167z" />
    <glyph glyph-name="uni04E2" unicode="&#x4e2;" horiz-adv-x="1554" 
d="M1247 1341l-839 -1341h-244v1434h143v-1342l840 1342h244v-1434h-144v1341zM500 1782h508v-119h-508v119z" />
    <glyph glyph-name="uni04E3" unicode="&#x4e3;" horiz-adv-x="1130" 
d="M143 0v971h131v-840l523 840h190v-971h-131v840l-522 -840h-191zM307 1319h508v-119h-508v119z" />
    <glyph glyph-name="uni04E4" unicode="&#x4e4;" horiz-adv-x="1554" 
d="M1247 1341l-839 -1341h-244v1434h143v-1342l840 1342h244v-1434h-144v1341zM516 1632v172h168v-172h-168zM823 1632v172h168v-172h-168z" />
    <glyph glyph-name="uni04E5" unicode="&#x4e5;" horiz-adv-x="1130" 
d="M143 0v971h131v-840l523 840h190v-971h-131v840l-522 -840h-191zM324 1169v172h168v-172h-168zM631 1169v172h168v-172h-168z" />
    <glyph glyph-name="uni04E6" unicode="&#x4e6;" horiz-adv-x="1658" 
d="M829 1454q153 3 290.5 -55.5t234.5 -159t153 -237.5t54 -285q2 -149 -54 -286t-153 -237t-234.5 -158.5t-290.5 -55.5q-153 -3 -290 55.5t-234 158.5t-153 237t-54 286q-2 148 54 285t153 237.5t234 159t290 55.5zM829 111q255 0 417.5 167t162.5 439q0 273 -162 439.5
t-418 166.5q-255 0 -417 -168t-162 -440q0 -179 76 -317.5t207.5 -212.5t295.5 -74zM580 1632v172h168v-172h-168zM887 1632v172h168v-172h-168z" />
    <glyph glyph-name="uni04E7" unicode="&#x4e7;" horiz-adv-x="1130" 
d="M82 485q0 218 134 362t349 144t349.5 -144t134.5 -362t-135 -361.5t-349 -143.5t-348.5 143.5t-134.5 361.5zM909 485q0 170 -96.5 278.5t-247.5 108.5t-247.5 -108.5t-96.5 -278.5t96.5 -278.5t247.5 -108.5t247.5 108.5t96.5 278.5zM324 1169v172h168v-172h-168z
M631 1169v172h168v-172h-168z" />
    <glyph glyph-name="uni04E8" unicode="&#x4e8;" horiz-adv-x="1658" 
d="M98 717q-2 148 54 285t153 237.5t234 159t290 55.5q153 3 290.5 -55.5t234.5 -159t153 -237.5t54 -285q2 -149 -54 -286t-153 -237t-234.5 -158.5t-290.5 -55.5q-153 -3 -290 55.5t-234 158.5t-153 237t-54 286zM252 776h1155q-19 247 -178.5 397t-399.5 150
q-239 0 -398.5 -150.5t-178.5 -396.5zM1407 657h-1155q19 -248 179.5 -397t397.5 -149q240 0 399.5 149t178.5 397z" />
    <glyph glyph-name="uni04E9" unicode="&#x4e9;" horiz-adv-x="1130" 
d="M82 481q0 220 134 365t349 145t349.5 -145t134.5 -365q0 -217 -134.5 -359t-349.5 -142q-142 0 -252.5 65t-170.5 179t-60 257zM225 545h680q-17 148 -110.5 237.5t-229.5 89.5t-229.5 -89.5t-110.5 -237.5zM907 426h-684q17 -150 110 -239t232 -89t232 89t110 239z" />
    <glyph glyph-name="uni04EA" unicode="&#x4ea;" horiz-adv-x="1658" 
d="M98 717q-2 148 54 285t153 237.5t234 159t290 55.5q153 3 290.5 -55.5t234.5 -159t153 -237.5t54 -285q2 -149 -54 -286t-153 -237t-234.5 -158.5t-290.5 -55.5q-153 -3 -290 55.5t-234 158.5t-153 237t-54 286zM252 776h1155q-19 247 -178.5 397t-399.5 150
q-239 0 -398.5 -150.5t-178.5 -396.5zM1407 657h-1155q19 -248 179.5 -397t397.5 -149q240 0 399.5 149t178.5 397zM592 1632v172h168v-172h-168zM899 1632v172h168v-172h-168z" />
    <glyph glyph-name="uni04EB" unicode="&#x4eb;" horiz-adv-x="1130" 
d="M82 481q0 220 134 365t349 145t349.5 -145t134.5 -365q0 -217 -134.5 -359t-349.5 -142q-142 0 -252.5 65t-170.5 179t-60 257zM225 545h680q-17 148 -110.5 237.5t-229.5 89.5t-229.5 -89.5t-110.5 -237.5zM907 426h-684q17 -150 110 -239t232 -89t232 89t110 239z
M324 1169v172h168v-172h-168zM631 1169v172h168v-172h-168z" />
    <glyph glyph-name="uni04EC" unicode="&#x4ec;" horiz-adv-x="1574" 
d="M74 530l121 50q60 -221 188 -344q131 -125 389 -125q236 0 390 145t169 401h-659v131h657q-14 162 -91.5 284.5t-198.5 186.5t-267 64q-192 0 -320 -107t-171 -294l-134 59q61 206 213 340q154 133 410 133q155 2 288.5 -54t226 -154.5t143.5 -235.5t49 -293
q0 -161 -48 -296.5t-137.5 -233.5t-223.5 -152.5t-298 -54.5q-279 0 -459 151q-179 150 -237 399zM532 1632v172h168v-172h-168zM840 1632v172h168v-172h-168z" />
    <glyph glyph-name="uni04ED" unicode="&#x4ed;" horiz-adv-x="1118" 
d="M1036 492q0 -230 -137.5 -371t-359.5 -141q-180 0 -300.5 100t-164.5 285l112 43q43 -158 125.5 -234t227.5 -76q135 0 239.5 91.5t122.5 242.5h-391v119h391q-18 150 -119.5 235.5t-224.5 85.5q-251 0 -321 -260l-119 37q41 166 153 254t285 88q134 0 243.5 -63
t173.5 -177.5t64 -258.5zM313 1169v172h168v-172h-168zM621 1169v172h167v-172h-167z" />
    <glyph glyph-name="uni04EE" unicode="&#x4ee;" horiz-adv-x="1378" 
d="M254 0l350 545l-567 889h172l481 -758l481 758h170l-917 -1434h-170zM436 1782h508v-119h-508v119z" />
    <glyph glyph-name="uni04EF" unicode="&#x4ef;" horiz-adv-x="915" 
d="M743 971h142l-582 -1377h-141l215 508l-357 869h144l287 -695zM180 1319h508v-119h-508v119z" />
    <glyph glyph-name="uni04F0" unicode="&#x4f0;" horiz-adv-x="1378" 
d="M254 0l350 545l-567 889h172l481 -758l481 758h170l-917 -1434h-170zM453 1632v172h168v-172h-168zM760 1632v172h168v-172h-168z" />
    <glyph glyph-name="uni04F1" unicode="&#x4f1;" horiz-adv-x="915" 
d="M743 971h142l-582 -1377h-141l215 508l-357 869h144l287 -695zM197 1169v172h168v-172h-168zM504 1169v172h168v-172h-168z" />
    <glyph glyph-name="uni04F2" unicode="&#x4f2;" horiz-adv-x="1378" 
d="M254 0l350 545l-567 889h172l481 -758l481 758h170l-917 -1434h-170zM461 1599l182 273h195v-25l-250 -248h-127zM793 1599l182 273h194v-25l-249 -248h-127z" />
    <glyph glyph-name="uni04F3" unicode="&#x4f3;" horiz-adv-x="915" 
d="M743 971h142l-582 -1377h-141l215 508l-357 869h144l287 -695zM209 1137l182 272h195v-25l-250 -247h-127zM541 1137l182 272h195v-25l-250 -247h-127z" />
    <glyph glyph-name="uni04F4" unicode="&#x4f4;" horiz-adv-x="1363" 
d="M1057 0v510q-155 -186 -428 -186q-219 0 -348 135t-129 370v605h143v-584q0 -194 94.5 -294.5t269.5 -100.5q110 0 216.5 61.5t181.5 167.5v750h143v-1434h-143zM438 1632v172h168v-172h-168zM745 1632v172h168v-172h-168z" />
    <glyph glyph-name="uni04F5" unicode="&#x4f5;" horiz-adv-x="1091" 
d="M817 532v439h131v-971h-131v410q-44 -81 -135.5 -132t-206.5 -51q-159 0 -245.5 91t-86.5 251v402h131v-402q0 -107 58 -165t155 -58q103 0 182.5 45.5t147.5 140.5zM303 1169v172h168v-172h-168zM610 1169v172h168v-172h-168z" />
    <glyph glyph-name="uni04F8" unicode="&#x4f8;" horiz-adv-x="1853" 
d="M164 0v1434h143v-631h520q198 0 325.5 -110.5t127.5 -291.5t-127.5 -291t-325.5 -110h-663zM307 131h518q137 0 221 72t84 198t-84 198.5t-221 72.5h-518v-541zM1546 0v1434h144v-1434h-144zM645 1632v172h168v-172h-168zM952 1632v172h168v-172h-168z" />
    <glyph glyph-name="uni04F9" unicode="&#x4f9;" horiz-adv-x="1415" 
d="M143 0v971h131v-369h304q136 0 226.5 -87t90.5 -214q0 -133 -88.5 -217t-228.5 -84h-435zM274 119h299q85 0 138 50t53 132t-53 132t-138 50h-299v-364zM1141 971h131v-971h-131v971zM467 1169v172h168v-172h-168zM774 1169v172h168v-172h-168z" />
    <glyph glyph-name="uni0527" unicode="&#x527;" horiz-adv-x="1110" 
d="M274 0h-131v1434h131v-676q43 106 138.5 169.5t212.5 63.5q159 0 250.5 -100.5t91.5 -276.5v-614h-131v602q0 132 -63 201t-177 69q-137 0 -229.5 -111t-92.5 -276v-485zM967 -225v356h123v-356h-123z" />
    <glyph glyph-name="uni0E3F" unicode="&#xe3f;" horiz-adv-x="1382" 
d="M1280 385q0 -164 -130.5 -274.5t-322.5 -110.5h-63v-201h-139v201h-461v1434h461v200h139v-200h20q203 0 324 -102.5t121 -262.5q0 -104 -57 -194.5t-146 -133.5q128 -56 191 -140.5t63 -215.5zM307 1303v-504h318v504h-318zM811 1303h-47v-504h47q124 0 201.5 68
t77.5 184q0 117 -82 184q-83 68 -197 68zM307 131h318v545h-318v-545zM1130 401q0 126 -85 200.5t-220 74.5h-61v-545h61q137 0 221 72t84 198z" />
    <glyph glyph-name="Wgrave" unicode="&#x1e80;" horiz-adv-x="1982" 
d="M385 0l-356 1434h153l328 -1348l354 1348h254l355 -1348l327 1348h154l-357 -1434h-247l-359 1348l-358 -1348h-248zM930 1599l-250 248v25h194l183 -273h-127z" />
    <glyph glyph-name="wgrave" unicode="&#x1e81;" horiz-adv-x="1490" 
d="M162 971l254 -852l250 852h159l250 -852l254 852h125l-293 -971h-176l-240 823l-239 -823h-176l-293 971h125zM682 1137l-250 247v25h195l182 -272h-127z" />
    <glyph glyph-name="Wacute" unicode="&#x1e82;" horiz-adv-x="1982" 
d="M385 0l-356 1434h153l328 -1348l354 1348h254l355 -1348l327 1348h154l-357 -1434h-247l-359 1348l-358 -1348h-248zM928 1599l182 273h195v-25l-250 -248h-127z" />
    <glyph glyph-name="wacute" unicode="&#x1e83;" horiz-adv-x="1490" 
d="M162 971l254 -852l250 852h159l250 -852l254 852h125l-293 -971h-176l-240 823l-239 -823h-176l-293 971h125zM682 1137l182 272h195v-25l-250 -247h-127z" />
    <glyph glyph-name="Wdieresis" unicode="&#x1e84;" horiz-adv-x="1982" 
d="M385 0l-356 1434h153l328 -1348l354 1348h254l355 -1348l327 1348h154l-357 -1434h-247l-359 1348l-358 -1348h-248zM750 1632v172h168v-172h-168zM1057 1632v172h168v-172h-168z" />
    <glyph glyph-name="wdieresis" unicode="&#x1e85;" horiz-adv-x="1490" 
d="M162 971l254 -852l250 852h159l250 -852l254 852h125l-293 -971h-176l-240 823l-239 -823h-176l-293 971h125zM504 1169v172h168v-172h-168zM811 1169v172h168v-172h-168z" />
    <glyph glyph-name="uni1E9E" unicode="&#x1e9e;" horiz-adv-x="1370" 
d="M371 240l121 71q95 -200 303 -200q152 0 240.5 82.5t88.5 232.5q0 146 -91.5 228.5t-237.5 82.5q-117 0 -195 -55l-84 78l518 543h-420q-319 0 -319 -320v-983h-143v983q0 219 116.5 335t333.5 116h604v-131l-432 -443q16 4 41 4q192 0 322.5 -123.5t130.5 -314.5
q0 -200 -135.5 -323t-337.5 -123q-158 0 -264.5 70.5t-159.5 189.5z" />
    <glyph glyph-name="Ygrave" unicode="&#x1ef2;" horiz-adv-x="1323" 
d="M195 1434l467 -711l466 711h162l-557 -836v-598h-143v598l-557 836h162zM600 1599l-250 248v25h195l182 -273h-127z" />
    <glyph glyph-name="ygrave" unicode="&#x1ef3;" horiz-adv-x="915" 
d="M743 971h142l-582 -1377h-141l215 508l-357 869h144l287 -695zM375 1137l-250 247v25h194l183 -272h-127z" />
    <glyph glyph-name="endash" unicode="&#x2013;" horiz-adv-x="1298" 
d="M102 578h1094v-119h-1094v119z" />
    <glyph glyph-name="emdash" unicode="&#x2014;" horiz-adv-x="1789" 
d="M102 578h1586v-119h-1586v119z" />
    <glyph glyph-name="quoteleft" unicode="&#x2018;" horiz-adv-x="428" 
d="M279 1049h-177v227q0 76 41.5 117t110.5 41h72v-88h-68q-30 0 -49 -16t-19 -44q0 -27 19 -44t53 -17h17v-176z" />
    <glyph glyph-name="quoteright" unicode="&#x2019;" horiz-adv-x="428" 
d="M150 1434h176v-228q0 -76 -41.5 -116.5t-110.5 -40.5h-72v88h68q30 0 49 15.5t19 43.5q0 27 -19 44t-53 17h-16v177z" />
    <glyph glyph-name="quotesinglbase" unicode="&#x201a;" horiz-adv-x="428" 
d="M150 176h176v-227q0 -76 -41.5 -117t-110.5 -41h-72v88h68q30 0 49 16t19 44q0 27 -19 44t-53 17h-16v176z" />
    <glyph glyph-name="quotedblleft" unicode="&#x201c;" horiz-adv-x="708" 
d="M102 1049v227q0 76 41.5 117t110.5 41h72v-88h-68q-30 0 -49 -16t-19 -44q0 -27 19 -44t53 -17h17v-176h-177zM383 1049v227q0 76 41.5 117t110.5 41h71v-88h-67q-30 0 -49 -16t-19 -44q0 -27 19 -44t53 -17h16v-176h-176z" />
    <glyph glyph-name="quotedblright" unicode="&#x201d;" horiz-adv-x="708" 
d="M102 1049v88h68q30 0 49 15.5t19 43.5q0 27 -19 44t-53 17h-16v177h176v-228q0 -76 -41.5 -116.5t-110.5 -40.5h-72zM383 1049v88h68q30 0 48.5 15.5t18.5 43.5q0 27 -19 44t-53 17h-16v177h176v-228q0 -76 -41 -116.5t-110 -40.5h-72z" />
    <glyph glyph-name="quotedblbase" unicode="&#x201e;" horiz-adv-x="735" 
d="M92 -209v88h68q30 0 48.5 15.5t18.5 44.5q0 27 -18.5 44t-52.5 17h-17v176h176v-227q0 -76 -41 -117t-110 -41h-72zM373 -209v88h67q30 0 49 16t19 44q0 27 -19 44t-53 17h-16v176h176v-227q0 -76 -41.5 -117t-110.5 -41h-71z" />
    <glyph glyph-name="dagger" unicode="&#x2020;" horiz-adv-x="819" 
d="M348 553v633h-233v114h233v248h123v-248h234v-114h-234v-633h-123z" />
    <glyph glyph-name="daggerdbl" unicode="&#x2021;" horiz-adv-x="819" 
d="M348 553v276h-233v115h233v242h-233v114h233v248h123v-248h234v-114h-234v-242h234v-115h-234v-276h-123z" />
    <glyph glyph-name="bullet" unicode="&#x2022;" horiz-adv-x="495" 
d="M143 698h209v-209h-209v209z" />
    <glyph glyph-name="ellipsis" unicode="&#x2026;" horiz-adv-x="1200" 
d="M143 176h176v-176h-176v176zM512 176h176v-176h-176v176zM881 176h176v-176h-176v176z" />
    <glyph glyph-name="perthousand" unicode="&#x2030;" horiz-adv-x="2283" 
d="M82 1092q0 157 100 259.5t260 102.5t260.5 -102.5t100.5 -259.5t-100.5 -260t-260.5 -103t-260 103t-100 260zM676 1092q0 110 -65 178.5t-169 68.5t-168.5 -68.5t-64.5 -178.5t64.5 -179t168.5 -69t169 69t65 179zM360 180l-84 86l1022 979l84 -86zM887 342
q0 157 100 260t260 103q100 0 179.5 -50.5t117.5 -130.5q38 80 117.5 130.5t179.5 50.5q160 0 260.5 -103t100.5 -260t-100.5 -259.5t-260.5 -102.5q-100 0 -179.5 50t-117.5 130q-38 -80 -117.5 -130t-179.5 -50q-160 0 -260 102.5t-100 259.5zM1481 342q0 110 -65 179
t-169 69t-168.5 -69t-64.5 -179t64.5 -179t168.5 -69t169 69t65 179zM2075 342q0 110 -65 179t-169 69t-168.5 -69t-64.5 -179t64.5 -179t168.5 -69t169 69t65 179z" />
    <glyph glyph-name="guilsinglleft" unicode="&#x2039;" horiz-adv-x="651" 
d="M504 197l-393 399v37l393 399h24v-164l-270 -241v-25l270 -242v-163h-24z" />
    <glyph glyph-name="guilsinglright" unicode="&#x203a;" horiz-adv-x="651" 
d="M123 197v163l270 242v25l-270 241v164h24l394 -399v-37l-394 -399h-24z" />
    <glyph glyph-name="uni203D" unicode="&#x203d;" horiz-adv-x="1144" 
d="M477 344v979q-116 -27 -184 -109.5t-68 -212.5q0 -93 60 -190l-103 -66q-88 119 -88 248q0 177 104.5 299.5t278.5 153.5v90h131v-82q201 -6 321 -119.5t120 -283.5q0 -131 -59 -230t-167 -155q-116 -59 -165.5 -118.5t-49.5 -158.5v-45h-131zM723 745q104 49 149.5 119
t45.5 176q0 126 -86 206.5t-224 88.5v-678q18 29 43 48t72 40zM455 0v176h176v-176h-176z" />
    <glyph glyph-name="uni2042" unicode="&#x2042;" horiz-adv-x="1900" 
d="M877 1475h147v-148l-61 -197l176 121l139 45l45 -139l-139 -45h-209l164 -125l86 -117l-119 -86l-86 119l-70 197l-69 -197l-86 -119l-119 86l86 117l164 125h-209l-139 45l45 139l139 -45l174 -121l-59 197v148zM532 -41h-147v147l59 197l-174 -121l-139 -45l-45 139
l139 46h209l-164 124l-86 117l119 86l86 -119l70 -196l69 196l86 119l119 -86l-86 -117l-164 -124h209l139 -46l-45 -139l-139 45l-176 121l61 -197v-147zM1516 -41h-148v147l59 197l-174 -121l-139 -45l-45 139l139 46h209l-164 124l-86 117l119 86l86 -119l70 -196l69 196
l86 119l119 -86l-86 -117l-164 -124h209l140 -46l-46 -139l-139 45l-176 121l62 -197v-147z" />
    <glyph glyph-name="fraction" unicode="&#x2044;" horiz-adv-x="286" 
d="M598 1196l74 -74l-983 -938l-74 74z" />
    <glyph glyph-name="uni2051" unicode="&#x2051;" horiz-adv-x="917" 
d="M532 -41h-147v147l59 197l-174 -121l-139 -45l-45 139l139 46h209l-164 124l-86 117l119 86l86 -119l70 -196l69 196l86 119l119 -86l-86 -117l-164 -124h209l139 -46l-45 -139l-139 45l-176 121l61 -197v-147zM385 1475h147v-148l-61 -197l176 121l139 45l45 -139
l-139 -45h-209l164 -125l86 -117l-119 -86l-86 119l-69 197l-70 -197l-86 -119l-119 86l86 117l164 125h-209l-139 45l45 139l139 -45l174 -121l-59 197v148z" />
    <glyph glyph-name="uni2055" unicode="&#x2055;" horiz-adv-x="1638" 
d="M1556 778v-123h-587l415 -415l-88 -88l-415 415v-587h-123v587l-416 -415l-88 88l416 415h-588v123h588l-416 416l88 88l416 -416v588h123v-588l415 416l88 -88l-415 -416h587z" />
    <glyph glyph-name="uni2070" unicode="&#x2070;" horiz-adv-x="745" 
d="M78 1085q0 165 82 261t213 96t213 -96t82 -261t-82 -260.5t-213 -95.5t-213 95.5t-82 260.5zM565 1085q0 123 -54.5 193t-137.5 70t-138 -70t-55 -193q0 -120 56 -191t137 -71t136.5 71t55.5 191z" />
    <glyph glyph-name="uni2074" unicode="&#x2074;" horiz-adv-x="602" 
d="M381 737v162h-328v109q86 79 118 162t32 219v45h102v-45q0 -131 -34.5 -227t-108.5 -169h219v226h102v-226h86v-94h-86v-162h-102z" />
    <glyph glyph-name="uni2075" unicode="&#x2075;" horiz-adv-x="643" 
d="M528 1434v-93h-338q-3 -101 -28 -211q63 78 178 78q100 0 162.5 -61t62.5 -164q0 -113 -69 -183.5t-181 -70.5q-95 0 -160.5 53t-82.5 148l100 22q24 -127 143 -127q72 0 110 39.5t38 108.5q0 67 -38 105t-106 38q-45 0 -84 -24t-57 -58l-100 31q31 200 31 369h419z" />
    <glyph glyph-name="uni2076" unicode="&#x2076;" horiz-adv-x="665" 
d="M78 1085q0 157 73.5 257t194.5 100q97 0 156 -46.5t73 -127.5l-88 -25q-25 107 -147 107q-70 0 -116 -68t-46 -188v-13q19 48 69 79.5t109 31.5q103 0 167.5 -62.5t64.5 -164.5q0 -105 -67.5 -170.5t-172.5 -65.5q-131 0 -200.5 95.5t-69.5 260.5zM485 961
q0 62 -39.5 100.5t-101.5 38.5t-101.5 -38.5t-39.5 -100.5q0 -63 39.5 -101.5t101.5 -38.5t101.5 38.5t39.5 101.5z" />
    <glyph glyph-name="uni2077" unicode="&#x2077;" horiz-adv-x="569" 
d="M57 1434h451v-82q-108 -83 -161.5 -189.5t-53.5 -261.5q0 -86 10 -164h-102q-11 93 -11 154q0 142 45.5 246t145.5 204h-324v93z" />
    <glyph glyph-name="uni2078" unicode="&#x2078;" horiz-adv-x="630" 
d="M70 944q0 66 36 113t103 67q-103 47 -103 146q0 74 59.5 123t149.5 49t149.5 -49t59.5 -123q0 -100 -102 -146q67 -20 103 -67t36 -113q0 -94 -66 -154.5t-180 -60.5t-179.5 60.5t-65.5 154.5zM432 1262q0 43 -33 67.5t-84 24.5t-83.5 -24.5t-32.5 -67.5t32.5 -69
t83.5 -26t84 26t33 69zM463 948q0 61 -39.5 94t-108.5 33q-68 0 -107.5 -33t-39.5 -94t39.5 -94t107.5 -33q69 0 108.5 33t39.5 94z" />
    <glyph glyph-name="uni2079" unicode="&#x2079;" horiz-adv-x="663" 
d="M78 924l86 26q12 -61 52.5 -95t102.5 -34q89 0 127.5 63t38.5 197v13q-19 -48 -66.5 -77.5t-107.5 -29.5q-103 0 -167 60t-64 159q0 105 67 170.5t172 65.5q132 0 199.5 -93.5t67.5 -258.5q0 -159 -71 -260t-196 -101q-98 0 -165.5 57t-75.5 138zM461 1214q0 62 -38.5 99
t-100.5 37t-101 -37t-39 -99q0 -61 39.5 -98t100.5 -37q59 0 99 37.5t40 97.5z" />
    <glyph glyph-name="uni2080" unicode="&#x2080;" horiz-adv-x="745" 
d="M78 -57q0 165 82 260.5t213 95.5t213 -95.5t82 -260.5t-82 -261t-213 -96t-213 96t-82 261zM565 -57q0 123 -54.5 192.5t-137.5 69.5t-138 -69.5t-55 -192.5q0 -120 56 -191t137 -71t136.5 71t55.5 191z" />
    <glyph glyph-name="uni2081" unicode="&#x2081;" horiz-adv-x="421" 
d="M225 -406v541q-33 -50 -72 -73.5t-98 -24.5l-18 102q83 4 129 40.5t70 111.5h92v-697h-103z" />
    <glyph glyph-name="uni2082" unicode="&#x2082;" horiz-adv-x="602" 
d="M57 84q0 96 67 155.5t171 59.5q114 0 177 -57t63 -156q0 -83 -44.5 -136.5t-146.5 -115.5q-72 -45 -103.5 -75t-41.5 -70h340v-95h-467q0 107 51 178t151 124q89 48 123.5 87.5t34.5 98.5q0 57 -37 90t-100 33q-58 0 -96.5 -32.5t-38.5 -82.5q0 -52 28 -80l-79 -55
q-52 55 -52 129z" />
    <glyph glyph-name="uni2083" unicode="&#x2083;" horiz-adv-x="628" 
d="M57 -215l99 45q8 -68 50 -106.5t109 -38.5q63 0 103.5 40t40.5 103t-39.5 102t-102.5 39q-47 0 -86 -26l-57 73l211 177h-291v98h434v-84l-194 -170l31 2q79 0 137.5 -58t58.5 -151q0 -105 -72 -174q-70 -70 -174 -70q-103 0 -170 54t-88 145z" />
    <glyph glyph-name="uni2084" unicode="&#x2084;" horiz-adv-x="602" 
d="M381 -406v162h-328v109q86 79 118 162t32 219v45h102v-45q0 -131 -34.5 -227t-108.5 -169h219v226h102v-226h86v-94h-86v-162h-102z" />
    <glyph glyph-name="uni2085" unicode="&#x2085;" horiz-adv-x="643" 
d="M528 291v-92h-338q-3 -101 -28 -211q63 78 178 78q100 0 162.5 -61.5t62.5 -164.5q0 -113 -69 -183.5t-181 -70.5q-95 0 -160.5 53t-82.5 148l100 23q24 -127 143 -127q72 0 110 39t38 108q0 67 -38 105t-106 38q-45 0 -84 -24t-57 -58l-100 31q31 200 31 369h419z" />
    <glyph glyph-name="uni2086" unicode="&#x2086;" horiz-adv-x="665" 
d="M78 -57q0 157 73 256.5t195 99.5q97 0 156 -46.5t73 -127.5l-88 -25q-25 107 -147 107q-70 0 -116 -68t-46 -188v-12q19 48 69 79t109 31q103 0 167.5 -62.5t64.5 -164.5q0 -105 -67.5 -170.5t-172.5 -65.5q-131 0 -200.5 96t-69.5 261zM485 -182q0 62 -39.5 100.5
t-101.5 38.5t-101.5 -38.5t-39.5 -100.5q0 -63 39.5 -101.5t101.5 -38.5t101.5 38.5t39.5 101.5z" />
    <glyph glyph-name="uni2087" unicode="&#x2087;" horiz-adv-x="569" 
d="M57 291h451v-82q-108 -83 -161.5 -189.5t-53.5 -261.5q0 -86 10 -164h-102q-11 94 -11 154q0 143 45.5 247t145.5 204h-324v92z" />
    <glyph glyph-name="uni2088" unicode="&#x2088;" horiz-adv-x="630" 
d="M70 -199q0 66 36 113.5t103 67.5q-103 47 -103 145q0 74 59.5 123t149.5 49t149.5 -49t59.5 -123q0 -98 -102 -145q67 -20 103 -67.5t36 -113.5q0 -94 -66 -154.5t-180 -60.5t-179.5 60.5t-65.5 154.5zM432 119q0 43 -33 67.5t-84 24.5t-83.5 -24.5t-32.5 -67.5
t32.5 -68.5t83.5 -25.5t84 25.5t33 68.5zM463 -195q0 61 -39.5 94t-108.5 33q-68 0 -107.5 -33t-39.5 -94t39.5 -94t107.5 -33q69 0 108.5 33t39.5 94z" />
    <glyph glyph-name="uni2089" unicode="&#x2089;" horiz-adv-x="663" 
d="M78 -219l86 26q12 -61 52.5 -95t102.5 -34q89 0 127.5 63.5t38.5 197.5v12q-19 -48 -66.5 -77.5t-107.5 -29.5q-103 0 -167 60t-64 159q0 105 67 170.5t172 65.5q132 0 199.5 -93.5t67.5 -258.5q0 -159 -71 -260t-196 -101q-98 0 -165.5 57t-75.5 138zM461 72
q0 62 -38.5 98.5t-100.5 36.5t-101 -36.5t-39 -98.5q0 -61 39.5 -98t100.5 -37q59 0 99 37.5t40 97.5z" />
    <glyph glyph-name="franc" unicode="&#x20a3;" horiz-adv-x="1247" 
d="M1137 1303h-822v-541h760v-131h-760v-217h303v-119h-303v-295h-143v295h-147v119h147v1020h965v-131z" />
    <glyph glyph-name="lira" unicode="&#x20a4;" horiz-adv-x="1271" 
d="M1098 268l108 -63q-88 -225 -317 -225q-89 0 -156 36t-133 109q-92 -145 -254 -145q-112 0 -180 63t-68 166t71 169t177 66q113 0 197 -69q-11 90 -60 176h-284v119h211q-83 134 -91 151h-182v119h137q-14 63 -14 125q0 169 122.5 279t305.5 110q177 0 285.5 -96
t122.5 -254l-131 -35q-13 124 -87 189t-190 65q-127 0 -208 -75.5t-81 -203.5q0 -44 17 -104h381v-119h-330l43 -69l49 -82h299v-119h-240q41 -103 41 -207q0 -51 -8 -82q74 -85 122 -118t116 -33q77 0 125.5 35.5t83.5 121.5zM522 217q-45 50 -82 73t-78 23
q-60 0 -94.5 -30t-34.5 -84q0 -48 34.5 -78.5t90.5 -30.5q53 0 96 34.5t68 92.5z" />
    <glyph glyph-name="uni20A9" unicode="&#x20a9;" horiz-adv-x="1826" 
d="M1798 793v-119h-213l-139 -674h-227l-160 674h-291l-160 -674h-227l-139 674h-213v119h188l-131 641h154l133 -641h284l150 641h213l149 -641h285l133 641h154l-131 -641h188zM797 793h233l-117 493zM506 147l123 527h-232zM1321 147l109 527h-232z" />
    <glyph glyph-name="dong" unicode="&#x20ab;" horiz-adv-x="1185" 
d="M1157 1276v-107h-143v-1169h-123v188q-60 -97 -148.5 -152.5t-201.5 -55.5q-198 0 -328.5 136.5t-130.5 362.5q0 227 129 369.5t321 142.5q111 0 205.5 -54t145.5 -146v378h-326v107h326v158h131v-158h143zM891 483q0 89 -30.5 164.5t-79.5 123.5t-109 74.5t-121 26.5
q-63 0 -122.5 -25t-108 -72t-78 -123t-29.5 -169t29.5 -168.5t78.5 -121.5t108 -70.5t122 -24.5q61 0 121 26t109 73.5t79.5 122t30.5 163.5zM133 -307v110h881v-110h-881z" />
    <glyph glyph-name="Euro" unicode="&#x20ac;" horiz-adv-x="1689" 
d="M1495 580l121 -50q-58 -248 -238 -399t-458 -151q-262 0 -445 145q-177 141 -237 385h-197v119h176q-4 78 -4 88t4 88h-176v119h197q59 237 245.5 383.5t436.5 146.5q256 0 407 -133q154 -133 215 -340l-133 -59q-43 187 -171 294t-320 107q-191 0 -334.5 -106
t-198.5 -293h541v-119h-566q-4 -78 -4 -88t4 -88h566v-119h-543q51 -189 194 -294t341 -105q256 0 387 125t190 344z" />
    <glyph glyph-name="uni20AE" unicode="&#x20ae;" horiz-adv-x="1363" 
d="M1294 1303h-540v-396l186 97l57 -115l-243 -127v-152l186 97l57 -115l-243 -127v-465h-144v389l-186 -96l-57 115l243 127v151l-186 -96l-57 115l243 126v472h-540v131h1224v-131z" />
    <glyph glyph-name="uni20B4" unicode="&#x20b4;" horiz-adv-x="1337" 
d="M1104 879h170v-119h-1202v119h864q106 86 106 208q0 106 -94 170q-94 66 -227 66q-265 0 -356 -242l-117 64q47 142 176 225q131 84 297 84q211 0 336 -100t125 -258q0 -121 -78 -217zM72 512v119h1202v-119h-860q-52 -64 -52 -160q0 -114 90 -177.5t240 -63.5
q151 0 243 53t173 180l100 -78q-170 -286 -516 -286q-210 0 -342 102q-131 101 -131 278q0 84 39 152h-186z" />
    <glyph glyph-name="uni20B8" unicode="&#x20b8;" horiz-adv-x="1323" 
d="M70 1303v131h1183v-131h-1183zM590 0v1016h-520v131h1183v-131h-520v-1016h-143z" />
    <glyph glyph-name="uni20B9" unicode="&#x20b9;" horiz-adv-x="1132" 
d="M1055 1303h-242q87 -90 102 -222h140v-118h-140q-14 -92 -65 -165.5t-135 -117.5q111 -42 163.5 -125.5t53.5 -228.5q2 -124 16.5 -188.5t55.5 -112.5v-25h-177q-22 43 -32 116t-15 212q-4 158 -79.5 226.5t-231.5 68.5h-2h-365v131h351q124 0 205.5 55t101.5 154h-658
v118h660q-17 104 -99 163t-210 59h-351v131h953v-131z" />
    <glyph glyph-name="uni20BA" unicode="&#x20ba;" horiz-adv-x="1249" 
d="M1176 457q0 -217 -131.5 -337t-370.5 -120h-391v426l-170 -88l-56 115l226 116v211l-170 -88l-56 115l226 117v510h143v-435l205 107l55 -115l-260 -135v-211l205 107l55 -115l-260 -135v-371h242q182 0 275 82t93 233q0 112 -69 199l125 68q84 -119 84 -256z" />
    <glyph glyph-name="uni20BD" unicode="&#x20bd;" horiz-adv-x="1380" 
d="M1278 1022q0 -180 -129 -296t-340 -116h-451v-217h322v-119h-322v-274h-143v274h-190v119h190v1041h594q217 0 343 -115t126 -297zM1126 1022q0 137 -88 209t-241 72h-439v-562h439q153 0 241 72t88 209z" />
    <glyph glyph-name="uni2113" unicode="&#x2113;" horiz-adv-x="1155" 
d="M797 397l121 -22q-29 -184 -131.5 -289.5t-251.5 -105.5q-141 0 -229 98t-105 270q-55 -14 -119 -24l-21 114q54 6 136 27q6 256 88 483q81 225 219 367q136 139 291 139q258 0 258 -278q0 -251 -201 -468.5t-524 -322.5q7 -132 65.5 -211.5t145.5 -79.5q99 0 166 78.5
t92 224.5zM330 504q280 100 434 280q158 187 158 400q0 74 -33 114.5t-94 40.5q-109 5 -213.5 -114t-173 -314.5t-78.5 -406.5z" />
    <glyph glyph-name="uni2116" unicode="&#x2116;" horiz-adv-x="2664" 
d="M1616 948q0 218 134 362t349 144t349.5 -144t134.5 -362t-135 -362t-349 -144t-348.5 144t-134.5 362zM307 1341v-1341h-143v1434h244l839 -1342v1342h144v-1434h-244zM2443 948q0 170 -96.5 278.5t-247.5 108.5t-247.5 -108.5t-96.5 -278.5t96.5 -278.5t247.5 -108.5
t247.5 108.5t96.5 278.5zM1679 119h840v-119h-840v119z" />
    <glyph glyph-name="uni2117" unicode="&#x2117;" horiz-adv-x="1097" 
d="M90 995q0 190 133.5 324.5t325.5 134.5t325.5 -134.5t133.5 -324.5q0 -124 -60.5 -229.5t-166 -167t-232.5 -61.5t-232.5 61.5t-166 167t-60.5 229.5zM928 995q0 158 -109.5 269.5t-269.5 111.5t-269.5 -111.5t-109.5 -269.5t109.5 -269.5t269.5 -111.5t269.5 111.5
t109.5 269.5zM367 739v514h231q79 0 124.5 -40t45.5 -111t-45.5 -111.5t-124.5 -40.5h-147v-211h-84zM451 1022h143q40 0 63 20t23 60t-23 60t-63 20h-143v-160z" />
    <glyph glyph-name="uni2120" unicode="&#x2120;" horiz-adv-x="1224" 
d="M74 1065l76 41q24 -117 135 -117q50 0 80 21.5t30 58.5q0 33 -27.5 52.5t-93.5 29.5q-172 27 -172 145q0 62 53.5 104t129.5 42q74 0 120 -30t60 -85l-66 -39q-13 41 -39.5 58.5t-74.5 17.5q-41 0 -71 -20t-30 -46q0 -57 129 -77q88 -12 128 -46t40 -102
q0 -73 -54.5 -117.5t-141.5 -44.5q-86 0 -140 40t-71 114zM561 920v514h156l139 -435l139 435h156v-514h-86v452l-152 -452h-114l-152 452v-452h-86z" />
    <glyph glyph-name="trademark" unicode="&#x2122;" horiz-adv-x="1251" 
d="M260 920v436h-186v78h456v-78h-184v-436h-86zM588 920v514h155l140 -435l139 435h156v-514h-86v452l-152 -452h-115l-151 452v-452h-86z" />
    <glyph glyph-name="uni2126" unicode="&#x2126;" horiz-adv-x="1572" 
d="M1475 768q0 -192 -106 -366.5t-255 -270.5h305v-131h-526v121q60 30 121 75.5t119 108.5t102.5 133t71 155.5t24.5 170.5q3 154 -69.5 284t-199 204t-276.5 71q-112 2 -214 -41.5t-175 -118.5t-115 -179.5t-40 -219.5q-2 -85 24.5 -170.5t71 -155.5t102.5 -133
t119 -108.5t121 -75.5v-121h-526v131h305q-149 96 -255 270.5t-106 366.5q-3 189 87 347.5t249.5 250t351.5 88.5q144 2 273 -51.5t221 -145.5t144.5 -220t50.5 -269z" />
    <glyph glyph-name="estimated" unicode="&#x212e;" horiz-adv-x="1611" 
d="M1513 655h-1146v-336q60 -103 183 -162t277 -59q214 0 362 104t204 285l120 -47q-72 -206 -256 -333t-430 -127q-154 -3 -292.5 55.5t-236 158.5t-154 237t-54.5 286q-3 152 53 289.5t154 237t236.5 156.5t293.5 54q142 2 272 -52t223.5 -146.5t147.5 -221.5t52 -270
q0 -60 -9 -109zM367 1130v-366h880v366q-63 91 -181.5 148t-248.5 57q-142 0 -258 -55t-192 -150z" />
    <glyph glyph-name="uni2153" unicode="&#x2153;" horiz-adv-x="1337" 
d="M225 737v541q-33 -50 -72 -73.5t-98 -24.5l-18 102q83 4 129 40.5t70 111.5h92v-697h-103zM1020 1196l74 -74l-983 -938l-74 74zM766 190l98 46q8 -68 50.5 -107t109.5 -39q63 0 103 40t40 103t-39 102.5t-102 39.5q-46 0 -86 -27l-57 74l211 176h-291v98h434v-84
l-195 -170l31 2q79 0 138 -57.5t59 -150.5q0 -105 -72 -177q-70 -67 -174 -67q-103 0 -170 54t-88 144z" />
    <glyph glyph-name="uni2154" unicode="&#x2154;" horiz-adv-x="1517" 
d="M57 1227q0 96 67 155.5t171 59.5q114 0 177 -57t63 -156q0 -83 -44.5 -136.5t-146.5 -115.5q-71 -45 -103 -75.5t-42 -70.5h340v-94h-467q0 107 51 177.5t151 123.5q89 48 123.5 88t34.5 99q0 57 -37 90t-100 33q-58 0 -96.5 -32.5t-38.5 -82.5q0 -52 28 -80l-79 -55
q-52 55 -52 129zM1200 1196l74 -74l-983 -938l-74 74zM946 190l98 46q8 -68 50.5 -107t109.5 -39q63 0 103.5 40t40.5 103t-39.5 102.5t-102.5 39.5q-46 0 -86 -27l-57 74l211 176h-291v98h434v-84l-194 -170l30 2q79 0 138 -57.5t59 -150.5q0 -105 -72 -177
q-70 -67 -174 -67q-103 0 -170 54t-88 144z" />
    <glyph glyph-name="oneeighth" unicode="&#x215b;" horiz-adv-x="1339" 
d="M225 737v541q-33 -50 -72 -73.5t-98 -24.5l-18 102q83 4 129 40.5t70 111.5h92v-697h-103zM1020 1196l74 -74l-983 -938l-74 74zM778 207q0 66 36.5 113t103.5 67q-103 47 -103 145q0 74 59.5 123.5t149.5 49.5t149.5 -49.5t59.5 -123.5q0 -98 -103 -145
q67 -20 103.5 -67t36.5 -113q0 -94 -66 -154.5t-180 -60.5t-180 60.5t-66 154.5zM1141 524q0 43 -33 67.5t-84 24.5t-84 -24.5t-33 -67.5t33 -68.5t84 -25.5t84 25.5t33 68.5zM1171 211q0 61 -39.5 94t-107.5 33t-107.5 -33t-39.5 -94t39.5 -94t107.5 -33t107.5 33t39.5 94z
" />
    <glyph glyph-name="threeeighths" unicode="&#x215c;" horiz-adv-x="1546" 
d="M57 928l99 45q8 -68 50 -107t109 -39q63 0 103.5 40.5t40.5 103.5t-39.5 102t-102.5 39q-45 0 -86 -27l-57 74l211 176h-291v99h434v-84l-194 -170l31 2q79 0 137.5 -58t58.5 -151q0 -104 -72 -176q-71 -68 -174 -68t-170 54t-88 145zM1227 1196l73 -74l-983 -938l-73 74
zM985 207q0 66 36 113t103 67q-102 47 -102 145q0 74 59.5 123.5t149.5 49.5t149.5 -49.5t59.5 -123.5q0 -98 -103 -145q67 -20 103.5 -67t36.5 -113q0 -94 -66 -154.5t-180 -60.5t-180 60.5t-66 154.5zM1348 524q0 43 -33 67.5t-84 24.5t-84 -24.5t-33 -67.5t33 -68.5
t84 -25.5t84 25.5t33 68.5zM1378 211q0 61 -39.5 94t-107.5 33q-69 0 -108.5 -33t-39.5 -94t39.5 -94t108.5 -33q68 0 107.5 33t39.5 94z" />
    <glyph glyph-name="fiveeighths" unicode="&#x215d;" horiz-adv-x="1560" 
d="M528 1434v-93h-338q-3 -101 -28 -211q63 78 178 78q100 0 162.5 -61t62.5 -164q0 -113 -69 -183.5t-181 -70.5q-95 0 -160.5 53t-82.5 148l100 22q24 -127 143 -127q72 0 110 39.5t38 108.5q0 67 -38 105t-106 38q-45 0 -84 -24t-57 -58l-100 31q31 200 31 369h419z
M1241 1196l74 -74l-983 -938l-74 74zM999 207q0 66 36.5 113t103.5 67q-103 47 -103 145q0 74 59.5 123.5t149.5 49.5t149.5 -49.5t59.5 -123.5q0 -98 -102 -145q67 -20 103 -67t36 -113q0 -94 -66 -154.5t-180 -60.5t-180 60.5t-66 154.5zM1362 524q0 43 -33 67.5t-84 24.5
t-84 -24.5t-33 -67.5t33 -68.5t84 -25.5t84 25.5t33 68.5zM1393 211q0 61 -39.5 94t-108.5 33q-68 0 -107.5 -33t-39.5 -94t39.5 -94t107.5 -33q69 0 108.5 33t39.5 94z" />
    <glyph glyph-name="seveneighths" unicode="&#x215e;" horiz-adv-x="1486" 
d="M57 1434h451v-82q-108 -83 -161.5 -189.5t-53.5 -261.5q0 -86 10 -164h-102q-11 93 -11 154q0 142 45.5 246t145.5 204h-324v93zM1167 1196l74 -74l-983 -938l-74 74zM926 207q0 66 36 113t103 67q-102 47 -102 145q0 74 59 123.5t149 49.5t149.5 -49.5t59.5 -123.5
q0 -98 -102 -145q67 -20 103 -67t36 -113q0 -94 -66 -154.5t-180 -60.5t-179.5 60.5t-65.5 154.5zM1288 524q0 43 -33 67.5t-84 24.5t-83.5 -24.5t-32.5 -67.5t32.5 -68.5t83.5 -25.5t84 25.5t33 68.5zM1319 211q0 61 -39.5 94t-108.5 33q-68 0 -107.5 -33t-39.5 -94
t39.5 -94t107.5 -33q69 0 108.5 33t39.5 94z" />
    <glyph glyph-name="uni2160" unicode="&#x2160;" horiz-adv-x="1167" 
d="M1085 131v-131h-1003v131h430v1172h-430v131h1003v-131h-430v-1172h430z" />
    <glyph glyph-name="uni2161" unicode="&#x2161;" horiz-adv-x="1740" 
d="M82 0v131h430v1172h-430v131h1577v-131h-430v-1172h430v-131h-1577zM655 131h430v1172h-430v-1172z" />
    <glyph glyph-name="uni2162" unicode="&#x2162;" horiz-adv-x="2314" 
d="M82 0v131h430v1172h-430v131h2150v-131h-430v-1172h430v-131h-2150zM655 131h430v1172h-430v-1172zM1229 131h430v1172h-430v-1172z" />
    <glyph glyph-name="uni2163" unicode="&#x2163;" horiz-adv-x="2314" 
d="M82 0v131h430v1172h-430v131h2150v-131h-256l-370 -1172h626v-131h-2150zM655 131h668l-371 1172h-297v-1172zM1464 131l365 1172h-729z" />
    <glyph glyph-name="uni2164" unicode="&#x2164;" horiz-adv-x="1699" 
d="M82 0v131h627l-371 1172h-256v131h1536v-131h-256l-371 -1172h627v-131h-1536zM850 131l364 1172h-729z" />
    <glyph glyph-name="uni2165" unicode="&#x2165;" horiz-adv-x="2314" 
d="M82 0v131h627l-371 1172h-256v131h2150v-131h-430v-1172h430v-131h-2150zM850 131l364 1172h-729zM991 131h668v1172h-297z" />
    <glyph glyph-name="uni2166" unicode="&#x2166;" horiz-adv-x="2887" 
d="M82 0v131h627l-371 1172h-256v131h2724v-131h-430v-1172h430v-131h-2724zM850 131l364 1172h-729zM991 131h668v1172h-297zM1802 131h430v1172h-430v-1172z" />
    <glyph glyph-name="uni2167" unicode="&#x2167;" horiz-adv-x="3461" 
d="M82 0v131h627l-371 1172h-256v131h3297v-131h-430v-1172h430v-131h-3297zM850 131l364 1172h-729zM991 131h668v1172h-297zM1802 131h430v1172h-430v-1172zM2376 131h430v1172h-430v-1172z" />
    <glyph glyph-name="uni2168" unicode="&#x2168;" horiz-adv-x="2314" 
d="M82 0v131h430v1172h-430v131h2150v-131h-311l-387 -586l387 -586h311v-131h-2150zM655 131h332l387 586l-387 586h-332v-1172zM1454 838l307 465h-614zM1147 131h614l-307 465z" />
    <glyph glyph-name="uni2169" unicode="&#x2169;" horiz-adv-x="1720" 
d="M82 0v131h311l387 586l-387 586h-311v131h1556v-131h-311l-387 -586l387 -586h311v-131h-1556zM860 838l307 465h-614zM553 131h614l-307 465z" />
    <glyph glyph-name="uni216A" unicode="&#x216a;" horiz-adv-x="2314" 
d="M82 0v131h311l387 586l-387 586h-311v131h2150v-131h-430v-1172h430v-131h-2150zM860 838l307 465h-614zM1327 131h332v1172h-332l-387 -586zM553 131h614l-307 465z" />
    <glyph glyph-name="uni216B" unicode="&#x216b;" horiz-adv-x="2887" 
d="M82 0v131h311l387 586l-387 586h-311v131h2724v-131h-430v-1172h430v-131h-2724zM860 838l307 465h-614zM1327 131h332v1172h-332l-387 -586zM1802 131h430v1172h-430v-1172zM553 131h614l-307 465z" />
    <glyph glyph-name="uni216C" unicode="&#x216c;" horiz-adv-x="1454" 
d="M82 0v131h246v1172h-246v131h635v-131h-246v-1172h758v307h143v-438h-1290z" />
    </font>
</defs>
</svg>
